{"_v":2,"glyphs":{"0":{"ha":572,"x_min":60,"x_max":511,"o":"m 286 -10 l 286 -10 q 213 -10 163 30 q 112 70 86 152 q 60 234 60 359 l 60 359 q 60 469 82 551 q 104 633 154 679 q 204 725 287 725 l 287 725 q 372 725 421 680 q 470 635 491 553 q 511 471 511 359 l 511 359 q 511 266 498 197 q 484 127 456 82 q 428 36 386 13 q 344 -10 286 -10 z m 286 26 l 286 26 q 337 26 373 48 q 408 70 430 113 q 452 155 462 218 q 472 280 472 359 l 472 359 q 472 431 464 491 q 455 550 435 595 q 415 640 379 665 q 343 689 287 689 l 287 689 q 232 689 196 664 q 159 638 139 593 q 118 548 109 489 q 100 429 100 359 l 100 359 q 100 277 111 215 q 122 152 145 110 q 167 68 202 47 q 237 26 286 26 z"},"1":{"ha":572,"x_min":103,"x_max":331,"o":"m 331 714 l 331 0 l 292 0 l 292 550 q 292 593 293 623 q 293 652 294 672 l 294 672 q 283 663 272 654 q 261 644 243 631 l 243 631 l 125 542 l 103 570 l 297 714 l 331 714 z"},"2":{"ha":572,"x_min":57,"x_max":497,"o":"m 497 0 l 57 0 l 57 33 l 273 260 q 323 312 357 355 q 391 397 409 440 q 426 483 426 536 l 426 536 q 426 584 407 618 q 388 652 353 670 q 318 688 269 688 l 269 688 q 224 688 181 672 q 138 656 97 623 l 97 623 l 75 652 q 107 678 140 694 q 172 709 205 717 q 238 724 271 724 l 271 724 q 330 724 374 702 q 417 680 442 638 q 466 596 466 538 l 466 538 q 466 479 446 432 q 426 384 391 339 q 356 294 306 243 l 306 243 l 111 39 l 111 37 l 497 37 l 497 0 z"},"3":{"ha":572,"x_min":46,"x_max":496,"o":"m 245 -10 l 245 -10 q 185 -10 135 2 q 84 13 46 31 l 46 31 l 46 71 q 85 51 139 38 q 192 25 245 25 l 245 25 q 350 25 403 71 q 456 116 456 195 l 456 195 q 456 252 429 287 q 401 321 352 337 q 302 353 235 353 l 235 353 l 155 353 l 155 389 l 235 389 q 289 389 335 407 q 380 424 407 459 q 434 494 434 548 l 434 548 q 434 619 387 654 q 340 688 264 688 l 264 688 q 210 688 163 670 q 116 652 73 620 l 73 620 l 53 650 q 96 683 149 704 q 201 724 265 724 l 265 724 q 327 724 374 705 q 421 686 448 647 q 474 608 474 550 l 474 550 q 474 504 455 467 q 435 430 402 407 q 368 384 323 375 l 323 375 l 323 373 q 406 362 451 318 q 496 274 496 196 l 496 196 q 496 131 466 85 q 436 39 380 15 q 324 -10 245 -10 z"},"4":{"ha":572,"x_min":23,"x_max":551,"o":"m 426 0 l 388 0 l 388 187 l 23 187 l 23 221 l 385 718 l 426 718 l 426 223 l 551 223 l 551 187 l 426 187 l 426 0 z m 328 583 l 66 223 l 388 223 l 388 512 q 388 551 388 577 q 388 602 389 624 q 389 646 390 673 l 390 673 l 387 673 q 374 649 361 629 q 347 609 328 583 l 328 583 z"},"5":{"ha":572,"x_min":70,"x_max":506,"o":"m 250 -10 l 250 -10 q 192 -10 147 2 q 102 13 70 31 l 70 31 l 70 73 q 106 52 152 39 q 198 26 251 26 l 251 26 q 316 26 365 49 q 413 71 440 114 q 466 157 466 217 l 466 217 q 466 301 416 347 q 365 393 266 393 l 266 393 q 226 393 189 388 q 152 383 117 372 l 117 372 l 93 390 l 122 714 l 461 714 l 461 677 l 157 677 l 133 411 q 161 419 196 424 q 230 429 273 429 l 273 429 q 345 429 397 405 q 449 381 478 335 q 506 288 506 219 l 506 219 q 506 147 475 96 q 443 44 385 17 q 327 -10 250 -10 z"},"6":{"ha":572,"x_min":68,"x_max":518,"o":"m 301 -10 l 301 -10 q 237 -10 192 16 q 147 42 120 87 q 92 132 80 188 q 68 244 68 303 l 68 303 q 68 394 82 463 q 96 532 123 582 q 150 631 188 663 q 225 695 272 711 q 318 726 372 726 l 372 726 q 401 726 425 723 q 449 719 468 714 l 468 714 l 468 676 q 450 683 426 687 q 402 690 373 690 l 373 690 q 298 690 239 656 q 180 621 145 543 q 109 464 107 332 l 107 332 l 110 332 q 124 360 151 385 q 177 410 218 426 q 258 441 311 441 l 311 441 q 377 441 423 415 q 469 388 494 340 q 518 291 518 226 l 518 226 q 518 156 493 103 q 467 50 419 20 q 370 -10 301 -10 z m 301 25 l 301 25 q 387 25 433 79 q 478 132 478 225 l 478 225 q 478 310 434 359 q 390 407 305 407 l 305 407 q 245 407 202 383 q 158 359 134 325 q 110 290 110 256 l 110 256 q 110 225 119 186 q 128 147 150 110 q 171 73 208 49 q 245 25 301 25 z"},"7":{"ha":572,"x_min":53,"x_max":510,"o":"m 214 0 l 171 0 l 466 677 l 53 677 l 53 714 l 510 714 l 510 686 l 214 0 z"},"8":{"ha":572,"x_min":63,"x_max":508,"o":"m 283 -10 l 283 -10 q 218 -10 169 12 q 119 33 91 75 q 63 117 63 175 l 63 175 q 63 228 85 266 q 106 303 147 331 q 187 359 242 379 l 242 379 q 199 398 164 421 q 128 444 107 478 q 86 511 86 557 l 86 557 q 86 610 112 648 q 138 685 184 705 q 229 724 285 724 l 285 724 q 346 724 391 706 q 435 687 460 651 q 485 614 485 560 l 485 560 q 485 517 466 485 q 447 453 412 428 q 376 403 326 381 l 326 381 q 381 361 422 334 q 463 306 486 270 q 508 233 508 182 l 508 182 q 508 120 478 77 q 448 34 397 12 q 346 -10 283 -10 z m 282 25 l 282 25 q 363 25 416 64 q 469 103 469 181 l 469 181 q 469 222 451 253 q 433 284 397 308 q 361 332 307 352 l 307 352 l 281 361 q 226 342 186 318 q 146 293 124 260 q 102 226 102 176 l 102 176 q 102 106 151 66 q 200 25 282 25 z m 288 398 l 288 398 q 336 417 371 440 q 406 462 426 491 q 446 520 446 558 l 446 558 q 446 626 403 658 q 359 689 285 689 l 285 689 q 215 689 170 655 q 125 621 125 557 l 125 557 q 125 516 146 487 q 166 458 203 437 q 239 416 288 398 z"},"9":{"ha":572,"x_min":54,"x_max":504,"o":"m 200 -10 l 200 -10 q 171 -10 143 -7 q 115 -4 95 2 l 95 2 l 95 40 q 114 33 142 29 q 170 25 199 25 l 199 25 q 256 25 304 44 q 351 63 387 106 q 422 148 443 217 q 463 285 465 383 l 465 383 l 462 383 q 449 356 422 331 q 395 306 355 290 q 315 274 261 274 l 261 274 q 195 274 149 301 q 103 327 79 376 q 54 425 54 489 l 54 489 q 54 560 80 613 q 105 666 154 696 q 203 726 271 726 l 271 726 q 336 726 381 700 q 425 673 453 629 q 480 584 492 529 q 504 473 504 413 l 504 413 q 504 323 490 254 q 476 184 449 134 q 422 84 385 52 q 347 20 301 5 q 254 -10 200 -10 z m 266 309 l 266 309 q 327 309 371 333 q 414 356 438 391 q 462 426 462 460 l 462 460 q 462 491 453 530 q 444 569 423 606 q 401 642 364 666 q 327 690 271 690 l 271 690 q 185 690 140 637 q 94 584 94 490 l 94 490 q 94 406 138 358 q 181 309 266 309 z"},"\r":{"ha":309,"x_min":0,"x_max":0,"o":""}," ":{"ha":309,"x_min":0,"x_max":0,"o":""},"ഀ":{"ha":0,"x_min":-414,"x_max":-142,"o":"m -414 727 l -414 727 q -414 784 -377 824 q -341 864 -279 864 l -279 864 q -215 864 -178 825 q -142 785 -142 727 l -142 727 q -142 668 -178 629 q -215 589 -278 589 l -278 589 q -342 589 -378 629 q -414 669 -414 727 z m -378 728 l -378 728 q -378 683 -353 653 q -328 623 -279 623 l -279 623 q -228 623 -203 653 q -178 683 -178 728 l -178 728 q -178 771 -203 801 q -228 830 -279 830 l -279 830 q -327 830 -352 801 q -378 771 -378 728 z"},"ഁ":{"ha":0,"x_min":-430,"x_max":-126,"o":"m -278 668 l -278 668 q -351 668 -390 703 q -430 738 -430 808 l -430 808 q -430 817 -428 831 q -427 844 -423 856 l -423 856 l -390 849 q -393 839 -394 828 q -395 816 -395 807 l -395 807 q -395 769 -381 746 q -367 723 -340 713 q -314 702 -278 702 l -278 702 q -238 702 -212 714 q -186 726 -173 750 q -161 774 -161 808 l -161 808 q -161 817 -162 828 q -163 839 -166 849 l -166 849 l -131 856 q -128 844 -127 830 q -126 816 -126 806 l -126 806 q -126 738 -167 703 q -209 668 -278 668 z m -278 775 l -278 775 q -295 775 -302 785 q -309 795 -309 810 l -309 810 q -309 824 -302 835 q -295 845 -278 845 l -278 845 q -260 845 -253 835 q -247 824 -247 810 l -247 810 q -247 795 -253 785 q -260 775 -278 775 z"},"ം":{"ha":420,"x_min":37,"x_max":383,"o":"m 209 -12 l 209 -12 q 157 -12 119 11 q 80 33 59 73 q 37 113 37 168 l 37 168 q 37 222 59 263 q 80 303 120 326 q 159 348 210 348 l 210 348 q 262 348 301 326 q 339 303 361 264 q 383 224 383 169 l 383 169 q 383 113 362 73 q 340 33 301 11 q 262 -12 209 -12 z m 210 313 l 210 313 q 150 313 113 276 q 75 239 75 168 l 75 168 q 75 97 113 60 q 151 23 209 23 l 209 23 q 269 23 307 60 q 344 97 344 169 l 344 169 q 344 240 307 277 q 269 313 210 313 z"},"ഃ":{"ha":317,"x_min":37,"x_max":280,"o":"m 37 434 l 37 434 q 37 487 70 524 q 102 560 158 560 l 158 560 q 214 560 247 524 q 280 488 280 434 l 280 434 q 280 381 247 345 q 214 309 158 309 l 158 309 q 101 309 69 345 q 37 381 37 434 z m 73 436 l 73 436 q 73 395 95 369 q 117 343 158 343 l 158 343 q 201 343 223 369 q 244 395 244 436 l 244 436 q 244 474 223 500 q 201 526 158 526 l 158 526 q 117 526 95 500 q 73 474 73 436 z m 37 113 l 37 113 q 37 166 70 202 q 102 238 158 238 l 158 238 q 214 238 247 203 q 280 167 280 113 l 280 113 q 280 60 247 24 q 214 -12 158 -12 l 158 -12 q 101 -12 69 24 q 37 60 37 113 z m 73 114 l 73 114 q 73 74 95 48 q 117 22 158 22 l 158 22 q 201 22 223 48 q 244 74 244 114 l 244 114 q 244 153 223 179 q 201 205 158 205 l 158 205 q 117 205 95 179 q 73 153 73 114 z"},"ഄ":{"ha":545,"x_min":40,"x_max":504,"o":"m 56 306 l 56 306 l 94 299 q 87 274 83 251 q 79 227 79 202 l 79 202 q 79 121 122 74 q 165 27 272 27 l 272 27 q 380 27 423 74 q 465 121 465 202 l 465 202 q 465 227 462 251 q 459 274 451 299 l 451 299 l 489 306 q 495 285 500 257 q 504 229 504 200 l 504 200 q 504 138 481 91 q 458 43 407 17 q 355 -9 272 -9 l 272 -9 q 189 -9 138 17 q 87 43 64 91 q 40 138 40 200 l 40 200 q 40 229 45 257 q 49 285 56 306 z m 255 161 l 255 393 l 291 393 l 291 161 l 255 161 z"},"അ":{"ha":1415,"x_min":44,"x_max":1371,"o":"m 355 560 l 355 560 q 395 560 440 554 q 484 548 523 533 l 523 533 q 526 532 529 529 q 532 526 536 524 l 536 524 q 574 512 602 491 q 629 469 645 439 q 660 409 660 371 l 660 371 q 660 340 649 313 q 637 286 609 269 q 580 252 529 247 l 529 247 l 531 255 q 601 251 636 217 q 671 182 671 126 l 671 126 q 671 87 654 56 q 637 25 602 7 q 567 -12 512 -12 l 512 -12 q 443 -12 397 18 q 350 48 327 104 q 303 159 303 233 l 303 233 q 303 296 323 351 q 343 406 382 449 q 420 492 475 520 l 475 520 q 479 522 482 525 q 485 527 488 529 l 488 529 q 519 543 555 552 q 590 560 632 560 l 632 560 q 711 560 757 535 q 803 510 826 468 q 849 425 855 372 l 855 372 l 865 272 l 865 0 l 827 0 l 827 303 q 827 370 816 411 q 804 451 778 477 l 778 477 q 755 500 720 513 q 684 525 627 525 l 627 525 q 599 525 573 521 q 547 516 524 508 l 524 508 q 481 493 447 466 q 412 438 389 401 q 365 363 353 321 q 341 279 341 234 l 341 234 q 341 135 384 79 q 427 22 512 22 l 512 22 q 570 22 601 48 q 632 74 632 126 l 632 126 q 632 171 602 202 q 571 233 499 233 l 499 233 l 472 233 l 472 268 l 491 268 q 565 268 593 297 q 621 325 621 371 l 621 371 q 621 430 584 463 q 546 495 490 509 l 490 509 q 455 519 420 522 q 385 525 355 525 l 355 525 q 259 525 200 491 q 140 457 112 400 q 83 343 83 275 l 83 275 q 83 215 99 169 q 114 122 144 87 q 173 51 215 21 l 215 21 l 193 -8 q 155 18 121 56 q 86 94 65 148 q 44 202 44 275 l 44 275 q 44 336 63 388 q 82 439 121 478 q 160 516 219 538 q 277 560 355 560 z m 1184 -12 l 1184 -12 q 1126 -12 1089 15 q 1051 42 1033 88 q 1014 134 1014 189 l 1014 189 q 1014 284 1064 335 q 1113 385 1190 385 l 1190 385 q 1236 385 1270 366 q 1303 346 1326 315 q 1349 284 1362 247 l 1362 247 l 1347 236 q 1336 263 1315 289 q 1294 315 1264 333 q 1234 350 1194 350 l 1194 350 q 1123 350 1088 307 q 1053 264 1053 191 l 1053 191 q 1053 144 1066 106 q 1079 68 1108 46 q 1137 23 1186 23 l 1186 23 q 1232 23 1265 46 q 1298 69 1316 118 q 1333 167 1333 245 l 1333 245 q 1333 256 1333 263 q 1332 270 1331 276 l 1331 276 q 1331 282 1332 289 q 1332 295 1330 300 l 1330 300 q 1322 357 1294 409 q 1265 460 1211 492 q 1156 524 1070 524 l 1070 524 q 1025 524 990 513 q 955 501 929 478 l 929 478 q 908 460 894 436 q 880 411 873 376 q 865 341 865 291 l 865 291 l 865 249 l 840 370 q 848 426 877 469 q 905 512 954 536 q 1002 560 1069 560 l 1069 560 q 1143 560 1200 536 q 1256 512 1294 470 q 1332 427 1352 369 q 1371 311 1371 243 l 1371 243 q 1371 152 1347 96 q 1323 40 1281 14 q 1239 -12 1184 -12 z"},"ആ":{"ha":1553,"x_min":44,"x_max":1523,"o":"m 355 560 l 355 560 q 395 560 440 554 q 484 548 523 533 l 523 533 q 526 532 529 529 q 532 526 536 524 l 536 524 q 574 512 602 491 q 629 469 645 439 q 660 409 660 371 l 660 371 q 660 340 649 313 q 637 286 609 269 q 580 252 529 247 l 529 247 l 531 255 q 601 251 636 217 q 671 182 671 126 l 671 126 q 671 87 654 56 q 637 25 602 7 q 567 -12 512 -12 l 512 -12 q 443 -12 397 18 q 350 48 327 104 q 303 159 303 233 l 303 233 q 303 296 323 351 q 343 406 382 449 q 420 492 475 520 l 475 520 q 479 522 482 525 q 485 527 488 529 l 488 529 q 519 543 555 552 q 590 560 632 560 l 632 560 q 711 560 757 535 q 803 510 826 468 q 849 425 855 372 l 855 372 l 865 272 l 865 0 l 827 0 l 827 303 q 827 370 816 411 q 804 451 778 477 l 778 477 q 755 500 720 513 q 684 525 627 525 l 627 525 q 599 525 573 521 q 547 516 524 508 l 524 508 q 481 493 447 466 q 412 438 389 401 q 365 363 353 321 q 341 279 341 234 l 341 234 q 341 135 384 79 q 427 22 512 22 l 512 22 q 570 22 601 48 q 632 74 632 126 l 632 126 q 632 171 602 202 q 571 233 499 233 l 499 233 l 472 233 l 472 268 l 491 268 q 565 268 593 297 q 621 325 621 371 l 621 371 q 621 430 584 463 q 546 495 490 509 l 490 509 q 455 519 420 522 q 385 525 355 525 l 355 525 q 259 525 200 491 q 140 457 112 400 q 83 343 83 275 l 83 275 q 83 215 99 169 q 114 122 144 87 q 173 51 215 21 l 215 21 l 193 -8 q 155 18 121 56 q 86 94 65 148 q 44 202 44 275 l 44 275 q 44 336 63 388 q 82 439 121 478 q 160 516 219 538 q 277 560 355 560 z m 1065 560 l 1065 560 q 1142 560 1198 531 q 1254 502 1290 451 q 1325 399 1339 331 l 1339 331 q 1344 306 1347 279 q 1349 251 1349 222 l 1349 222 q 1349 141 1324 90 q 1299 38 1257 13 q 1215 -12 1163 -12 l 1163 -12 q 1102 -12 1066 14 q 1030 40 1014 81 q 998 122 998 164 l 998 164 q 998 259 1063 311 q 1127 362 1239 362 l 1239 362 q 1255 362 1272 361 q 1288 359 1303 356 l 1303 356 l 1320 354 q 1390 338 1435 298 q 1480 257 1502 201 q 1523 144 1523 82 l 1523 82 q 1523 14 1503 -38 q 1483 -91 1447 -127 q 1410 -163 1358 -182 q 1306 -201 1241 -201 l 1241 -201 q 1189 -201 1147 -192 q 1105 -184 1076 -172 l 1076 -172 l 1090 -139 q 1118 -151 1157 -158 q 1196 -165 1242 -165 l 1242 -165 q 1302 -165 1348 -148 q 1393 -131 1423 -98 q 1453 -65 1469 -19 q 1484 26 1484 82 l 1484 82 q 1484 143 1466 190 q 1448 236 1414 268 q 1379 300 1330 316 l 1330 316 l 1313 319 q 1295 323 1277 325 q 1258 327 1239 327 l 1239 327 q 1179 327 1134 311 q 1088 294 1063 258 q 1037 222 1037 162 l 1037 162 q 1037 130 1048 99 q 1058 67 1086 45 q 1114 23 1163 23 l 1163 23 q 1237 23 1274 77 q 1311 131 1311 223 l 1311 223 q 1311 250 1308 278 q 1305 305 1299 333 l 1299 333 l 1296 347 q 1283 395 1256 435 q 1228 475 1182 500 q 1136 524 1065 524 l 1065 524 q 1024 524 989 513 q 954 501 928 478 l 928 478 q 907 460 893 436 q 879 411 872 376 q 865 341 865 291 l 865 291 l 865 198 l 839 370 q 846 426 876 469 q 905 512 953 536 q 1001 560 1065 560 z"},"ഇ":{"ha":932,"x_min":45,"x_max":888,"o":"m 309 560 l 309 560 q 369 560 411 544 q 452 527 478 495 q 504 463 518 414 l 518 414 l 507 410 q 525 492 571 526 q 616 560 679 560 l 679 560 q 733 560 773 539 q 812 518 838 482 q 863 445 876 399 q 888 352 888 301 l 888 301 q 888 214 865 157 q 841 99 796 63 l 796 63 q 769 42 735 28 q 700 13 652 7 q 604 0 533 0 l 533 0 l 243 0 q 194 0 165 -5 q 136 -10 119 -27 l 119 -27 q 109 -36 104 -50 q 98 -64 98 -81 l 98 -81 q 98 -102 105 -116 q 112 -131 125 -142 l 125 -142 q 141 -154 168 -160 q 194 -166 239 -166 l 239 -166 l 870 -166 l 870 -201 l 233 -201 q 186 -201 156 -194 q 125 -187 101 -170 l 101 -170 q 80 -155 70 -133 q 59 -111 59 -82 l 59 -82 q 59 -57 67 -36 q 75 -16 91 -2 l 91 -2 q 105 11 124 19 q 142 27 169 31 q 196 35 236 35 l 236 35 l 529 35 q 600 35 646 42 q 691 49 722 62 q 752 75 775 95 l 775 95 q 814 128 832 179 q 849 230 849 299 l 849 299 q 849 361 831 412 q 813 463 776 494 q 739 524 679 524 l 679 524 q 645 524 621 515 q 597 506 580 488 l 580 488 q 553 461 543 417 q 532 373 532 314 l 532 314 l 532 112 l 494 112 l 494 319 q 494 383 478 425 q 462 466 429 491 l 429 491 q 405 509 378 517 q 350 525 307 525 l 307 525 q 253 525 213 508 q 172 491 145 464 q 118 436 102 403 q 86 370 81 336 l 81 336 q 81 334 82 332 q 83 329 82 326 l 82 326 q 82 322 82 316 q 81 310 81 304 l 81 304 q 81 229 107 184 q 133 139 195 139 l 195 139 q 248 139 274 172 q 300 204 300 252 l 300 252 q 300 279 290 303 q 280 327 258 342 q 235 357 196 357 l 196 357 q 156 357 123 338 q 89 318 62 286 l 62 286 l 52 317 q 68 336 90 353 q 111 370 139 381 q 167 391 200 391 l 200 391 q 248 391 279 372 q 310 352 324 320 q 338 288 338 252 l 338 252 q 338 214 323 180 q 307 146 275 126 q 243 105 194 105 l 194 105 q 145 105 112 129 q 78 153 62 198 q 45 242 45 305 l 45 305 q 45 371 75 429 q 105 487 164 524 q 223 560 309 560 z"},"ഈ":{"ha":1645,"x_min":46,"x_max":1600,"o":"m 310 560 l 310 560 q 370 560 412 544 q 453 527 479 495 q 505 463 519 414 l 519 414 l 508 410 q 526 492 572 526 q 617 560 680 560 l 680 560 q 734 560 774 539 q 813 518 839 482 q 864 445 877 399 q 889 352 889 301 l 889 301 q 889 214 866 157 q 842 99 797 63 l 797 63 q 770 42 736 28 q 701 13 653 7 q 605 0 534 0 l 534 0 l 244 0 q 195 0 166 -5 q 137 -10 120 -27 l 120 -27 q 110 -36 105 -50 q 99 -64 99 -81 l 99 -81 q 99 -102 106 -116 q 113 -131 126 -142 l 126 -142 q 142 -154 169 -160 q 195 -166 240 -166 l 240 -166 l 871 -166 l 871 -201 l 234 -201 q 187 -201 157 -194 q 126 -187 102 -170 l 102 -170 q 81 -155 71 -133 q 60 -111 60 -82 l 60 -82 q 60 -57 68 -36 q 76 -16 92 -2 l 92 -2 q 106 11 125 19 q 143 27 170 31 q 197 35 237 35 l 237 35 l 530 35 q 601 35 647 42 q 692 49 723 62 q 753 75 776 95 l 776 95 q 815 128 833 179 q 850 230 850 299 l 850 299 q 850 361 832 412 q 814 463 777 494 q 740 524 680 524 l 680 524 q 646 524 622 515 q 598 506 581 488 l 581 488 q 554 461 544 417 q 533 373 533 314 l 533 314 l 533 112 l 495 112 l 495 319 q 495 383 479 425 q 463 466 430 491 l 430 491 q 406 509 379 517 q 351 525 308 525 l 308 525 q 254 525 214 508 q 173 491 146 464 q 119 436 103 403 q 87 370 82 336 l 82 336 q 82 334 83 332 q 84 329 83 326 l 83 326 q 83 322 83 316 q 82 310 82 304 l 82 304 q 82 229 108 184 q 134 139 196 139 l 196 139 q 249 139 275 172 q 301 204 301 252 l 301 252 q 301 279 291 303 q 281 327 259 342 q 236 357 197 357 l 197 357 q 157 357 124 338 q 90 318 63 286 l 63 286 l 53 317 q 69 336 91 353 q 112 370 140 381 q 168 391 201 391 l 201 391 q 249 391 280 372 q 311 352 325 320 q 339 288 339 252 l 339 252 q 339 214 324 180 q 308 146 276 126 q 244 105 195 105 l 195 105 q 146 105 113 129 q 79 153 63 198 q 46 242 46 305 l 46 305 q 46 371 76 429 q 106 487 165 524 q 224 560 310 560 z m 1420 560 l 1420 560 q 1479 560 1519 528 q 1558 495 1579 438 q 1600 380 1600 301 l 1600 301 q 1600 198 1573 128 q 1545 58 1490 23 q 1435 -12 1351 -12 l 1351 -12 q 1290 -12 1246 0 q 1202 12 1158 34 l 1158 34 l 1178 66 q 1220 44 1260 34 q 1299 23 1350 23 l 1350 23 q 1430 23 1476 58 q 1522 92 1542 154 q 1561 216 1561 301 l 1561 301 q 1561 414 1523 469 q 1485 524 1420 524 l 1420 524 q 1389 524 1368 514 q 1347 504 1333 487 l 1333 487 q 1313 462 1306 424 q 1299 386 1299 339 l 1299 339 l 1299 255 l 1261 255 l 1261 337 q 1261 394 1252 431 q 1242 468 1222 490 l 1222 490 q 1207 507 1186 516 q 1165 524 1138 524 l 1138 524 q 1076 524 1044 482 q 1012 439 1012 375 l 1012 375 q 1012 344 1017 317 q 1021 289 1030 258 l 1030 258 l 994 251 q 984 280 979 314 q 973 347 973 377 l 973 377 q 973 428 992 470 q 1011 511 1048 536 q 1084 560 1138 560 l 1138 560 q 1193 560 1231 530 q 1268 499 1284 428 l 1284 428 l 1274 425 q 1286 497 1326 529 q 1366 560 1420 560 z"},"ഉ":{"ha":651,"x_min":45,"x_max":608,"o":"m 326 560 l 326 560 q 394 560 446 539 q 498 518 534 481 q 570 444 589 395 q 608 346 608 288 l 608 288 q 608 204 583 147 q 558 89 500 54 l 500 54 q 468 35 433 23 q 397 10 353 5 q 308 0 250 0 l 250 0 l 243 0 q 194 0 165 -5 q 136 -10 119 -27 l 119 -27 q 109 -36 104 -50 q 98 -64 98 -81 l 98 -81 q 98 -102 105 -116 q 112 -131 125 -142 l 125 -142 q 141 -154 168 -160 q 194 -166 239 -166 l 239 -166 l 588 -166 l 588 -201 l 233 -201 q 186 -201 156 -194 q 125 -187 101 -170 l 101 -170 q 80 -155 70 -133 q 59 -111 59 -82 l 59 -82 q 59 -57 67 -36 q 75 -16 91 -2 l 91 -2 q 112 17 144 26 q 176 35 236 35 l 236 35 l 246 35 q 308 35 351 41 q 394 46 425 58 q 456 69 481 86 l 481 86 q 530 116 549 167 q 568 218 568 284 l 568 284 q 568 336 553 380 q 537 424 507 457 q 476 489 431 507 q 385 525 325 525 l 325 525 q 264 525 220 508 q 175 490 147 462 q 118 434 103 401 q 87 368 82 336 l 82 336 q 82 334 83 332 q 83 329 82 326 l 82 326 q 82 322 82 316 q 81 310 81 304 l 81 304 q 81 229 107 184 q 133 139 195 139 l 195 139 q 248 139 274 172 q 300 204 300 252 l 300 252 q 300 279 290 303 q 280 327 258 342 q 235 357 196 357 l 196 357 q 156 357 123 338 q 89 318 62 286 l 62 286 l 52 317 q 68 336 90 353 q 111 370 139 381 q 167 391 200 391 l 200 391 q 248 391 279 372 q 310 352 324 320 q 338 288 338 252 l 338 252 q 338 214 323 180 q 307 146 275 126 q 243 105 194 105 l 194 105 q 145 105 112 129 q 78 153 62 198 q 45 242 45 305 l 45 305 q 45 354 62 399 q 79 444 114 480 q 149 516 202 538 q 255 560 326 560 z"},"ഊ":{"ha":1363,"x_min":46,"x_max":1317,"o":"m 327 560 l 327 560 q 395 560 447 539 q 499 518 535 481 q 571 444 590 395 q 609 346 609 288 l 609 288 q 609 204 584 147 q 559 89 501 54 l 501 54 q 469 35 434 23 q 398 10 354 5 q 309 0 251 0 l 251 0 l 244 0 q 195 0 166 -5 q 137 -10 120 -27 l 120 -27 q 110 -36 105 -50 q 99 -64 99 -81 l 99 -81 q 99 -102 106 -116 q 113 -131 126 -142 l 126 -142 q 142 -154 169 -160 q 195 -166 240 -166 l 240 -166 l 589 -166 l 589 -201 l 234 -201 q 187 -201 157 -194 q 126 -187 102 -170 l 102 -170 q 81 -155 71 -133 q 60 -111 60 -82 l 60 -82 q 60 -57 68 -36 q 76 -16 92 -2 l 92 -2 q 113 17 145 26 q 177 35 237 35 l 237 35 l 247 35 q 309 35 352 41 q 395 46 426 58 q 457 69 482 86 l 482 86 q 531 116 550 167 q 569 218 569 284 l 569 284 q 569 336 554 380 q 538 424 508 457 q 477 489 432 507 q 386 525 326 525 l 326 525 q 265 525 221 508 q 176 490 148 462 q 119 434 104 401 q 88 368 83 336 l 83 336 q 83 334 84 332 q 84 329 83 326 l 83 326 q 83 322 83 316 q 82 310 82 304 l 82 304 q 82 229 108 184 q 134 139 196 139 l 196 139 q 249 139 275 172 q 301 204 301 252 l 301 252 q 301 279 291 303 q 281 327 259 342 q 236 357 197 357 l 197 357 q 157 357 124 338 q 90 318 63 286 l 63 286 l 53 317 q 69 336 91 353 q 112 370 140 381 q 168 391 201 391 l 201 391 q 249 391 280 372 q 311 352 325 320 q 339 288 339 252 l 339 252 q 339 214 324 180 q 308 146 276 126 q 244 105 195 105 l 195 105 q 146 105 113 129 q 79 153 63 198 q 46 242 46 305 l 46 305 q 46 354 63 399 q 80 444 115 480 q 150 516 203 538 q 256 560 327 560 z m 1137 560 l 1137 560 q 1196 560 1236 528 q 1275 495 1296 438 q 1317 380 1317 301 l 1317 301 q 1317 198 1290 128 q 1262 58 1207 23 q 1152 -12 1068 -12 l 1068 -12 q 1007 -12 963 0 q 919 12 875 34 l 875 34 l 895 66 q 937 44 977 34 q 1016 23 1067 23 l 1067 23 q 1147 23 1193 58 q 1239 92 1259 154 q 1278 216 1278 301 l 1278 301 q 1278 414 1240 469 q 1202 524 1137 524 l 1137 524 q 1106 524 1085 514 q 1064 504 1050 487 l 1050 487 q 1030 462 1023 424 q 1016 386 1016 339 l 1016 339 l 1016 255 l 978 255 l 978 337 q 978 394 969 431 q 959 468 939 490 l 939 490 q 924 507 903 516 q 882 524 855 524 l 855 524 q 793 524 761 482 q 729 439 729 375 l 729 375 q 729 344 734 317 q 738 289 747 258 l 747 258 l 711 251 q 701 280 696 314 q 690 347 690 377 l 690 377 q 690 428 709 470 q 728 511 765 536 q 801 560 855 560 l 855 560 q 910 560 948 530 q 985 499 1001 428 l 1001 428 l 991 425 q 1003 497 1043 529 q 1083 560 1137 560 z"},"ഋ":{"ha":814,"x_min":40,"x_max":774,"o":"m 609 560 l 609 560 q 687 560 731 506 q 774 452 774 364 l 774 364 q 774 293 752 245 q 729 196 690 166 l 690 166 q 643 129 580 117 q 517 104 435 104 l 435 104 l 379 104 q 325 104 280 109 q 235 114 198 127 q 160 140 129 162 l 129 162 q 88 193 64 243 q 40 292 40 364 l 40 364 q 40 422 61 466 q 81 510 119 535 q 156 560 208 560 l 208 560 q 255 560 287 540 q 319 520 336 487 q 352 453 352 412 l 352 412 q 352 372 336 340 q 319 308 287 290 q 254 271 205 271 l 205 271 q 169 271 141 282 q 112 292 90 309 q 68 325 52 342 l 52 342 l 63 375 q 76 359 95 343 q 113 327 140 317 q 166 306 202 306 l 202 306 q 259 306 287 335 q 314 364 314 412 l 314 412 q 314 460 288 493 q 262 525 207 525 l 207 525 q 162 525 133 503 q 104 481 91 445 q 77 409 77 364 l 77 364 q 77 357 78 351 q 78 344 79 337 l 79 337 l 77 328 q 84 275 109 237 q 133 199 173 176 q 213 152 270 141 q 327 130 400 130 l 400 130 l 411 130 q 486 130 544 141 q 601 152 642 176 q 683 200 707 238 q 730 276 738 328 l 738 328 l 736 337 q 736 344 737 351 q 738 358 738 363 l 738 363 q 738 408 724 445 q 710 482 682 504 q 654 525 608 525 l 608 525 q 553 525 527 493 q 500 460 500 412 l 500 412 q 500 364 528 335 q 556 306 613 306 l 613 306 q 648 306 675 317 q 701 327 720 343 q 739 358 751 373 l 751 373 l 762 342 q 746 324 725 308 q 703 292 675 282 q 646 271 609 271 l 609 271 q 561 271 528 290 q 495 308 479 341 q 462 373 462 412 l 462 412 q 462 453 479 487 q 496 520 529 540 q 561 560 609 560 z m 406 -205 l 406 -205 q 287 -205 213 -187 q 139 -169 106 -132 q 72 -95 72 -39 l 72 -39 q 72 8 94 39 q 116 69 156 86 q 196 103 250 111 q 303 118 365 118 l 365 118 l 448 118 q 511 118 565 111 q 619 103 659 86 q 698 69 721 38 q 743 7 743 -39 l 743 -39 q 743 -93 710 -130 q 676 -168 603 -186 q 529 -205 406 -205 z m 407 -170 l 407 -170 q 520 -170 585 -155 q 649 -140 677 -110 q 704 -81 704 -38 l 704 -38 q 704 -2 686 23 q 668 48 632 64 q 595 80 540 88 q 484 95 409 95 l 409 95 l 402 95 q 303 95 238 82 q 173 68 142 39 q 111 9 111 -37 l 111 -37 q 111 -81 138 -110 q 165 -140 230 -155 q 295 -170 407 -170 z"},"ഌ":{"ha":1105,"x_min":47,"x_max":1061,"o":"m 336 560 l 336 560 q 423 560 474 519 q 525 478 543 403 l 543 403 l 547 373 l 555 269 l 555 0 l 517 0 l 517 311 q 517 384 500 425 q 482 465 452 489 l 452 489 q 428 508 402 516 q 375 524 335 524 l 335 524 q 257 524 201 486 q 144 448 114 383 q 84 317 84 233 l 84 233 l 84 226 q 84 157 101 112 q 118 67 150 45 q 181 23 223 23 l 223 23 q 253 23 277 36 q 301 48 316 76 q 330 104 330 151 l 330 151 q 330 203 302 238 q 273 272 215 272 l 215 272 q 169 272 130 250 q 90 227 66 200 l 66 200 l 58 233 q 92 270 135 289 q 177 307 219 307 l 219 307 q 260 307 294 290 q 328 272 349 238 q 369 203 369 152 l 369 152 q 369 97 350 61 q 330 24 297 6 q 264 -12 222 -12 l 222 -12 q 174 -12 135 12 q 95 36 71 89 q 47 142 47 228 l 47 228 q 47 329 83 403 q 119 477 184 519 q 249 560 336 560 z m 874 -12 l 874 -12 q 816 -12 779 15 q 741 42 723 88 q 704 134 704 189 l 704 189 q 704 284 754 335 q 803 385 881 385 l 881 385 q 926 385 960 366 q 993 346 1017 315 q 1040 284 1052 247 l 1052 247 l 1037 236 q 1026 263 1005 289 q 984 315 954 333 q 924 350 885 350 l 885 350 q 814 350 779 307 q 743 264 743 191 l 743 191 q 743 144 756 106 q 769 68 799 46 q 828 23 876 23 l 876 23 q 923 23 956 46 q 989 69 1006 118 q 1023 167 1023 245 l 1023 245 q 1023 256 1023 263 q 1022 270 1022 276 l 1022 276 q 1021 282 1022 289 q 1022 295 1021 300 l 1021 300 q 1013 357 984 409 q 955 460 901 492 q 846 524 760 524 l 760 524 q 715 524 681 513 q 646 501 620 478 l 620 478 q 599 460 585 436 q 570 411 563 376 q 555 341 555 291 l 555 291 l 555 249 l 530 370 q 537 426 567 469 q 596 512 645 536 q 693 560 759 560 l 759 560 q 833 560 890 536 q 947 512 985 470 q 1022 427 1042 369 q 1061 311 1061 243 l 1061 243 q 1061 152 1037 96 q 1013 40 971 14 q 929 -12 874 -12 z"},"എ":{"ha":1181,"x_min":37,"x_max":1133,"o":"m 207 331 l 207 331 q 260 331 298 309 q 336 286 357 248 q 378 210 378 161 l 378 161 q 378 115 361 80 q 344 45 315 20 l 315 20 l 315 35 l 816 35 l 816 0 l 299 0 l 283 27 q 313 57 326 88 q 339 119 339 157 l 339 157 q 339 221 303 259 q 267 296 207 296 l 207 296 q 165 296 136 277 q 106 258 91 228 q 75 197 75 160 l 75 160 q 75 113 93 81 q 111 48 146 21 l 146 21 l 124 -8 q 84 26 61 64 q 37 102 37 160 l 37 160 q 37 208 58 247 q 79 285 118 308 q 156 331 207 331 z m 842 560 l 842 560 q 918 560 973 531 q 1027 502 1063 451 q 1098 399 1116 329 q 1133 259 1133 178 l 1133 178 q 1133 101 1116 28 q 1098 -45 1064 -110 q 1029 -175 977 -228 l 977 -228 l 949 -203 q 998 -153 1030 -92 q 1061 -32 1077 37 q 1093 105 1093 176 l 1093 176 q 1093 248 1080 311 q 1066 373 1036 422 q 1006 470 958 497 q 909 524 840 524 l 840 524 q 758 524 701 478 q 643 431 613 344 q 582 257 582 135 l 582 135 q 582 105 584 78 q 585 50 587 26 l 587 26 q 587 22 588 19 q 588 15 588 12 l 588 12 q 596 -60 616 -105 q 635 -151 664 -172 q 693 -193 730 -193 l 730 -193 q 759 -193 776 -180 l 776 -180 q 794 -167 801 -140 q 808 -114 808 -75 l 808 -75 l 808 413 l 847 413 l 847 -72 q 847 -123 837 -155 q 826 -188 800 -206 l 800 -206 q 787 -216 770 -222 q 752 -228 731 -228 l 731 -228 q 676 -228 634 -193 q 591 -158 567 -77 q 542 3 542 138 l 542 138 q 542 237 563 315 q 583 393 623 448 q 662 502 718 531 q 773 560 842 560 z"},"ഏ":{"ha":1178,"x_min":37,"x_max":1145,"o":"m 207 331 l 207 331 q 260 331 298 309 q 336 286 357 248 q 378 210 378 161 l 378 161 q 378 115 361 80 q 344 45 315 20 l 315 20 l 315 35 l 816 35 l 816 0 l 299 0 l 283 27 q 313 57 326 88 q 339 119 339 157 l 339 157 q 339 221 303 259 q 267 296 207 296 l 207 296 q 165 296 136 277 q 106 258 91 228 q 75 197 75 160 l 75 160 q 75 113 93 81 q 111 49 146 21 l 146 21 l 124 -8 q 84 26 61 64 q 37 102 37 160 l 37 160 q 37 208 58 247 q 79 285 118 308 q 156 331 207 331 z m 887 560 l 887 560 q 950 560 997 543 q 1044 525 1075 494 q 1106 462 1121 422 q 1135 382 1135 335 l 1135 335 q 1135 283 1117 243 q 1099 202 1062 175 q 1024 147 965 134 l 965 134 l 966 141 q 1047 135 1096 88 q 1145 40 1145 -45 l 1145 -45 q 1145 -105 1124 -146 q 1102 -187 1064 -207 q 1025 -228 972 -228 l 972 -228 q 951 -228 931 -226 q 911 -224 895 -220 l 895 -220 l 903 -186 q 916 -190 935 -191 q 953 -193 970 -193 l 970 -193 q 1011 -193 1042 -177 q 1072 -161 1089 -128 q 1106 -96 1106 -45 l 1106 -45 q 1106 26 1062 71 q 1018 116 934 118 l 934 118 l 934 153 q 986 165 1022 188 q 1058 210 1077 247 q 1096 283 1096 335 l 1096 335 q 1096 385 1075 428 q 1054 471 1009 498 q 963 524 887 524 l 887 524 q 783 524 715 475 q 647 425 615 337 q 582 249 582 135 l 582 135 q 582 105 584 78 q 585 50 587 26 l 587 26 q 587 22 588 19 q 588 15 588 12 l 588 12 q 596 -60 616 -105 q 635 -151 664 -172 q 693 -193 730 -193 l 730 -193 q 759 -193 776 -180 l 776 -180 q 795 -167 802 -140 q 808 -114 808 -75 l 808 -75 l 808 413 l 847 413 l 847 -72 q 847 -123 837 -155 q 826 -188 800 -206 l 800 -206 q 787 -216 770 -222 q 752 -228 731 -228 l 731 -228 q 676 -228 634 -193 q 591 -158 567 -77 q 542 3 542 138 l 542 138 q 542 229 564 306 q 585 382 629 440 q 672 497 737 529 q 801 560 887 560 z"},"ഐ":{"ha":1851,"x_min":43,"x_max":1803,"o":"m 220 -12 l 220 -12 q 172 -12 132 12 q 92 36 68 89 q 44 141 44 226 l 44 226 q 44 305 69 367 q 93 428 136 471 q 179 514 234 537 q 289 560 349 560 l 349 560 q 417 560 469 539 q 521 517 556 480 q 591 442 609 390 q 626 338 626 277 l 626 277 q 626 204 606 151 q 585 98 551 60 q 516 21 475 -8 l 475 -8 l 453 21 q 489 47 520 82 q 550 116 568 164 q 586 211 586 276 l 586 276 q 586 345 561 402 q 535 458 483 491 q 430 524 348 524 l 348 524 q 276 524 215 487 q 154 450 118 383 q 81 316 81 226 l 81 226 q 81 157 98 112 q 115 66 147 45 q 178 23 220 23 l 220 23 q 250 23 274 36 q 298 48 313 76 q 327 104 327 151 l 327 151 q 327 203 299 238 q 270 272 212 272 l 212 272 q 167 272 127 250 q 87 227 63 200 l 63 200 l 55 233 q 89 270 132 289 q 174 307 216 307 l 216 307 q 257 307 291 290 q 325 272 346 238 q 366 203 366 152 l 366 152 q 366 97 347 61 q 327 24 294 6 q 261 -12 220 -12 z m 877 331 l 877 331 q 930 331 968 309 q 1006 286 1027 248 q 1048 210 1048 161 l 1048 161 q 1048 115 1031 80 q 1014 45 985 20 l 985 20 l 985 35 l 1486 35 l 1486 0 l 969 0 l 953 27 q 983 57 996 88 q 1009 119 1009 157 l 1009 157 q 1009 221 973 259 q 937 296 877 296 l 877 296 q 835 296 806 277 q 776 258 761 228 q 745 197 745 160 l 745 160 q 745 113 763 81 q 781 48 816 21 l 816 21 l 794 -8 q 754 26 731 64 q 707 102 707 160 l 707 160 q 707 208 728 247 q 749 285 788 308 q 826 331 877 331 z m 1512 560 l 1512 560 q 1588 560 1643 531 q 1697 502 1733 451 q 1768 399 1786 329 q 1803 259 1803 178 l 1803 178 q 1803 101 1786 28 q 1768 -45 1734 -110 q 1699 -175 1647 -228 l 1647 -228 l 1619 -203 q 1668 -153 1700 -92 q 1731 -32 1747 37 q 1763 105 1763 176 l 1763 176 q 1763 248 1750 311 q 1736 373 1706 422 q 1676 470 1628 497 q 1579 524 1510 524 l 1510 524 q 1428 524 1371 478 q 1313 431 1283 344 q 1252 257 1252 135 l 1252 135 q 1252 105 1254 78 q 1255 50 1257 26 l 1257 26 q 1257 22 1258 19 q 1258 15 1258 12 l 1258 12 q 1266 -60 1286 -105 q 1305 -151 1334 -172 q 1363 -193 1400 -193 l 1400 -193 q 1429 -193 1446 -180 l 1446 -180 q 1464 -167 1471 -140 q 1478 -114 1478 -75 l 1478 -75 l 1478 413 l 1517 413 l 1517 -72 q 1517 -123 1507 -155 q 1496 -188 1470 -206 l 1470 -206 q 1457 -216 1440 -222 q 1422 -228 1401 -228 l 1401 -228 q 1346 -228 1304 -193 q 1261 -158 1237 -77 q 1212 3 1212 138 l 1212 138 q 1212 237 1233 315 q 1253 393 1293 448 q 1332 502 1388 531 q 1443 560 1512 560 z"},"ഒ":{"ha":704,"x_min":45,"x_max":663,"o":"m 421 560 l 421 560 q 507 560 558 537 q 608 514 630 478 q 652 441 652 398 l 652 398 q 652 366 639 338 q 625 309 593 290 q 561 270 505 266 l 505 266 l 504 275 q 583 269 623 231 q 663 192 663 133 l 663 133 q 663 65 624 27 q 584 -12 509 -12 l 509 -12 q 481 -12 456 -8 q 431 -4 414 0 l 414 0 l 422 35 q 443 29 463 26 q 483 23 504 23 l 504 23 q 567 23 596 51 q 624 78 624 133 l 624 133 q 624 165 612 187 q 599 209 577 224 l 577 224 q 555 239 526 247 q 497 254 459 254 l 459 254 l 442 254 l 442 288 l 462 288 q 510 288 540 298 q 570 308 587 327 l 587 327 q 600 340 607 358 q 613 376 613 397 l 613 397 q 613 453 568 489 q 522 524 422 524 l 422 524 q 337 524 274 501 q 210 477 167 436 q 124 395 103 343 q 82 290 82 231 l 82 231 l 82 224 q 82 156 99 112 q 116 67 147 45 q 178 23 221 23 l 221 23 q 251 23 275 36 q 299 48 314 76 q 328 104 328 151 l 328 151 q 328 203 299 238 q 270 272 213 272 l 213 272 q 168 272 129 251 q 90 229 67 203 l 67 203 l 64 240 q 97 274 137 291 q 177 307 216 307 l 216 307 q 258 307 292 290 q 326 272 347 238 q 367 203 367 152 l 367 152 q 367 97 348 61 q 328 24 295 6 q 262 -12 220 -12 l 220 -12 q 172 -12 132 12 q 92 36 69 89 q 45 141 45 227 l 45 227 q 45 295 69 356 q 93 416 141 462 q 188 508 259 534 q 329 560 421 560 z"},"ഓ":{"ha":1165,"x_min":45,"x_max":1119,"o":"m 421 560 l 421 560 q 507 560 558 537 q 608 514 630 478 q 652 441 652 398 l 652 398 q 652 366 639 338 q 625 309 593 290 q 561 270 505 266 l 505 266 l 504 275 q 583 269 623 231 q 663 192 663 133 l 663 133 q 663 65 624 27 q 584 -12 509 -12 l 509 -12 q 481 -12 456 -8 q 431 -4 414 0 l 414 0 l 422 35 q 443 29 463 26 q 483 23 504 23 l 504 23 q 567 23 596 51 q 624 78 624 133 l 624 133 q 624 165 612 187 q 599 209 577 224 l 577 224 q 555 239 526 247 q 497 254 459 254 l 459 254 l 442 254 l 442 288 l 462 288 q 510 288 540 298 q 570 308 587 327 l 587 327 q 600 340 607 358 q 613 376 613 397 l 613 397 q 613 453 568 489 q 522 524 422 524 l 422 524 q 337 524 274 501 q 210 477 167 436 q 124 395 103 343 q 82 290 82 231 l 82 231 l 82 224 q 82 156 99 112 q 116 67 147 45 q 178 23 221 23 l 221 23 q 251 23 275 36 q 299 48 314 76 q 328 104 328 151 l 328 151 q 328 203 299 238 q 270 272 213 272 l 213 272 q 168 272 129 251 q 90 229 67 203 l 67 203 l 64 240 q 97 274 137 291 q 177 307 216 307 l 216 307 q 258 307 292 290 q 326 272 347 238 q 367 203 367 152 l 367 152 q 367 97 348 61 q 328 24 295 6 q 262 -12 220 -12 l 220 -12 q 172 -12 132 12 q 92 36 69 89 q 45 141 45 227 l 45 227 q 45 295 69 356 q 93 416 141 462 q 188 508 259 534 q 329 560 421 560 z m 1119 276 l 1119 276 q 1119 214 1108 161 q 1096 108 1072 70 q 1047 31 1008 10 q 969 -12 915 -12 l 915 -12 q 872 -12 841 2 q 809 15 787 39 q 764 63 750 95 q 735 126 727 162 l 727 162 l 765 170 q 775 129 793 96 q 810 62 840 43 q 869 23 914 23 l 914 23 q 974 23 1011 55 q 1047 87 1064 144 q 1080 201 1080 276 l 1080 276 q 1080 349 1063 405 q 1046 461 1011 493 q 975 525 920 525 l 920 525 q 876 525 847 505 q 817 484 799 452 q 780 419 768 380 l 768 380 l 730 388 q 740 422 756 453 q 772 484 795 508 q 818 532 850 546 q 881 560 921 560 l 921 560 q 974 560 1012 537 q 1050 513 1074 474 q 1097 434 1108 383 q 1119 332 1119 276 z"},"ഔ":{"ha":1414,"x_min":45,"x_max":1368,"o":"m 421 560 l 421 560 q 507 560 558 537 q 608 514 630 478 q 652 441 652 398 l 652 398 q 652 366 639 338 q 625 309 593 290 q 561 270 505 266 l 505 266 l 504 275 q 583 269 623 231 q 663 192 663 133 l 663 133 q 663 65 624 27 q 584 -12 509 -12 l 509 -12 q 481 -12 456 -8 q 431 -4 414 0 l 414 0 l 422 35 q 443 29 463 26 q 483 23 504 23 l 504 23 q 567 23 596 51 q 624 78 624 133 l 624 133 q 624 165 612 187 q 599 209 577 224 l 577 224 q 555 239 526 247 q 497 254 459 254 l 459 254 l 442 254 l 442 288 l 462 288 q 510 288 540 298 q 570 308 587 327 l 587 327 q 600 340 607 358 q 613 376 613 397 l 613 397 q 613 453 568 489 q 522 524 422 524 l 422 524 q 337 524 274 501 q 210 477 167 436 q 124 395 103 343 q 82 290 82 231 l 82 231 l 82 224 q 82 156 99 112 q 116 67 147 45 q 178 23 221 23 l 221 23 q 251 23 275 36 q 299 48 314 76 q 328 104 328 151 l 328 151 q 328 203 299 238 q 270 272 213 272 l 213 272 q 168 272 129 251 q 90 229 67 203 l 67 203 l 64 240 q 97 274 137 291 q 177 307 216 307 l 216 307 q 258 307 292 290 q 326 272 347 238 q 367 203 367 152 l 367 152 q 367 97 348 61 q 328 24 295 6 q 262 -12 220 -12 l 220 -12 q 172 -12 132 12 q 92 36 69 89 q 45 141 45 227 l 45 227 q 45 295 69 356 q 93 416 141 462 q 188 508 259 534 q 329 560 421 560 z m 1188 560 l 1188 560 q 1247 560 1287 528 q 1326 495 1347 438 q 1368 380 1368 301 l 1368 301 q 1368 198 1341 128 q 1313 58 1258 23 q 1203 -12 1119 -12 l 1119 -12 q 1058 -12 1014 0 q 970 12 926 34 l 926 34 l 946 66 q 988 44 1028 34 q 1067 23 1118 23 l 1118 23 q 1198 23 1244 58 q 1290 92 1310 154 q 1329 216 1329 301 l 1329 301 q 1329 414 1291 469 q 1253 524 1188 524 l 1188 524 q 1157 524 1136 514 q 1115 504 1101 487 l 1101 487 q 1081 462 1074 424 q 1067 386 1067 339 l 1067 339 l 1067 255 l 1029 255 l 1029 337 q 1029 394 1020 431 q 1010 468 990 490 l 990 490 q 975 507 954 516 q 933 524 906 524 l 906 524 q 844 524 812 482 q 780 439 780 375 l 780 375 q 780 344 785 317 q 789 289 798 258 l 798 258 l 762 251 q 752 280 747 314 q 741 347 741 377 l 741 377 q 741 428 760 470 q 779 511 816 536 q 852 560 906 560 l 906 560 q 961 560 999 530 q 1036 499 1052 428 l 1052 428 l 1042 425 q 1054 497 1094 529 q 1134 560 1188 560 z"},"ക":{"ha":987,"x_min":37,"x_max":950,"o":"m 197 -12 l 197 -12 q 120 -12 79 29 q 37 70 37 143 l 37 143 q 37 185 54 214 q 70 243 97 262 l 97 262 q 123 280 155 290 q 186 300 228 304 q 269 307 322 307 l 322 307 l 674 307 q 756 307 806 297 q 856 287 893 260 l 893 260 q 919 241 935 213 q 950 184 950 142 l 950 142 q 950 72 911 30 q 871 -12 791 -12 l 791 -12 q 770 -12 746 -9 q 721 -6 697 1 l 697 1 l 706 34 q 727 29 748 26 q 768 23 790 23 l 790 23 q 856 23 884 55 q 911 87 911 141 l 911 141 q 911 175 899 198 q 887 220 866 235 l 866 235 q 832 259 785 266 q 738 272 675 272 l 675 272 l 317 272 q 249 272 202 266 q 154 259 120 235 l 120 235 q 100 220 88 198 q 76 175 76 143 l 76 143 q 76 97 93 71 q 110 45 139 34 q 167 23 200 23 l 200 23 q 243 23 277 37 q 310 50 354 80 l 354 80 l 377 53 q 351 34 324 19 q 297 4 267 -4 q 236 -12 197 -12 z m 498 560 l 498 560 q 569 560 615 525 q 660 489 682 426 q 703 363 703 276 l 703 276 q 703 176 677 113 q 651 49 605 19 q 559 -12 496 -12 l 496 -12 q 447 -12 411 6 q 374 24 350 56 l 350 56 q 318 96 304 154 q 290 212 290 276 l 290 276 q 290 410 345 485 q 400 560 498 560 z m 498 525 l 498 525 q 414 525 371 460 q 328 394 328 275 l 328 275 q 328 190 348 135 q 368 79 406 51 q 443 23 494 23 l 494 23 q 548 23 586 49 q 624 75 644 131 q 664 187 664 276 l 664 276 q 664 362 645 417 q 626 472 589 499 q 552 525 498 525 z"},"ഖ":{"ha":954,"x_min":45,"x_max":876,"o":"m 357 560 l 357 560 q 425 560 477 539 q 528 517 563 480 q 598 442 616 390 q 633 338 633 278 l 633 278 q 633 209 615 161 q 597 112 571 79 q 544 46 517 25 l 517 25 l 528 0 l 486 0 l 470 28 q 501 51 529 84 q 557 117 575 164 q 593 211 593 276 l 593 276 q 593 345 568 402 q 542 458 490 491 q 437 524 356 524 l 356 524 q 276 524 214 486 q 152 447 117 381 q 82 315 82 231 l 82 231 l 82 219 q 82 153 99 110 q 116 66 147 45 q 178 23 221 23 l 221 23 q 251 23 275 36 q 299 48 314 76 q 328 104 328 151 l 328 151 q 328 203 299 238 q 270 272 213 272 l 213 272 q 168 272 129 251 q 90 229 67 203 l 67 203 l 64 240 q 97 274 137 291 q 177 307 216 307 l 216 307 q 258 307 292 290 q 326 272 347 238 q 367 203 367 152 l 367 152 q 367 97 348 61 q 328 24 295 6 q 262 -12 220 -12 l 220 -12 q 172 -12 132 12 q 92 36 69 88 q 45 139 45 223 l 45 223 q 45 326 86 402 q 126 477 197 519 q 268 560 357 560 z m 838 548 l 876 548 l 876 0 l 505 0 l 502 35 l 838 35 l 838 548 z"},"ഗ":{"ha":832,"x_min":44,"x_max":789,"o":"m 581 560 l 581 560 q 645 560 692 527 q 739 494 764 434 q 789 373 789 289 l 789 289 q 789 217 770 163 q 751 109 718 68 q 685 27 642 -8 l 642 -8 l 619 21 q 657 52 687 88 q 716 124 733 173 q 749 222 749 289 l 749 289 q 749 365 729 418 q 708 470 670 497 q 632 524 582 524 l 582 524 q 540 524 515 512 q 490 500 473 478 l 473 478 q 449 447 442 396 q 435 345 435 269 l 435 269 l 435 253 q 435 198 431 159 q 426 120 415 92 q 404 64 384 41 l 384 41 q 363 15 331 2 q 298 -12 252 -12 l 252 -12 q 187 -12 141 21 q 94 53 69 114 q 44 175 44 259 l 44 259 q 44 333 63 387 q 81 440 115 481 q 148 521 191 556 l 191 556 l 214 527 q 176 497 147 461 q 117 424 100 376 q 83 327 83 259 l 83 259 q 83 182 105 130 q 126 78 164 51 q 201 23 250 23 l 250 23 q 293 23 318 36 q 343 48 359 69 l 359 69 q 384 101 391 150 q 397 199 397 278 l 397 278 l 397 295 q 397 375 408 424 q 419 472 448 506 l 448 506 q 469 532 502 546 q 535 560 581 560 z"},"ഘ":{"ha":1243,"x_min":37,"x_max":1166,"o":"m 207 560 l 207 560 q 260 560 298 538 q 336 515 357 478 q 378 440 378 392 l 378 392 q 378 348 363 314 q 348 279 318 253 l 318 253 l 318 268 l 516 268 l 522 233 l 302 233 l 286 260 q 314 288 327 319 q 339 350 339 389 l 339 389 q 339 451 303 488 q 267 525 207 525 l 207 525 q 165 525 136 507 q 106 488 91 457 q 75 426 75 391 l 75 391 q 75 345 92 313 q 108 281 143 254 l 143 254 l 121 225 q 80 259 59 296 q 37 333 37 391 l 37 391 q 37 438 58 476 q 79 514 118 537 q 156 560 207 560 z m 1127 548 l 1166 548 l 1166 0 l 501 0 l 501 316 q 501 386 515 429 q 529 471 556 499 l 556 499 q 584 529 626 545 q 668 560 719 560 l 719 560 q 773 560 813 547 q 853 533 879 506 l 879 506 q 907 478 921 434 q 934 389 934 324 l 934 324 l 934 233 l 539 233 l 539 35 l 1127 35 l 1127 548 z m 719 525 l 719 525 q 631 525 585 477 q 539 428 539 319 l 539 319 l 539 268 l 896 268 l 896 316 q 896 431 854 478 q 812 525 719 525 z"},"ങ":{"ha":1004,"x_min":47,"x_max":963,"o":"m 336 560 l 336 560 q 423 560 477 516 q 530 472 544 389 l 544 389 l 546 333 l 555 204 l 555 0 l 517 0 l 517 311 q 517 384 500 425 q 482 465 452 489 l 452 489 q 428 508 402 516 q 375 524 335 524 l 335 524 q 257 524 201 486 q 144 448 114 383 q 84 317 84 233 l 84 233 l 84 226 q 84 157 101 112 q 118 67 150 45 q 181 23 223 23 l 223 23 q 253 23 277 36 q 301 48 316 76 q 330 104 330 151 l 330 151 q 330 203 302 238 q 273 272 215 272 l 215 272 q 169 272 130 250 q 90 227 66 200 l 66 200 l 58 233 q 92 270 135 289 q 177 307 219 307 l 219 307 q 260 307 294 290 q 328 272 349 238 q 369 203 369 152 l 369 152 q 369 97 350 61 q 330 24 297 6 q 264 -12 222 -12 l 222 -12 q 174 -12 135 12 q 95 36 71 89 q 47 142 47 228 l 47 228 q 47 329 83 403 q 119 477 184 519 q 249 560 336 560 z m 766 560 l 766 560 q 827 560 868 540 q 909 519 931 485 q 952 451 952 409 l 952 409 q 952 373 939 343 q 926 312 894 292 q 862 271 805 266 l 805 266 l 804 275 q 883 269 923 231 q 963 192 963 133 l 963 133 q 963 65 924 27 q 884 -12 809 -12 l 809 -12 q 780 -12 756 -8 q 732 -4 714 0 l 714 0 l 722 35 q 743 29 763 26 q 783 23 804 23 l 804 23 q 867 23 896 51 q 924 78 924 133 l 924 133 q 924 165 912 187 q 899 209 877 224 l 877 224 q 855 239 825 247 q 795 254 751 254 l 751 254 l 729 254 l 729 288 l 755 288 q 805 288 837 298 q 868 307 886 328 l 886 328 q 899 342 906 362 q 913 381 913 407 l 913 407 q 913 460 875 492 q 836 524 766 524 l 766 524 q 717 524 679 509 q 641 494 613 463 l 613 463 q 596 445 583 418 q 570 391 563 353 q 555 315 555 258 l 555 258 l 555 125 l 527 125 l 527 273 l 532 356 q 540 418 569 464 q 598 509 648 535 q 698 560 766 560 z"},"ച":{"ha":881,"x_min":15,"x_max":804,"o":"m 766 548 l 804 548 l 804 0 l 15 0 l 15 35 l 401 35 l 376 23 q 405 49 429 85 q 453 121 453 177 l 453 177 q 453 241 421 277 q 388 313 330 313 l 330 313 q 270 313 238 279 q 206 244 206 184 l 206 184 q 206 169 207 158 q 208 146 211 133 l 211 133 l 173 127 q 171 140 169 155 q 167 169 167 187 l 167 187 q 167 262 214 305 q 260 348 331 348 l 331 348 q 369 348 399 336 q 429 324 449 301 q 469 278 480 247 q 491 216 491 178 l 491 178 q 491 139 481 111 q 471 82 455 61 q 438 40 422 23 l 422 23 l 408 35 l 766 35 l 766 548 z"},"ഛ":{"ha":1284,"x_min":15,"x_max":1240,"o":"m 331 348 l 331 348 q 369 348 399 336 q 429 324 449 301 q 469 278 480 247 q 491 216 491 178 l 491 178 q 491 139 481 111 q 471 82 455 61 q 438 40 422 23 l 422 23 l 408 35 l 767 35 l 769 0 l 15 0 l 15 35 l 401 35 l 376 23 q 405 49 429 85 q 453 121 453 177 l 453 177 q 453 241 421 277 q 388 313 330 313 l 330 313 q 270 313 238 279 q 206 244 206 184 l 206 184 q 206 169 207 158 q 208 146 211 133 l 211 133 l 173 127 q 171 140 169 155 q 167 169 167 187 l 167 187 q 167 262 214 305 q 260 348 331 348 z m 936 560 l 936 560 q 1011 560 1068 536 q 1124 512 1163 470 q 1201 427 1221 369 q 1240 311 1240 243 l 1240 243 q 1240 152 1216 96 q 1192 40 1150 14 q 1108 -12 1053 -12 l 1053 -12 q 995 -12 958 15 q 920 42 902 88 q 883 134 883 189 l 883 189 q 883 284 933 335 q 982 385 1059 385 l 1059 385 q 1105 385 1139 366 q 1172 346 1195 315 q 1218 284 1231 247 l 1231 247 l 1216 236 q 1205 263 1184 289 q 1163 315 1133 333 q 1103 350 1063 350 l 1063 350 q 993 350 958 307 q 922 264 922 191 l 922 191 q 922 144 935 106 q 948 68 977 46 q 1006 23 1055 23 l 1055 23 q 1102 23 1135 46 q 1167 69 1185 118 q 1202 167 1202 245 l 1202 245 q 1202 254 1202 263 q 1201 272 1200 279 l 1200 279 q 1200 284 1201 290 q 1201 296 1199 300 l 1199 300 q 1191 358 1162 409 q 1132 460 1077 492 q 1022 524 936 524 l 936 524 q 865 524 807 496 q 749 468 715 413 q 680 358 680 275 l 680 275 q 680 217 695 172 q 710 127 738 92 q 765 57 802 28 l 802 28 l 785 0 l 762 0 l 753 26 q 730 47 704 79 q 677 111 659 160 q 640 209 640 278 l 640 278 q 640 333 658 384 q 676 434 713 474 q 750 513 806 537 q 861 560 936 560 z"},"ജ":{"ha":890,"x_min":39,"x_max":846,"o":"m 281 560 l 281 560 q 337 560 378 545 q 419 529 447 498 q 475 466 490 416 l 490 416 l 476 408 q 492 487 539 524 q 585 560 655 560 l 655 560 q 721 560 763 534 q 805 508 826 468 q 846 427 846 381 l 846 381 q 846 346 836 314 q 826 281 802 255 q 777 229 733 213 l 733 213 l 672 207 l 633 197 q 610 191 578 187 q 545 183 494 183 l 494 183 l 220 183 q 173 183 145 178 q 116 172 99 157 l 99 157 q 88 148 83 135 q 77 122 77 106 l 77 106 q 77 76 91 58 q 104 39 128 31 q 152 23 182 23 l 182 23 q 225 23 264 32 q 302 41 340 59 q 378 76 420 99 l 420 99 q 464 125 494 142 q 524 158 545 169 q 565 180 582 188 q 598 195 615 201 l 615 201 q 626 206 638 210 q 649 214 660 217 q 671 220 681 222 q 691 223 699 223 l 699 223 q 732 223 760 212 q 787 200 804 175 q 820 150 820 110 l 820 110 q 820 48 783 18 q 745 -12 693 -12 l 693 -12 q 644 -12 616 7 q 588 25 576 54 q 564 83 564 114 l 564 114 q 564 145 576 165 q 588 185 613 208 l 613 208 l 642 212 q 631 203 621 190 q 610 177 604 159 q 598 141 598 118 l 598 118 q 598 72 622 47 q 645 21 693 21 l 693 21 q 734 21 759 44 q 783 66 783 110 l 783 110 q 783 143 770 162 q 757 180 736 189 q 715 198 690 198 l 690 198 q 667 198 644 190 q 620 181 603 168 l 603 168 l 595 170 q 579 157 560 144 q 541 130 516 115 q 491 99 453 78 l 453 78 q 399 48 357 29 q 314 9 273 -1 q 232 -12 182 -12 l 182 -12 q 149 -12 116 -1 q 82 9 61 35 q 39 60 39 107 l 39 107 q 39 130 48 149 q 56 167 71 181 l 71 181 q 94 201 127 209 q 160 217 215 217 l 215 217 l 550 217 q 605 217 644 222 q 683 227 711 237 q 739 247 757 262 l 757 262 q 784 282 796 312 q 807 342 807 380 l 807 380 q 807 415 792 448 q 777 481 744 503 q 710 525 653 525 l 653 525 q 620 525 596 516 q 571 507 552 490 l 552 490 q 523 464 513 423 q 503 382 503 332 l 503 332 l 503 258 l 465 258 l 465 333 q 465 385 451 427 q 436 468 400 493 l 400 493 q 376 510 348 518 q 320 525 280 525 l 280 525 q 213 525 166 506 q 118 487 92 446 l 92 446 q 91 443 91 439 q 90 435 88 432 l 88 432 q 84 420 82 408 q 79 396 79 383 l 79 383 q 79 325 105 302 q 131 278 174 278 l 174 278 q 209 278 228 292 q 247 305 255 325 q 263 345 263 364 l 263 364 q 263 399 241 423 q 219 446 172 446 l 172 446 q 140 446 112 434 q 84 421 57 396 l 57 396 l 63 429 q 86 449 115 463 q 144 476 178 476 l 178 476 q 222 476 249 460 q 275 443 288 418 q 300 392 300 364 l 300 364 q 300 334 287 307 q 273 279 246 262 q 218 245 174 245 l 174 245 q 109 245 77 282 q 44 318 44 384 l 44 384 q 44 431 71 471 q 97 511 150 536 q 203 560 281 560 z"},"ഝ":{"ha":1576,"x_min":44,"x_max":1532,"o":"m 625 560 l 625 560 q 673 560 710 548 q 747 535 774 514 l 774 514 q 816 480 835 427 q 854 373 854 286 l 854 286 l 854 256 q 854 176 863 134 q 872 92 893 65 l 893 65 q 909 45 933 34 q 957 23 992 23 l 992 23 q 1021 23 1042 32 q 1063 40 1079 56 l 1079 56 q 1105 81 1117 122 q 1128 163 1128 227 l 1128 227 l 1128 548 l 1166 548 l 1166 241 q 1166 178 1176 135 q 1186 91 1213 63 l 1213 63 q 1231 44 1256 34 q 1280 23 1317 23 l 1317 23 q 1376 23 1415 57 q 1454 90 1474 144 q 1493 197 1493 256 l 1493 256 q 1493 325 1476 374 q 1459 423 1430 459 q 1400 495 1363 525 l 1363 525 l 1386 554 q 1428 520 1461 481 q 1494 442 1513 389 q 1532 335 1532 257 l 1532 257 q 1532 185 1508 124 q 1483 62 1435 25 q 1386 -12 1314 -12 l 1314 -12 q 1241 -12 1200 27 q 1159 65 1143 132 l 1143 132 l 1149 131 q 1142 85 1121 53 q 1099 21 1066 5 q 1033 -12 990 -12 l 990 -12 q 949 -12 919 1 q 889 14 867 38 l 867 38 q 850 58 839 83 q 827 108 821 146 q 815 183 815 238 l 815 238 l 815 261 q 815 325 808 368 q 801 411 786 439 q 771 466 748 485 l 748 485 q 725 504 695 515 q 665 525 624 525 l 624 525 q 589 525 559 517 q 529 509 499 494 l 499 494 l 486 486 q 441 459 409 415 q 376 370 359 317 q 342 264 342 208 l 342 208 q 342 141 360 101 q 377 60 408 42 q 439 23 479 23 l 479 23 q 518 23 549 43 q 579 62 597 104 q 615 146 615 212 l 615 212 q 615 267 597 320 q 579 373 546 418 q 513 462 467 488 l 467 488 l 456 494 q 428 509 396 517 q 364 525 328 525 l 328 525 q 245 525 191 491 q 136 457 110 400 q 83 343 83 275 l 83 275 q 83 215 99 169 q 114 122 144 87 q 173 51 215 21 l 215 21 l 193 -8 q 155 18 121 56 q 86 94 65 148 q 44 202 44 275 l 44 275 q 44 337 63 389 q 82 440 118 479 q 154 517 207 539 q 259 560 327 560 l 327 560 q 372 560 412 549 q 451 537 488 514 l 488 514 l 501 505 q 570 460 612 382 q 654 303 654 212 l 654 212 q 654 137 632 88 q 609 38 570 13 q 530 -12 479 -12 l 479 -12 q 427 -12 387 12 q 347 36 325 85 q 302 134 302 209 l 302 209 q 302 271 321 327 q 339 382 374 428 q 408 473 455 505 l 455 505 l 465 512 q 503 536 544 548 q 585 560 625 560 z"},"ഞ":{"ha":1374,"x_min":47,"x_max":1331,"o":"m 336 560 l 336 560 q 423 560 477 516 q 530 472 544 389 l 544 389 l 546 341 l 555 209 l 555 0 l 517 0 l 517 311 q 517 384 500 425 q 482 465 452 489 l 452 489 q 428 508 402 516 q 375 524 335 524 l 335 524 q 257 524 201 486 q 144 448 114 383 q 84 317 84 233 l 84 233 l 84 226 q 84 157 101 112 q 118 67 150 45 q 181 23 223 23 l 223 23 q 253 23 277 36 q 301 48 316 76 q 330 104 330 151 l 330 151 q 330 203 302 238 q 273 272 215 272 l 215 272 q 169 272 130 250 q 90 227 66 200 l 66 200 l 58 233 q 92 270 135 289 q 177 307 219 307 l 219 307 q 260 307 294 290 q 328 272 349 238 q 369 203 369 152 l 369 152 q 369 97 350 61 q 330 24 297 6 q 264 -12 222 -12 l 222 -12 q 174 -12 135 12 q 95 36 71 89 q 47 142 47 228 l 47 228 q 47 329 83 403 q 119 477 184 519 q 249 560 336 560 z m 744 560 l 744 560 q 792 560 831 549 q 869 538 906 515 l 906 515 l 919 506 q 986 461 1028 383 q 1070 305 1070 212 l 1070 212 q 1070 137 1048 88 q 1025 38 986 13 q 946 -12 895 -12 l 895 -12 q 843 -12 803 12 q 763 36 741 85 q 718 134 718 209 l 718 209 q 718 271 738 327 q 757 382 793 428 q 828 473 875 504 l 875 504 l 885 511 q 923 535 967 548 q 1010 560 1057 560 l 1057 560 q 1124 560 1175 539 q 1225 517 1260 480 q 1295 442 1313 390 q 1331 338 1331 277 l 1331 277 q 1331 204 1310 151 q 1289 98 1255 60 q 1220 21 1180 -8 l 1180 -8 l 1158 21 q 1194 47 1225 81 q 1255 115 1273 163 q 1291 210 1291 276 l 1291 276 q 1291 347 1265 403 q 1239 459 1187 492 q 1134 525 1055 525 l 1055 525 q 1016 525 982 517 q 948 508 918 492 l 918 492 l 906 485 q 860 458 827 414 q 793 370 776 317 q 758 264 758 208 l 758 208 q 758 141 776 101 q 793 60 824 42 q 855 23 895 23 l 895 23 q 934 23 965 43 q 995 62 1013 104 q 1031 146 1031 212 l 1031 212 q 1031 269 1014 323 q 996 376 964 420 q 931 463 886 489 l 886 489 l 874 496 q 856 505 836 512 q 815 519 793 522 q 771 525 746 525 l 746 525 q 705 525 675 515 q 644 504 622 484 l 622 484 q 588 456 572 412 q 555 368 555 287 l 555 287 l 555 54 l 524 54 l 527 233 l 531 396 q 545 451 574 487 q 603 523 646 542 q 689 560 744 560 z"},"ട":{"ha":519,"x_min":20,"x_max":488,"o":"m 246 560 l 246 560 q 324 560 382 544 q 439 528 488 504 l 488 504 l 465 473 q 416 499 363 512 q 310 524 246 524 l 246 524 q 185 524 147 508 q 109 492 92 466 q 75 439 75 406 l 75 406 q 75 378 84 359 q 92 340 107 327 l 107 327 q 132 306 172 302 q 211 297 262 297 l 262 297 l 269 297 q 334 297 372 287 q 410 277 437 254 l 437 254 q 458 237 469 211 q 480 184 480 148 l 480 148 q 480 102 457 66 q 434 29 387 9 q 339 -12 266 -12 l 266 -12 q 188 -12 132 4 q 76 20 20 50 l 20 50 l 41 81 q 71 65 105 52 q 138 39 178 31 q 218 23 267 23 l 267 23 q 331 23 369 40 q 407 56 424 84 q 441 112 441 147 l 441 147 q 441 175 434 196 q 426 216 408 230 l 408 230 q 387 246 355 254 q 322 262 261 262 l 261 262 l 254 262 q 186 262 144 271 q 102 280 74 307 l 74 307 q 56 324 46 349 q 36 373 36 407 l 36 407 q 36 450 59 485 q 82 519 129 540 q 175 560 246 560 z"},"ഠ":{"ha":619,"x_min":44,"x_max":575,"o":"m 311 560 l 311 560 q 394 560 454 525 q 513 490 544 426 q 575 361 575 273 l 575 273 q 575 187 543 123 q 511 58 451 23 q 391 -12 308 -12 l 308 -12 q 223 -12 165 24 q 106 60 75 125 q 44 190 44 276 l 44 276 q 44 362 77 426 q 109 489 169 525 q 229 560 311 560 z m 308 23 l 308 23 q 384 23 434 56 q 484 88 510 145 q 536 202 536 275 l 536 275 q 536 351 510 408 q 484 464 434 494 q 384 524 310 524 l 310 524 q 203 524 143 456 q 83 388 83 275 l 83 275 q 83 158 141 91 q 199 23 308 23 z"},"ഡ":{"ha":1158,"x_min":44,"x_max":1114,"o":"m 571 -12 l 571 -12 q 530 -12 500 1 q 470 14 449 38 l 449 38 q 432 58 420 83 q 408 108 403 146 q 397 183 397 237 l 397 237 l 397 275 q 397 350 391 399 q 384 447 359 478 l 359 478 q 343 500 318 512 q 293 524 250 524 l 250 524 q 201 524 164 497 q 126 470 105 418 q 83 365 83 289 l 83 289 q 83 222 100 173 q 117 124 147 88 q 176 51 214 21 l 214 21 l 191 -9 q 148 27 115 68 q 81 108 63 162 q 44 216 44 289 l 44 289 q 44 373 69 434 q 94 495 141 528 q 187 560 252 560 l 252 560 q 298 560 331 546 q 363 532 384 507 l 384 507 q 404 484 415 456 q 426 428 431 390 q 435 351 435 294 l 435 294 l 435 256 q 435 177 444 135 q 453 92 475 65 l 475 65 q 491 45 515 34 q 538 23 574 23 l 574 23 q 603 23 624 32 q 645 40 660 56 l 660 56 q 687 81 698 122 q 709 163 709 227 l 709 227 l 709 548 l 747 548 l 747 240 q 747 177 757 134 q 767 91 795 63 l 795 63 q 813 44 838 34 q 862 23 898 23 l 898 23 q 958 23 997 57 q 1036 90 1055 144 q 1074 197 1074 257 l 1074 257 q 1074 326 1058 375 q 1041 423 1012 459 q 982 495 944 525 l 944 525 l 968 554 q 1009 520 1043 481 q 1076 442 1095 388 q 1114 334 1114 257 l 1114 257 q 1114 185 1090 124 q 1065 62 1016 25 q 967 -12 895 -12 l 895 -12 q 822 -12 782 27 q 741 65 725 131 l 725 131 l 731 130 q 719 62 677 25 q 635 -12 571 -12 z"},"ഢ":{"ha":1265,"x_min":44,"x_max":1218,"o":"m 571 -12 l 571 -12 q 530 -12 500 1 q 470 14 449 38 l 449 38 q 432 58 420 83 q 408 108 403 146 q 397 183 397 238 l 397 238 l 397 276 q 397 350 391 399 q 384 447 359 478 l 359 478 q 343 500 318 512 q 293 524 250 524 l 250 524 q 201 524 164 497 q 126 470 105 418 q 83 366 83 289 l 83 289 q 83 222 100 173 q 117 124 147 88 q 176 51 214 21 l 214 21 l 191 -9 q 148 27 115 68 q 81 108 63 162 q 44 216 44 289 l 44 289 q 44 373 69 434 q 94 495 141 528 q 187 560 252 560 l 252 560 q 298 560 331 546 q 363 532 384 507 l 384 507 q 404 484 415 456 q 426 428 431 390 q 435 351 435 294 l 435 294 l 435 255 q 435 177 444 135 q 453 92 475 65 l 475 65 q 491 45 515 34 q 538 23 574 23 l 574 23 q 603 23 624 32 q 645 40 660 56 l 660 56 q 687 81 698 122 q 709 163 709 227 l 709 227 l 709 548 l 747 548 l 747 241 l 731 131 q 719 62 677 25 q 635 -12 571 -12 z m 1043 560 l 1043 560 q 1091 560 1131 536 q 1170 512 1194 459 q 1218 406 1218 319 l 1218 319 q 1218 220 1182 145 q 1146 70 1081 29 q 1015 -12 929 -12 l 929 -12 q 842 -12 789 32 q 736 75 722 157 l 722 157 l 717 339 l 717 536 l 747 536 l 747 237 q 747 164 765 123 q 783 82 813 58 l 813 58 q 836 40 863 32 q 890 23 930 23 l 930 23 q 1008 23 1065 62 q 1121 100 1151 166 q 1181 232 1181 314 l 1181 314 l 1181 321 q 1181 393 1164 438 q 1146 482 1115 504 q 1084 525 1042 525 l 1042 525 q 1013 525 989 513 q 964 500 949 472 q 934 444 934 397 l 934 397 q 934 345 963 310 q 992 275 1050 275 l 1050 275 q 1096 275 1136 298 q 1175 321 1199 348 l 1199 348 l 1206 315 q 1173 277 1131 259 q 1089 240 1047 240 l 1047 240 q 1006 240 972 258 q 937 275 917 310 q 896 345 896 396 l 896 396 q 896 450 916 487 q 935 523 969 542 q 1002 560 1043 560 z"},"ണ":{"ha":1302,"x_min":47,"x_max":1258,"o":"m 336 560 l 336 560 q 423 560 472 521 q 520 482 539 417 l 539 417 l 533 415 q 548 479 590 520 q 631 560 707 560 l 707 560 q 779 560 822 523 q 865 485 876 417 l 876 417 l 868 415 q 884 484 927 522 q 969 560 1042 560 l 1042 560 q 1113 560 1161 523 q 1209 486 1234 425 q 1258 364 1258 291 l 1258 291 q 1258 216 1240 162 q 1221 108 1188 69 q 1154 29 1111 -7 l 1111 -7 l 1088 23 q 1127 53 1156 90 q 1185 126 1202 175 q 1219 223 1219 291 l 1219 291 q 1219 352 1200 405 q 1181 458 1142 491 q 1103 524 1043 524 l 1043 524 q 1006 524 981 514 q 956 504 939 485 l 939 485 q 911 458 901 415 q 891 371 891 306 l 891 306 l 891 0 l 853 0 l 853 315 q 853 377 845 414 q 836 451 815 477 l 815 477 q 797 499 771 512 q 744 524 705 524 l 705 524 q 667 524 640 512 q 613 499 596 477 l 596 477 q 574 450 565 412 q 556 374 556 314 l 556 314 l 556 0 l 517 0 l 517 309 q 517 384 500 425 q 482 465 452 489 l 452 489 q 428 508 401 516 q 374 524 335 524 l 335 524 q 257 524 201 486 q 144 448 114 383 q 84 317 84 233 l 84 233 l 84 226 q 84 157 101 112 q 118 67 150 45 q 181 23 223 23 l 223 23 q 253 23 277 36 q 301 48 316 76 q 330 104 330 151 l 330 151 q 330 203 302 238 q 273 272 215 272 l 215 272 q 169 272 130 250 q 90 227 66 200 l 66 200 l 58 233 q 92 270 135 289 q 177 307 219 307 l 219 307 q 260 307 294 290 q 328 272 349 238 q 369 203 369 152 l 369 152 q 369 97 350 61 q 330 24 297 6 q 264 -12 222 -12 l 222 -12 q 174 -12 135 12 q 95 36 71 89 q 47 142 47 228 l 47 228 q 47 329 83 403 q 119 477 184 519 q 249 560 336 560 z"},"ത":{"ha":958,"x_min":44,"x_max":914,"o":"m 479 -12 l 479 -12 q 427 -12 387 12 q 347 36 325 85 q 302 134 302 209 l 302 209 q 302 271 322 327 q 341 382 377 428 q 412 473 459 504 l 459 504 l 468 511 q 507 535 551 548 q 594 560 641 560 l 641 560 q 708 560 759 539 q 809 517 844 480 q 879 442 897 390 q 914 338 914 277 l 914 277 q 914 204 894 151 q 873 98 839 60 q 804 21 764 -8 l 764 -8 l 742 21 q 778 47 809 81 q 839 115 857 163 q 875 210 875 276 l 875 276 q 875 347 849 404 q 822 460 770 493 q 717 525 639 525 l 639 525 q 600 525 566 517 q 532 508 502 492 l 502 492 l 490 485 q 444 458 411 414 q 377 370 360 317 q 342 264 342 208 l 342 208 q 342 141 360 101 q 377 60 408 42 q 439 23 479 23 l 479 23 q 518 23 549 43 q 579 62 597 104 q 615 146 615 212 l 615 212 q 615 267 597 321 q 579 374 546 418 q 513 462 467 488 l 467 488 l 456 494 q 428 509 396 517 q 364 525 328 525 l 328 525 q 245 525 191 491 q 136 457 110 401 q 83 344 83 275 l 83 275 q 83 215 99 169 q 114 122 144 87 q 173 51 215 21 l 215 21 l 193 -8 q 155 18 121 56 q 86 94 65 148 q 44 202 44 275 l 44 275 q 44 337 63 389 q 82 440 118 479 q 154 517 207 539 q 259 560 327 560 l 327 560 q 372 560 412 548 q 451 536 488 513 l 488 513 l 501 505 q 570 460 612 382 q 654 303 654 212 l 654 212 q 654 137 632 88 q 609 38 570 13 q 530 -12 479 -12 z"},"ഥ":{"ha":848,"x_min":77,"x_max":780,"o":"m 77 548 l 116 548 l 116 35 l 368 35 l 368 0 l 77 0 l 77 548 z m 557 560 l 557 560 q 612 560 654 542 q 695 523 723 491 l 723 491 q 753 458 767 410 q 780 361 780 289 l 780 289 l 780 0 l 338 0 l 338 296 q 338 343 344 379 q 350 415 364 444 q 377 472 397 495 l 397 495 q 424 525 464 543 q 503 560 557 560 z m 557 524 l 557 524 q 514 524 481 511 q 448 497 425 471 l 425 471 q 401 443 389 401 q 376 358 376 278 l 376 278 l 376 35 l 742 35 l 742 275 q 742 351 730 395 q 717 439 693 468 l 693 468 q 670 495 637 510 q 603 524 557 524 z"},"ദ":{"ha":595,"x_min":55,"x_max":553,"o":"m 351 560 l 351 560 q 413 560 456 540 q 498 520 520 487 q 542 453 542 409 l 542 409 q 542 344 507 311 q 471 278 410 268 l 410 268 l 409 274 q 481 267 517 227 q 553 187 553 130 l 553 130 q 553 60 507 24 q 461 -12 384 -12 l 384 -12 q 349 -12 326 -8 q 303 -5 284 -1 l 284 -1 l 293 34 q 313 30 335 27 q 356 23 382 23 l 382 23 q 447 23 481 50 q 514 77 514 132 l 514 132 q 514 160 505 182 q 495 203 475 219 l 475 219 q 455 236 424 245 q 392 254 340 254 l 340 254 l 300 254 l 300 288 l 340 288 q 389 288 420 296 q 451 304 471 323 l 471 323 q 487 337 495 358 q 503 378 503 407 l 503 407 q 503 462 463 493 q 423 524 350 524 l 350 524 q 264 524 207 484 q 150 443 123 373 q 95 302 95 215 l 95 215 q 95 159 102 107 q 108 54 121 3 l 121 3 l 84 -4 q 70 44 63 104 q 55 163 55 215 l 55 215 q 55 316 90 394 q 124 472 190 516 q 256 560 351 560 z"},"ധ":{"ha":859,"x_min":44,"x_max":815,"o":"m 597 -12 l 597 -12 q 548 -12 514 5 q 480 22 459 55 q 437 87 427 133 l 427 133 l 434 133 q 417 64 376 26 q 334 -12 261 -12 l 261 -12 q 190 -12 142 25 q 93 62 69 123 q 44 184 44 256 l 44 256 q 44 333 63 387 q 81 440 115 480 q 148 519 191 554 l 191 554 l 214 525 q 176 494 147 459 q 117 423 100 374 q 83 325 83 256 l 83 256 q 83 197 102 144 q 121 90 160 57 q 199 23 259 23 l 259 23 q 298 23 322 34 q 346 45 363 63 l 363 63 q 391 91 401 134 q 411 177 411 241 l 411 241 l 411 548 l 449 548 l 449 240 q 449 177 460 135 q 470 92 496 64 l 496 64 q 514 44 538 34 q 561 23 596 23 l 596 23 q 656 23 696 56 q 736 88 756 142 q 776 195 776 259 l 776 259 q 776 327 759 375 q 742 423 713 459 q 683 495 646 525 l 646 525 l 670 554 q 712 520 745 480 q 777 440 796 387 q 815 333 815 259 l 815 259 q 815 178 789 117 q 762 56 713 22 q 663 -12 597 -12 z"},"ന":{"ha":859,"x_min":44,"x_max":815,"o":"m 263 560 l 263 560 q 311 560 345 543 q 379 525 401 493 q 423 461 433 415 l 433 415 l 425 415 q 442 484 484 522 q 525 560 598 560 l 598 560 q 670 560 718 523 q 766 486 791 425 q 815 364 815 291 l 815 291 q 815 216 797 162 q 778 108 745 69 q 711 29 668 -6 l 668 -6 l 645 23 q 684 53 714 90 q 743 126 760 175 q 776 223 776 291 l 776 291 q 776 352 757 405 q 738 458 699 491 q 660 524 600 524 l 600 524 q 563 524 538 514 q 513 504 496 485 l 496 485 q 469 458 459 415 q 449 371 449 307 l 449 307 l 449 0 l 410 0 l 410 308 q 410 371 400 414 q 390 457 363 484 l 363 484 q 345 503 322 514 q 298 524 263 524 l 263 524 q 203 524 163 492 q 123 460 103 407 q 83 353 83 289 l 83 289 q 83 222 100 173 q 117 124 147 89 q 176 53 213 23 l 213 23 l 189 -6 q 148 28 115 68 q 82 108 63 161 q 44 214 44 289 l 44 289 q 44 371 71 432 q 98 492 147 526 q 196 560 263 560 z"},"ഩ":{"ha":966,"x_min":47,"x_max":922,"o":"m 336 560 l 336 560 q 423 560 472 521 q 520 482 539 417 l 539 417 l 533 417 q 550 485 592 523 q 633 560 705 560 l 705 560 q 777 560 825 523 q 873 486 898 425 q 922 364 922 291 l 922 291 q 922 216 904 162 q 885 108 852 69 q 818 29 775 -6 l 775 -6 l 752 23 q 791 53 820 90 q 849 126 866 175 q 883 223 883 291 l 883 291 q 883 352 864 405 q 845 458 806 491 q 767 524 707 524 l 707 524 q 670 524 646 514 q 621 504 603 485 l 603 485 q 576 458 566 415 q 555 371 555 306 l 555 306 l 555 0 l 517 0 l 517 311 q 517 384 500 425 q 482 465 452 489 l 452 489 q 428 508 402 516 q 375 524 335 524 l 335 524 q 257 524 201 486 q 144 448 114 383 q 84 317 84 233 l 84 233 l 84 226 q 84 157 101 112 q 118 67 150 45 q 181 23 223 23 l 223 23 q 253 23 277 36 q 301 48 316 76 q 330 104 330 151 l 330 151 q 330 203 302 238 q 273 272 215 272 l 215 272 q 169 272 130 250 q 90 227 66 200 l 66 200 l 58 233 q 92 270 135 289 q 177 307 219 307 l 219 307 q 260 307 294 290 q 328 272 349 238 q 369 203 369 152 l 369 152 q 369 97 350 61 q 330 24 297 6 q 264 -12 222 -12 l 222 -12 q 174 -12 135 12 q 95 36 71 89 q 47 142 47 228 l 47 228 q 47 329 83 403 q 119 477 184 519 q 249 560 336 560 z"},"പ":{"ha":843,"x_min":37,"x_max":765,"o":"m 207 331 l 207 331 q 260 331 298 309 q 336 286 357 248 q 378 210 378 161 l 378 161 q 378 115 361 80 q 344 45 315 20 l 315 20 l 315 35 l 727 35 l 727 548 l 765 548 l 765 0 l 299 0 l 283 27 q 313 57 326 88 q 339 119 339 157 l 339 157 q 339 221 303 259 q 267 296 207 296 l 207 296 q 165 296 136 277 q 106 258 91 228 q 75 197 75 160 l 75 160 q 75 113 93 81 q 111 49 146 21 l 146 21 l 124 -8 q 84 26 61 64 q 37 102 37 160 l 37 160 q 37 208 58 247 q 79 285 118 308 q 156 331 207 331 z"},"ഫ":{"ha":1068,"x_min":37,"x_max":1001,"o":"m 207 331 l 207 331 q 260 331 298 309 q 336 286 357 248 q 378 210 378 161 l 378 161 q 378 115 361 80 q 344 45 315 20 l 315 20 l 315 35 l 586 35 l 586 0 l 299 0 l 283 27 q 313 57 326 88 q 339 119 339 157 l 339 157 q 339 221 303 259 q 267 296 207 296 l 207 296 q 165 296 136 277 q 106 258 91 228 q 75 197 75 160 l 75 160 q 75 113 93 81 q 111 48 146 21 l 146 21 l 124 -8 q 84 26 61 64 q 37 102 37 160 l 37 160 q 37 208 58 247 q 79 285 118 308 q 156 331 207 331 z m 777 560 l 777 560 q 833 560 874 542 q 915 523 943 491 l 943 491 q 973 458 987 410 q 1001 361 1001 289 l 1001 289 l 1001 0 l 558 0 l 558 296 q 558 343 564 379 q 570 415 584 444 q 597 472 617 495 l 617 495 q 644 525 684 543 q 724 560 777 560 z m 777 524 l 777 524 q 735 524 702 511 q 668 497 646 471 l 646 471 q 621 443 609 401 q 596 358 596 278 l 596 278 l 596 35 l 962 35 l 962 275 q 962 351 950 395 q 938 439 913 468 l 913 468 q 890 495 857 510 q 823 524 777 524 z"},"ബ":{"ha":1243,"x_min":47,"x_max":1166,"o":"m 336 560 l 336 560 q 423 560 472 521 q 520 482 539 417 l 539 417 l 547 380 l 555 268 l 555 0 l 517 0 l 517 311 q 517 384 500 425 q 482 465 452 489 l 452 489 q 428 508 402 516 q 375 524 335 524 l 335 524 q 257 524 201 486 q 144 448 114 383 q 84 317 84 233 l 84 233 l 84 226 q 84 157 101 112 q 118 67 150 45 q 181 23 223 23 l 223 23 q 253 23 277 36 q 301 48 316 76 q 330 104 330 151 l 330 151 q 330 203 302 238 q 273 272 215 272 l 215 272 q 169 272 130 250 q 90 227 66 200 l 66 200 l 58 233 q 92 270 135 289 q 177 307 219 307 l 219 307 q 260 307 294 290 q 328 272 349 238 q 369 203 369 152 l 369 152 q 369 97 350 61 q 330 24 297 6 q 264 -12 222 -12 l 222 -12 q 174 -12 135 12 q 95 36 71 89 q 47 142 47 228 l 47 228 q 47 329 83 403 q 119 477 184 519 q 249 560 336 560 z m 1127 548 l 1166 548 l 1166 0 l 779 0 l 763 28 q 798 60 825 95 q 852 130 868 177 q 883 224 883 291 l 883 291 q 883 352 864 405 q 845 458 806 491 q 767 524 707 524 l 707 524 q 670 524 646 514 q 621 504 603 485 l 603 485 q 576 458 566 415 q 555 371 555 306 l 555 306 l 555 8 l 520 8 l 520 271 l 531 370 l 533 417 q 550 485 592 523 q 633 560 705 560 l 705 560 q 777 560 825 523 q 873 486 898 425 q 922 364 922 291 l 922 291 q 922 226 908 178 q 893 129 869 94 q 844 58 811 28 l 811 28 l 801 35 l 1127 35 l 1127 548 z"},"ഭ":{"ha":606,"x_min":55,"x_max":567,"o":"m 369 560 l 369 560 q 427 560 472 544 q 517 528 542 498 q 567 467 567 423 l 567 423 q 567 402 562 384 q 556 366 545 355 l 545 355 q 532 341 512 333 q 492 325 453 325 l 453 325 l 418 325 q 373 325 351 322 q 329 319 315 309 l 315 309 q 305 302 300 292 q 295 281 295 268 l 295 268 q 295 235 320 222 q 344 208 403 208 l 403 208 l 414 208 q 458 208 487 202 q 516 195 536 178 l 536 178 q 551 167 559 148 q 567 129 567 104 l 567 104 q 567 69 551 43 q 534 17 500 3 q 466 -12 414 -12 l 414 -12 q 384 -12 352 -8 q 319 -5 291 3 q 262 10 239 21 l 239 21 l 254 54 q 290 38 330 31 q 370 23 414 23 l 414 23 q 477 23 503 45 q 528 67 528 102 l 528 102 q 528 143 501 158 q 474 173 424 173 l 424 173 l 409 173 q 361 173 333 180 q 304 186 286 201 l 286 201 q 272 212 265 228 q 257 244 257 266 l 257 266 q 257 289 264 305 q 271 321 285 332 l 285 332 q 306 348 337 354 q 367 360 414 360 l 414 360 l 456 360 q 495 360 512 374 q 529 388 529 422 l 529 422 q 529 470 487 497 q 445 524 368 524 l 368 524 q 274 524 214 484 q 153 443 124 373 q 95 302 95 215 l 95 215 q 95 159 102 107 q 108 54 121 3 l 121 3 l 84 -4 q 70 44 63 104 q 55 163 55 215 l 55 215 q 55 316 91 394 q 127 472 197 516 q 267 560 369 560 z"},"മ":{"ha":677,"x_min":64,"x_max":613,"o":"m 344 560 l 344 560 q 401 560 445 547 q 489 533 521 507 l 521 507 q 551 483 572 448 q 592 413 603 365 q 613 317 613 252 l 613 252 l 613 0 l 64 0 l 64 250 q 64 309 73 354 q 82 398 100 433 q 117 467 144 492 l 144 492 q 179 525 229 543 q 278 560 344 560 z m 297 520 l 297 520 q 256 520 224 505 q 191 490 166 462 l 166 462 q 136 429 119 378 q 102 327 102 248 l 102 248 l 102 35 l 117 35 q 197 94 261 156 q 325 218 363 281 q 400 344 400 403 l 400 403 q 400 432 391 459 q 381 485 359 503 q 336 520 297 520 z m 439 403 l 439 403 q 439 338 402 274 q 365 210 301 146 q 237 82 153 16 l 153 16 l 155 32 q 188 34 233 35 q 277 35 317 35 l 317 35 l 575 35 l 575 251 q 575 334 554 395 q 532 455 484 490 q 436 525 355 527 l 355 527 l 352 534 q 403 516 421 481 q 439 445 439 403 z"},"യ":{"ha":980,"x_min":42,"x_max":934,"o":"m 636 -12 l 636 -12 q 592 -12 554 -2 q 516 7 482 26 l 482 26 q 479 28 475 30 q 470 32 468 33 l 468 33 q 418 65 383 111 q 348 156 330 213 q 312 270 312 335 l 312 335 q 312 378 323 416 q 333 454 353 484 l 353 484 l 358 492 q 374 513 395 528 q 415 543 441 552 q 466 560 495 560 l 495 560 q 581 560 630 500 q 678 440 678 335 l 678 335 q 678 232 637 155 q 596 78 521 35 l 521 35 q 517 33 513 31 q 509 28 505 25 l 505 25 q 471 7 433 -2 q 395 -12 345 -12 l 345 -12 q 272 -12 216 14 q 160 40 121 87 q 82 134 62 196 q 42 258 42 331 l 42 331 q 42 406 69 457 q 96 507 140 534 q 184 560 237 560 l 237 560 q 293 560 328 538 q 363 516 387 489 l 387 489 l 361 463 q 340 488 312 507 q 283 525 238 525 l 238 525 q 196 525 161 504 q 125 483 103 440 q 81 397 81 329 l 81 329 q 81 245 112 176 q 142 106 201 65 q 260 23 347 23 l 347 23 q 386 23 414 28 q 442 33 467 44 l 467 44 q 473 46 478 49 q 482 51 488 53 l 488 53 q 536 77 570 119 q 603 160 621 216 q 639 271 639 334 l 639 334 q 639 402 620 444 q 601 486 568 506 q 535 525 495 525 l 495 525 q 450 525 418 501 q 385 477 368 434 q 351 391 351 333 l 351 333 q 351 274 369 219 q 386 164 419 121 q 452 78 500 53 l 500 53 q 505 51 509 50 q 513 48 518 45 l 518 45 q 542 35 572 29 q 601 23 636 23 l 636 23 q 727 23 785 61 q 842 98 869 163 q 895 227 895 309 l 895 309 q 895 380 869 440 q 843 500 808 537 l 808 537 l 839 559 q 883 509 909 446 q 934 383 934 310 l 934 310 q 934 240 916 181 q 897 121 860 78 q 823 35 768 12 q 712 -12 636 -12 z"},"ര":{"ha":687,"x_min":44,"x_max":644,"o":"m 339 560 l 339 560 q 414 560 471 536 q 528 512 567 470 q 605 427 625 369 q 644 311 644 243 l 644 243 q 644 152 620 96 q 596 40 554 14 q 512 -12 457 -12 l 457 -12 q 398 -12 361 15 q 323 42 305 88 q 287 134 287 189 l 287 189 q 287 284 337 335 q 386 385 463 385 l 463 385 q 509 385 543 366 q 576 346 599 315 q 622 284 635 247 l 635 247 l 620 236 q 609 263 588 289 q 567 315 537 333 q 507 350 467 350 l 467 350 q 396 350 361 307 q 326 264 326 191 l 326 191 q 326 144 339 106 q 352 68 381 46 q 410 23 459 23 l 459 23 q 505 23 538 46 q 571 69 589 118 q 606 167 606 245 l 606 245 q 606 254 606 263 q 605 272 604 279 l 604 279 q 604 284 604 290 q 604 296 603 300 l 603 300 q 595 358 566 409 q 536 460 481 492 q 425 524 339 524 l 339 524 q 269 524 211 496 q 153 468 118 413 q 83 358 83 275 l 83 275 q 83 216 99 170 q 114 124 144 88 q 173 52 215 23 l 215 23 l 193 -7 q 155 19 121 57 q 86 95 65 149 q 44 202 44 275 l 44 275 q 44 331 62 383 q 80 434 117 474 q 154 513 210 537 q 265 560 339 560 z"},"റ":{"ha":631,"x_min":44,"x_max":587,"o":"m 319 560 l 319 560 q 383 560 434 539 q 484 517 518 480 q 552 442 570 390 q 587 338 587 277 l 587 277 q 587 204 567 151 q 546 98 512 60 q 477 21 437 -8 l 437 -8 l 415 21 q 451 47 481 82 q 511 116 530 164 q 548 211 548 276 l 548 276 q 548 345 523 402 q 498 458 447 491 q 395 524 317 524 l 317 524 q 239 524 188 491 q 136 457 110 400 q 83 343 83 275 l 83 275 q 83 216 99 170 q 114 124 144 88 q 173 52 215 23 l 215 23 l 193 -6 q 155 19 121 57 q 86 95 65 149 q 44 202 44 275 l 44 275 q 44 337 62 389 q 80 440 116 479 q 152 517 203 539 q 254 560 319 560 z"},"ല":{"ha":812,"x_min":70,"x_max":735,"o":"m 696 548 l 735 548 l 735 0 l 70 0 l 70 316 q 70 386 84 429 q 98 471 125 499 l 125 499 q 153 529 195 545 q 237 560 288 560 l 288 560 q 342 560 382 547 q 422 533 448 506 l 448 506 q 476 478 490 434 q 503 389 503 324 l 503 324 l 503 233 l 108 233 l 108 35 l 696 35 l 696 548 z m 288 525 l 288 525 q 200 525 154 477 q 108 428 108 319 l 108 319 l 108 268 l 465 268 l 465 316 q 465 431 423 478 q 381 525 288 525 z"},"ള":{"ha":674,"x_min":45,"x_max":632,"o":"m 376 525 l 376 525 q 297 525 243 507 q 189 488 156 459 q 122 430 105 397 q 88 363 83 334 l 83 334 q 83 332 83 329 q 83 325 82 322 l 82 322 q 82 318 82 312 q 81 306 81 301 l 81 301 q 81 229 107 184 q 133 139 195 139 l 195 139 q 248 139 274 172 q 300 204 300 252 l 300 252 q 300 279 290 303 q 280 327 258 342 q 235 357 196 357 l 196 357 q 156 357 123 338 q 89 318 62 286 l 62 286 l 52 317 q 68 336 90 353 q 111 370 139 381 q 167 391 200 391 l 200 391 q 248 391 279 372 q 310 352 324 320 q 338 288 338 252 l 338 252 q 338 214 323 180 q 307 146 275 126 q 243 105 194 105 l 194 105 q 145 105 112 129 q 78 152 62 196 q 45 240 45 299 l 45 299 q 45 349 64 396 q 83 442 123 479 q 163 516 226 538 q 288 560 376 560 l 376 560 q 466 560 520 538 q 574 516 598 479 q 621 442 621 398 l 621 398 q 621 369 609 339 q 597 309 564 289 q 531 268 468 264 l 468 264 l 418 268 l 418 288 l 430 288 q 467 288 494 293 q 521 298 540 311 l 540 311 q 561 325 572 345 q 582 365 582 397 l 582 397 q 582 435 561 464 q 540 492 495 509 q 450 525 376 525 z m 632 142 l 632 142 q 632 112 625 88 q 617 64 600 47 l 600 47 q 584 30 563 20 q 542 9 513 5 q 484 0 442 0 l 442 0 l 243 0 q 194 0 165 -5 q 136 -10 119 -27 l 119 -27 q 109 -36 104 -50 q 98 -64 98 -81 l 98 -81 q 98 -102 105 -116 q 112 -131 125 -142 l 125 -142 q 141 -154 168 -160 q 194 -166 239 -166 l 239 -166 l 614 -166 l 614 -201 l 233 -201 q 186 -201 156 -194 q 125 -187 101 -170 l 101 -170 q 80 -155 70 -133 q 59 -111 59 -82 l 59 -82 q 59 -57 67 -36 q 75 -16 91 -2 l 91 -2 q 105 11 124 19 q 142 27 169 31 q 196 35 236 35 l 236 35 l 441 35 q 494 35 523 43 q 552 51 570 71 l 570 71 q 581 85 587 103 q 593 120 593 144 l 593 144 q 593 176 579 198 q 565 220 540 233 l 540 233 q 522 243 499 249 q 475 254 439 254 l 439 254 l 418 254 l 418 273 l 470 276 q 552 274 592 236 q 632 198 632 142 z"},"ഴ":{"ha":606,"x_min":41,"x_max":565,"o":"m 261 409 l 261 409 q 261 472 301 516 q 341 560 413 560 l 413 560 q 468 560 501 537 q 534 513 550 477 q 565 440 565 398 l 565 398 q 565 333 536 280 q 506 227 450 196 q 393 165 313 165 l 313 165 l 303 165 q 223 165 164 191 q 105 216 73 268 q 41 320 41 399 l 41 399 q 41 441 53 481 q 64 520 88 559 l 88 559 l 120 541 q 98 504 89 470 q 80 436 80 401 l 80 401 q 80 329 108 285 q 135 240 186 220 q 236 200 304 200 l 304 200 l 313 200 q 385 200 432 227 q 479 254 503 300 q 526 345 526 399 l 526 399 q 526 453 500 489 q 474 525 413 525 l 413 525 q 374 525 349 509 q 324 492 312 466 q 299 440 299 409 l 299 409 q 299 367 312 331 q 325 294 342 259 q 359 224 372 189 q 385 154 385 116 l 385 116 q 385 86 373 57 q 361 27 331 8 q 301 -12 246 -12 l 246 -12 q 209 -12 171 -2 q 132 7 98 26 l 98 26 l 114 58 q 144 41 176 32 q 208 23 246 23 l 246 23 q 301 23 324 49 q 346 75 346 115 l 346 115 q 346 154 333 188 q 320 222 304 256 q 287 290 274 327 q 261 364 261 409 z"},"വ":{"ha":908,"x_min":44,"x_max":830,"o":"m 319 560 l 319 560 q 384 560 434 539 q 484 517 518 480 q 552 442 570 390 q 587 338 587 278 l 587 278 q 587 208 569 159 q 550 110 523 77 q 496 44 469 23 l 469 23 l 469 35 l 792 35 l 792 548 l 830 548 l 830 0 l 439 0 l 424 29 q 455 51 483 84 q 511 116 530 164 q 548 211 548 276 l 548 276 q 548 345 523 402 q 498 458 447 491 q 395 524 317 524 l 317 524 q 239 524 188 491 q 136 457 110 400 q 83 343 83 275 l 83 275 q 83 216 99 170 q 114 124 144 88 q 173 52 215 23 l 215 23 l 193 -7 q 155 19 121 57 q 86 95 65 149 q 44 202 44 275 l 44 275 q 44 337 62 389 q 80 440 116 479 q 152 517 203 539 q 254 560 319 560 z"},"ശ":{"ha":975,"x_min":44,"x_max":931,"o":"m 647 560 l 647 560 q 713 560 766 537 q 818 513 855 471 q 892 429 912 371 q 931 313 931 243 l 931 243 q 931 152 907 96 q 883 40 841 14 q 799 -12 744 -12 l 744 -12 q 686 -12 649 15 q 611 42 593 88 q 574 134 574 189 l 574 189 q 574 284 624 335 q 673 385 750 385 l 750 385 q 796 385 830 366 q 863 346 886 315 q 909 284 922 247 l 922 247 l 907 236 q 896 263 875 289 q 854 315 824 333 q 794 350 755 350 l 755 350 q 684 350 649 307 q 613 264 613 191 l 613 191 q 613 144 626 106 q 639 68 668 46 q 697 23 746 23 l 746 23 q 793 23 826 46 q 858 69 876 118 q 893 167 893 245 l 893 245 q 893 254 893 263 q 892 272 891 279 l 891 279 q 891 284 892 290 q 892 296 891 300 l 891 300 q 882 359 853 410 q 823 461 772 493 q 721 524 648 524 l 648 524 q 597 524 561 512 q 524 499 499 476 l 499 476 q 465 443 450 394 q 435 344 435 260 l 435 260 l 435 250 q 435 169 425 122 q 414 75 384 41 l 384 41 q 363 15 331 2 q 298 -12 252 -12 l 252 -12 q 187 -12 141 21 q 94 53 69 114 q 44 175 44 259 l 44 259 q 44 333 63 387 q 81 440 115 481 q 148 521 191 556 l 191 556 l 214 527 q 176 497 147 461 q 117 424 100 376 q 83 327 83 259 l 83 259 q 83 182 105 130 q 126 78 164 51 q 201 23 250 23 l 250 23 q 293 23 318 36 q 343 48 359 69 l 359 69 q 384 101 391 150 q 397 199 397 271 l 397 271 l 397 282 q 397 359 413 410 q 429 460 467 496 l 467 496 q 497 526 542 543 q 587 560 647 560 z"},"ഷ":{"ha":1084,"x_min":37,"x_max":1006,"o":"m 207 331 l 207 331 q 260 331 298 309 q 336 286 357 248 q 378 210 378 161 l 378 161 q 378 115 361 80 q 344 45 315 20 l 315 20 l 315 35 l 658 35 l 660 0 l 299 0 l 283 27 q 313 57 326 88 q 339 119 339 157 l 339 157 q 339 221 303 259 q 267 296 207 296 l 207 296 q 165 296 136 277 q 106 258 91 228 q 75 197 75 160 l 75 160 q 75 113 93 81 q 111 49 146 21 l 146 21 l 124 -8 q 84 26 61 64 q 37 102 37 160 l 37 160 q 37 208 58 247 q 79 285 118 308 q 156 331 207 331 z m 1006 0 l 640 0 l 640 374 q 640 424 633 457 q 625 489 604 506 l 604 506 q 594 515 581 520 q 567 525 549 525 l 549 525 q 506 525 483 498 q 459 470 459 422 l 459 422 q 459 380 477 349 q 495 318 533 301 q 570 284 630 284 l 630 284 l 646 284 q 707 284 755 304 q 803 323 842 358 q 880 392 912 441 q 943 489 969 548 l 969 548 l 1006 548 l 1006 0 z m 549 560 l 549 560 q 571 560 591 555 q 610 549 624 538 l 624 538 q 654 516 667 480 q 679 444 679 384 l 679 384 l 679 35 l 968 35 l 968 386 q 968 400 968 419 q 968 438 969 457 q 970 476 971 490 l 971 490 l 975 492 q 943 418 896 363 q 849 308 788 279 q 727 249 651 249 l 651 249 l 636 249 q 565 249 517 270 q 469 290 445 329 q 420 368 420 422 l 420 422 q 420 459 436 490 q 451 521 480 541 q 508 560 549 560 z"},"സ":{"ha":1158,"x_min":44,"x_max":1114,"o":"m 586 560 l 586 560 q 626 560 657 547 q 687 534 709 509 l 709 509 q 727 490 738 465 q 749 440 755 403 q 761 366 761 310 l 761 310 l 761 272 q 761 197 768 149 q 775 101 798 69 l 798 69 q 815 48 840 36 q 865 23 908 23 l 908 23 q 957 23 995 51 q 1033 78 1054 130 q 1074 182 1074 259 l 1074 259 q 1074 327 1058 376 q 1041 424 1012 461 q 982 497 944 527 l 944 527 l 967 556 q 1010 521 1043 481 q 1076 440 1095 387 q 1114 333 1114 259 l 1114 259 q 1114 175 1089 114 q 1064 53 1017 21 q 970 -12 906 -12 l 906 -12 q 860 -12 828 2 q 795 15 774 41 l 774 41 q 754 64 743 92 q 732 120 727 159 q 722 198 722 253 l 722 253 l 722 292 q 722 371 713 414 q 704 456 683 482 l 683 482 q 668 503 644 514 q 620 524 584 524 l 584 524 q 556 524 535 516 q 514 507 498 492 l 498 492 q 472 468 461 427 q 449 385 449 321 l 449 321 l 449 0 l 410 0 l 410 307 q 410 370 400 414 q 390 458 363 485 l 363 485 q 345 504 321 514 q 297 524 259 524 l 259 524 q 200 524 161 491 q 122 458 103 405 q 83 352 83 291 l 83 291 q 83 222 100 174 q 117 125 147 89 q 177 53 214 23 l 214 23 l 190 -6 q 148 28 115 67 q 82 106 63 160 q 44 214 44 291 l 44 291 q 44 364 69 425 q 93 486 142 523 q 190 560 263 560 l 263 560 q 335 560 376 522 q 417 483 433 416 l 433 416 l 427 417 q 439 486 481 523 q 522 560 586 560 z"},"ഹ":{"ha":1129,"x_min":37,"x_max":1085,"o":"m 207 331 l 207 331 q 260 331 298 309 q 336 286 357 248 q 378 210 378 161 l 378 161 q 378 115 361 80 q 344 45 315 20 l 315 20 l 315 35 l 661 35 l 674 0 l 299 0 l 283 27 q 313 57 326 88 q 339 119 339 157 l 339 157 q 339 221 303 259 q 267 296 207 296 l 207 296 q 165 296 136 277 q 106 258 91 228 q 75 197 75 160 l 75 160 q 75 113 93 81 q 111 49 146 21 l 146 21 l 124 -8 q 84 26 61 64 q 37 102 37 160 l 37 160 q 37 208 58 247 q 79 285 118 308 q 156 331 207 331 z m 816 560 l 816 560 q 881 560 931 539 q 981 517 1016 480 q 1050 442 1068 390 q 1085 338 1085 277 l 1085 277 q 1085 204 1064 151 q 1043 98 1009 60 q 975 21 934 -8 l 934 -8 l 912 21 q 948 47 979 82 q 1009 116 1027 164 q 1045 211 1045 276 l 1045 276 q 1045 345 1020 402 q 995 458 944 491 q 893 524 815 524 l 815 524 q 737 524 685 491 q 633 457 607 400 q 581 343 581 275 l 581 275 q 581 218 596 173 q 610 128 638 93 q 665 58 704 29 l 704 29 l 686 0 l 662 0 l 650 31 q 627 52 602 83 q 577 114 559 161 q 541 208 541 276 l 541 276 q 541 337 560 389 q 578 440 614 479 q 649 517 700 539 q 751 560 816 560 z"},"ഺ":{"ha":744,"x_min":24,"x_max":728,"o":"m 65 35 l 728 35 l 728 0 l 430 0 l 430 -202 l 391 -202 l 391 0 l 48 0 l 24 31 l 222 555 l 258 544 l 65 35 z"},"഻":{"ha":0,"x_min":-296,"x_max":-261,"o":"m -296 582 l -296 864 l -261 864 l -261 582 l -296 582 z"},"഼":{"ha":0,"x_min":-225,"x_max":18,"o":"m -225 724 l -225 724 q -225 777 -192 813 q -160 849 -105 849 l -105 849 q -48 849 -15 814 q 18 778 18 724 l 18 724 q 18 671 -15 635 q -48 599 -105 599 l -105 599 q -161 599 -193 635 q -225 671 -225 724 z m -189 725 l -189 725 q -189 685 -167 659 q -146 633 -105 633 l -105 633 q -61 633 -39 659 q -18 685 -18 725 l -18 725 q -18 764 -39 790 q -61 815 -105 815 l -105 815 q -145 815 -167 790 q -189 764 -189 725 z"},"ഽ":{"ha":426,"x_min":-82,"x_max":508,"o":"m 356 786 l 356 786 q 399 786 428 768 q 457 750 478 719 q 498 688 508 648 l 508 648 l 470 640 q 460 670 447 695 q 433 720 412 736 q 390 751 356 751 l 356 751 q 327 751 307 742 q 286 732 272 714 l 272 714 q 249 688 241 645 q 232 601 232 529 l 232 529 l 232 0 q 232 -74 222 -118 q 211 -163 185 -194 l 185 -194 q 165 -217 137 -230 q 108 -244 69 -244 l 69 -244 q 28 -244 -1 -226 q -31 -208 -50 -177 q -70 -146 -82 -106 l -82 -106 l -44 -99 q -33 -129 -20 -153 q -7 -178 15 -193 q 36 -209 70 -209 l 70 -209 q 99 -209 120 -199 q 140 -189 154 -173 l 154 -173 q 178 -146 186 -103 q 194 -61 194 10 l 194 10 l 194 539 q 194 617 205 661 q 215 705 241 735 l 241 735 q 261 759 291 773 q 320 786 356 786 z"},"ാ":{"ha":461,"x_min":23,"x_max":415,"o":"m 415 276 l 415 276 q 415 214 404 161 q 392 108 368 70 q 343 31 304 10 q 265 -12 211 -12 l 211 -12 q 168 -12 137 2 q 105 15 83 39 q 60 63 46 95 q 31 126 23 162 l 23 162 l 61 170 q 71 129 89 96 q 106 62 136 43 q 165 23 210 23 l 210 23 q 270 23 307 55 q 343 87 360 144 q 376 201 376 276 l 376 276 q 376 349 359 405 q 342 461 307 493 q 271 525 216 525 l 216 525 q 172 525 143 505 q 113 484 95 452 q 76 419 64 380 l 64 380 l 26 388 q 36 422 52 453 q 68 484 91 508 q 114 532 146 546 q 177 560 217 560 l 217 560 q 270 560 308 537 q 346 513 370 474 q 393 434 404 383 q 415 332 415 276 z"},"ി":{"ha":193,"x_min":-200,"x_max":116,"o":"m -52 843 l -52 843 q -21 843 5 834 q 31 825 50 808 l 50 808 q 74 787 89 759 q 103 730 110 688 q 116 645 116 580 l 116 580 l 116 0 l 77 0 l 77 560 q 77 606 75 647 q 72 688 63 721 q 53 753 32 775 l 32 775 q 18 791 -2 800 q -22 808 -51 808 l -51 808 q -83 808 -108 795 q -134 782 -147 756 q -161 730 -161 691 l -161 691 q -161 676 -159 662 q -157 648 -155 637 l -155 637 l -193 631 q -195 644 -197 659 q -200 674 -200 690 l -200 690 q -200 737 -182 771 q -164 805 -130 824 q -96 843 -52 843 z"},"ീ":{"ha":193,"x_min":-270,"x_max":116,"o":"m -110 843 l -110 843 q -71 843 -35 834 q 0 824 28 805 l 28 805 q 76 770 96 714 q 116 658 116 568 l 116 568 l 116 0 l 77 0 l 77 544 q 77 598 73 639 q 69 680 56 711 q 43 742 17 765 l 17 765 q -5 789 -37 800 q -69 810 -116 810 l -116 810 q -147 810 -173 800 q -200 789 -216 768 q -233 746 -233 712 l -233 712 q -233 676 -213 653 q -193 629 -151 629 l -151 629 q -106 629 -86 654 q -66 679 -66 713 l -66 713 q -66 748 -81 775 q -96 801 -124 819 l -124 819 l -79 818 q -57 798 -43 774 q -30 749 -30 712 l -30 712 q -30 681 -43 654 q -56 627 -82 611 q -109 595 -151 595 l -151 595 q -183 595 -210 609 q -237 622 -253 648 q -270 674 -270 713 l -270 713 q -270 752 -250 781 q -231 810 -195 827 q -159 843 -110 843 z"},"ു":{"ha":303,"x_min":-20,"x_max":306,"o":"m 143 -221 l 143 -221 q 69 -221 25 -175 q -20 -130 -20 -54 l -20 -54 q -20 -4 1 33 q 22 70 59 91 q 95 112 142 112 l 142 112 q 192 112 229 92 q 265 72 286 35 q 306 -3 306 -54 l 306 -54 q 306 -104 286 -142 q 265 -180 228 -200 q 191 -221 143 -221 z m 143 -187 l 143 -187 q 198 -187 233 -154 q 268 -121 268 -54 l 268 -54 q 268 11 234 45 q 199 78 142 78 l 142 78 q 87 78 53 44 q 19 10 19 -55 l 19 -55 q 19 -119 54 -153 q 88 -187 143 -187 z m 90 560 l 90 560 q 140 560 170 540 q 200 519 213 486 q 225 452 225 411 l 225 411 q 225 348 208 262 q 190 175 163 86 l 163 86 l 127 94 q 152 183 169 267 q 186 350 186 409 l 186 409 q 186 462 165 493 q 143 524 87 524 l 87 524 q 72 524 56 522 q 39 519 25 515 l 25 515 l 16 549 q 30 553 50 557 q 70 560 90 560 z"},"ൂ":{"ha":302,"x_min":-20,"x_max":306,"o":"m 143 -221 l 143 -221 q 69 -221 25 -175 q -20 -130 -20 -54 l -20 -54 q -20 -4 1 33 q 22 70 59 91 q 95 112 142 112 l 142 112 q 192 112 229 92 q 265 72 286 35 q 306 -3 306 -54 l 306 -54 q 306 -104 286 -142 q 265 -180 228 -200 q 191 -221 143 -221 z m 142 79 l 142 79 q 84 79 50 48 q 15 16 15 -55 l 15 -55 q 15 -119 51 -153 q 86 -188 143 -188 l 143 -188 q 199 -188 235 -154 q 271 -121 271 -54 l 271 -54 q 271 17 237 48 q 202 79 142 79 z m 143 -88 l 143 -88 q 86 -88 60 -58 q 34 -29 34 13 l 34 13 q 34 34 45 52 q 56 69 75 89 l 75 89 l 100 78 q 80 67 72 50 q 64 32 64 16 l 64 16 q 64 -1 72 -17 q 79 -33 97 -43 q 114 -54 144 -54 l 144 -54 q 173 -54 190 -43 q 207 -33 215 -17 q 223 -1 223 16 l 223 16 q 223 32 215 49 q 207 65 187 77 l 187 77 l 211 89 q 231 69 242 52 q 253 34 253 13 l 253 13 q 253 -14 242 -37 q 231 -60 207 -74 q 183 -88 143 -88 z m 90 560 l 90 560 q 140 560 170 540 q 200 519 213 486 q 225 452 225 411 l 225 411 q 225 348 208 262 q 190 175 163 86 l 163 86 l 127 94 q 152 183 169 267 q 186 350 186 409 l 186 409 q 186 462 165 493 q 143 524 87 524 l 87 524 q 72 524 56 522 q 39 519 25 515 l 25 515 l 16 549 q 30 553 50 557 q 70 560 90 560 z"},"ൃ":{"ha":199,"x_min":-134,"x_max":196,"o":"m 17 -302 l 17 -302 q -28 -302 -62 -285 q -96 -268 -115 -238 q -134 -209 -134 -169 l -134 -169 q -134 -110 -92 -75 q -50 -41 11 -41 l 11 -41 q 66 -41 107 -62 q 148 -84 185 -120 l 185 -120 l 177 -154 q 135 -111 95 -93 q 54 -76 13 -76 l 13 -76 q -35 -76 -65 -100 q -95 -124 -95 -170 l -95 -170 q -95 -216 -65 -241 q -36 -267 17 -267 l 17 -267 q 58 -267 91 -251 q 123 -235 142 -203 q 160 -172 160 -125 l 160 -125 q 160 -91 154 -59 q 147 -27 134 10 q 121 47 100 93 l 100 93 q 75 150 62 197 q 49 244 49 298 l 49 298 q 49 365 69 425 q 88 485 123 548 l 123 548 l 166 548 q 138 500 121 460 q 104 419 96 380 q 88 341 88 299 l 88 299 q 88 241 102 198 q 116 154 137 104 l 137 104 q 158 56 171 18 q 184 -21 190 -55 q 196 -89 196 -125 l 196 -125 q 196 -184 172 -223 q 148 -262 108 -282 q 67 -302 17 -302 z"},"ൄ":{"ha":199,"x_min":-244,"x_max":196,"o":"m -31 -302 l -31 -302 q -93 -302 -141 -287 q -190 -272 -217 -239 q -244 -207 -244 -154 l -244 -154 q -244 -109 -218 -77 q -192 -46 -145 -46 l -145 -46 q -108 -46 -88 -66 q -69 -86 -61 -116 l -61 -116 l -67 -112 q -58 -82 -37 -64 q -17 -46 16 -46 l 16 -46 q 44 -46 62 -56 q 80 -67 90 -83 q 100 -100 105 -119 q 109 -138 109 -156 l 109 -156 l 109 -174 l 74 -174 l 74 -161 q 74 -126 61 -103 q 47 -80 15 -80 l 15 -80 q -19 -80 -33 -103 q -47 -126 -47 -162 l -47 -162 l -47 -174 l -82 -174 l -82 -162 q -82 -128 -95 -104 q -108 -80 -143 -80 l -143 -80 q -175 -80 -191 -100 q -208 -121 -208 -154 l -208 -154 q -208 -213 -163 -240 q -118 -267 -30 -267 l -30 -267 q 63 -267 110 -235 q 157 -203 157 -124 l 157 -124 q 157 -91 152 -59 q 146 -27 134 10 q 121 46 100 93 l 100 93 q 75 150 62 197 q 49 244 49 298 l 49 298 q 49 365 69 425 q 88 485 123 548 l 123 548 l 166 548 q 138 500 121 460 q 104 419 96 380 q 88 341 88 299 l 88 299 q 88 241 102 198 q 116 154 137 105 l 137 105 q 158 56 171 18 q 184 -20 190 -54 q 196 -89 196 -126 l 196 -126 q 196 -191 168 -229 q 139 -268 89 -285 q 38 -302 -31 -302 z"},"െ":{"ha":670,"x_min":44,"x_max":626,"o":"m 220 -12 l 220 -12 q 172 -12 132 12 q 92 36 68 89 q 44 141 44 226 l 44 226 q 44 305 69 367 q 93 428 136 471 q 179 514 234 537 q 289 560 349 560 l 349 560 q 417 560 469 539 q 521 517 556 480 q 591 442 609 390 q 626 338 626 277 l 626 277 q 626 204 606 151 q 585 98 551 60 q 516 21 475 -8 l 475 -8 l 453 21 q 489 47 520 82 q 550 116 568 164 q 586 211 586 276 l 586 276 q 586 345 561 402 q 535 458 483 491 q 430 524 348 524 l 348 524 q 276 524 215 487 q 154 450 118 383 q 81 316 81 226 l 81 226 q 81 157 98 112 q 115 66 147 45 q 178 23 220 23 l 220 23 q 250 23 274 36 q 298 48 313 76 q 327 104 327 151 l 327 151 q 327 203 299 238 q 270 272 212 272 l 212 272 q 167 272 127 250 q 87 227 63 200 l 63 200 l 55 233 q 89 270 132 289 q 174 307 216 307 l 216 307 q 257 307 291 290 q 325 272 346 238 q 366 203 366 152 l 366 152 q 366 97 347 61 q 327 24 294 6 q 261 -12 220 -12 z"},"േ":{"ha":550,"x_min":43,"x_max":512,"o":"m 342 -12 l 342 -12 q 282 -12 229 5 q 175 22 133 57 q 91 92 67 147 q 43 202 43 277 l 43 277 q 43 351 69 404 q 95 457 138 492 q 181 527 234 544 q 287 560 341 560 l 341 560 q 399 560 437 543 q 475 526 494 497 q 512 468 512 431 l 512 431 q 512 391 497 364 q 481 337 455 324 q 429 310 398 310 l 398 310 q 354 310 326 327 q 298 343 286 371 q 273 399 273 433 l 273 433 q 273 465 286 491 q 298 516 320 537 l 320 537 l 363 539 q 339 520 324 493 q 309 465 309 433 l 309 433 q 309 394 330 369 q 350 343 396 343 l 396 343 q 436 343 455 367 q 474 391 474 431 l 474 431 q 474 478 440 502 q 406 526 355 526 l 355 526 q 348 526 340 526 q 332 526 323 526 l 323 526 q 256 524 202 494 q 147 463 115 409 q 83 354 83 277 l 83 277 q 83 200 110 146 q 137 92 189 62 q 241 31 313 22 l 313 22 q 324 22 332 22 q 340 22 353 22 l 353 22 q 384 22 411 32 q 437 42 454 64 q 470 86 470 119 l 470 119 q 470 155 450 179 q 430 203 389 203 l 389 203 q 344 203 324 177 q 303 150 303 118 l 303 118 q 303 86 317 60 q 330 34 354 14 l 354 14 l 309 17 q 290 36 279 62 q 267 87 267 119 l 267 119 q 267 149 280 176 q 293 203 320 220 q 347 237 388 237 l 388 237 q 421 237 448 224 q 474 210 491 184 q 508 158 508 119 l 508 119 q 508 80 488 51 q 468 21 431 5 q 394 -12 342 -12 z"},"ൈ":{"ha":1341,"x_min":44,"x_max":1296,"o":"m 220 -12 l 220 -12 q 172 -12 132 12 q 92 36 68 89 q 44 141 44 226 l 44 226 q 44 305 69 367 q 93 428 136 471 q 179 514 234 537 q 289 560 349 560 l 349 560 q 417 560 469 539 q 521 517 556 480 q 591 442 609 390 q 626 338 626 277 l 626 277 q 626 204 606 151 q 585 98 551 60 q 516 21 475 -8 l 475 -8 l 453 21 q 489 47 520 82 q 550 116 568 164 q 586 211 586 276 l 586 276 q 586 345 561 402 q 535 458 483 491 q 430 524 348 524 l 348 524 q 276 524 215 487 q 154 450 118 383 q 81 316 81 226 l 81 226 q 81 157 98 112 q 115 66 147 45 q 178 23 220 23 l 220 23 q 250 23 274 36 q 298 48 313 76 q 327 104 327 151 l 327 151 q 327 203 299 238 q 270 272 212 272 l 212 272 q 167 272 127 250 q 87 227 63 200 l 63 200 l 55 233 q 89 270 132 289 q 174 307 216 307 l 216 307 q 257 307 291 290 q 325 272 346 238 q 366 203 366 152 l 366 152 q 366 97 347 61 q 327 24 294 6 q 261 -12 220 -12 z m 890 -12 l 890 -12 q 842 -12 802 12 q 762 36 738 89 q 714 141 714 226 l 714 226 q 714 305 739 367 q 763 428 806 471 q 849 514 904 537 q 959 560 1019 560 l 1019 560 q 1087 560 1139 539 q 1191 517 1226 480 q 1261 442 1279 390 q 1296 338 1296 277 l 1296 277 q 1296 204 1276 151 q 1255 98 1221 60 q 1186 21 1145 -8 l 1145 -8 l 1123 21 q 1159 47 1190 82 q 1220 116 1238 164 q 1256 211 1256 276 l 1256 276 q 1256 345 1231 402 q 1205 458 1153 491 q 1100 524 1018 524 l 1018 524 q 946 524 885 487 q 824 450 788 383 q 751 316 751 226 l 751 226 q 751 157 768 112 q 785 66 817 45 q 848 23 890 23 l 890 23 q 920 23 944 36 q 968 48 983 76 q 997 104 997 151 l 997 151 q 997 203 969 238 q 940 272 882 272 l 882 272 q 837 272 797 250 q 757 227 733 200 l 733 200 l 725 233 q 759 270 802 289 q 844 307 886 307 l 886 307 q 927 307 961 290 q 995 272 1016 238 q 1036 203 1036 152 l 1036 152 q 1036 97 1017 61 q 997 24 964 6 q 931 -12 890 -12 z"},"ൊ":{"ha":1277,"x_min":44,"x_max":1231,"o":"m 220 -12 l 220 -12 q 172 -12 132 12 q 92 36 68 89 q 44 141 44 226 l 44 226 q 44 305 69 367 q 93 428 136 471 q 179 514 234 537 q 289 560 349 560 l 349 560 q 417 560 469 539 q 521 517 556 480 q 591 442 609 390 q 626 338 626 277 l 626 277 q 626 204 606 151 q 585 98 551 60 q 516 21 475 -8 l 475 -8 l 453 21 q 489 47 520 82 q 550 116 568 164 q 586 211 586 276 l 586 276 q 586 345 561 402 q 535 458 483 491 q 430 524 348 524 l 348 524 q 276 524 215 487 q 154 450 118 383 q 81 316 81 226 l 81 226 q 81 157 98 112 q 115 66 147 45 q 178 23 220 23 l 220 23 q 250 23 274 36 q 298 48 313 76 q 327 104 327 151 l 327 151 q 327 203 299 238 q 270 272 212 272 l 212 272 q 167 272 127 250 q 87 227 63 200 l 63 200 l 55 233 q 89 270 132 289 q 174 307 216 307 l 216 307 q 257 307 291 290 q 325 272 346 238 q 366 203 366 152 l 366 152 q 366 97 347 61 q 327 24 294 6 q 261 -12 220 -12 z m 743 260 l 743 260 q 725 260 718 271 q 710 281 710 299 l 710 299 q 710 316 718 327 q 725 337 743 337 l 743 337 q 762 337 770 327 q 777 316 777 299 l 777 299 q 777 281 770 271 q 762 260 743 260 z m 1231 276 l 1231 276 q 1231 214 1220 161 q 1208 108 1184 70 q 1159 31 1120 10 q 1081 -12 1027 -12 l 1027 -12 q 984 -12 953 2 q 921 15 899 39 q 876 63 862 95 q 847 126 839 162 l 839 162 l 877 170 q 887 129 905 96 q 922 62 952 43 q 981 23 1026 23 l 1026 23 q 1086 23 1123 55 q 1159 87 1176 144 q 1192 201 1192 276 l 1192 276 q 1192 349 1175 405 q 1158 461 1123 493 q 1087 525 1032 525 l 1032 525 q 988 525 959 505 q 929 484 911 452 q 892 419 880 380 l 880 380 l 842 388 q 852 422 868 453 q 884 484 907 508 q 930 532 962 546 q 993 560 1033 560 l 1033 560 q 1086 560 1124 537 q 1162 513 1186 474 q 1209 434 1220 383 q 1231 332 1231 276 z"},"ോ":{"ha":1144,"x_min":44,"x_max":1098,"o":"m 343 -12 l 343 -12 q 283 -12 230 5 q 176 22 134 57 q 92 92 68 147 q 44 202 44 277 l 44 277 q 44 351 70 404 q 96 457 139 492 q 182 527 235 544 q 288 560 342 560 l 342 560 q 400 560 438 543 q 476 526 495 497 q 513 468 513 431 l 513 431 q 513 391 498 364 q 482 337 456 324 q 430 310 399 310 l 399 310 q 355 310 327 327 q 299 343 287 371 q 274 399 274 433 l 274 433 q 274 465 287 491 q 299 516 321 537 l 321 537 l 364 539 q 340 520 325 493 q 310 465 310 433 l 310 433 q 310 394 331 369 q 351 343 397 343 l 397 343 q 437 343 456 367 q 475 391 475 431 l 475 431 q 475 478 441 502 q 407 526 356 526 l 356 526 q 349 526 341 526 q 333 526 324 526 l 324 526 q 257 524 203 494 q 148 463 116 409 q 84 354 84 277 l 84 277 q 84 200 111 146 q 138 92 190 62 q 242 31 314 22 l 314 22 q 325 22 333 22 q 341 22 354 22 l 354 22 q 385 22 412 32 q 438 42 455 64 q 471 86 471 119 l 471 119 q 471 155 451 179 q 431 203 390 203 l 390 203 q 345 203 325 177 q 304 150 304 118 l 304 118 q 304 86 318 60 q 331 34 355 14 l 355 14 l 310 17 q 291 36 280 62 q 268 87 268 119 l 268 119 q 268 149 281 176 q 294 203 321 220 q 348 237 389 237 l 389 237 q 422 237 449 224 q 475 210 492 184 q 509 158 509 119 l 509 119 q 509 80 489 51 q 469 21 432 5 q 395 -12 343 -12 z m 610 260 l 610 260 q 592 260 585 271 q 577 281 577 299 l 577 299 q 577 316 585 327 q 592 337 610 337 l 610 337 q 629 337 637 327 q 644 316 644 299 l 644 299 q 644 281 637 271 q 629 260 610 260 z m 1098 276 l 1098 276 q 1098 214 1087 161 q 1075 108 1051 70 q 1026 31 987 10 q 948 -12 894 -12 l 894 -12 q 851 -12 820 2 q 788 15 766 39 q 743 63 729 95 q 714 126 706 162 l 706 162 l 744 170 q 754 129 772 96 q 789 62 819 43 q 848 23 893 23 l 893 23 q 953 23 990 55 q 1026 87 1043 144 q 1059 201 1059 276 l 1059 276 q 1059 349 1042 405 q 1025 461 990 493 q 954 525 899 525 l 899 525 q 855 525 826 505 q 796 484 778 452 q 759 419 747 380 l 747 380 l 709 388 q 719 422 735 453 q 751 484 774 508 q 797 532 829 546 q 860 560 900 560 l 900 560 q 953 560 991 537 q 1029 513 1053 474 q 1076 434 1087 383 q 1098 332 1098 276 z"},"ൌ":{"ha":1532,"x_min":44,"x_max":1486,"o":"m 220 -12 l 220 -12 q 172 -12 132 12 q 92 36 68 89 q 44 141 44 226 l 44 226 q 44 305 69 367 q 93 428 136 471 q 179 514 234 537 q 289 560 349 560 l 349 560 q 417 560 469 539 q 521 517 556 480 q 591 442 609 390 q 626 338 626 277 l 626 277 q 626 204 606 151 q 585 98 551 60 q 516 21 475 -8 l 475 -8 l 453 21 q 489 47 520 82 q 550 116 568 164 q 586 211 586 276 l 586 276 q 586 345 561 402 q 535 458 483 491 q 430 524 348 524 l 348 524 q 276 524 215 487 q 154 450 118 383 q 81 316 81 226 l 81 226 q 81 157 98 112 q 115 66 147 45 q 178 23 220 23 l 220 23 q 250 23 274 36 q 298 48 313 76 q 327 104 327 151 l 327 151 q 327 203 299 238 q 270 272 212 272 l 212 272 q 167 272 127 250 q 87 227 63 200 l 63 200 l 55 233 q 89 270 132 289 q 174 307 216 307 l 216 307 q 257 307 291 290 q 325 272 346 238 q 366 203 366 152 l 366 152 q 366 97 347 61 q 327 24 294 6 q 261 -12 220 -12 z m 743 260 l 743 260 q 725 260 718 271 q 710 281 710 299 l 710 299 q 710 316 718 327 q 725 337 743 337 l 743 337 q 762 337 770 327 q 777 316 777 299 l 777 299 q 777 281 770 271 q 762 260 743 260 z m 1306 560 l 1306 560 q 1365 560 1405 528 q 1444 495 1465 438 q 1486 380 1486 301 l 1486 301 q 1486 198 1459 128 q 1431 58 1376 23 q 1321 -12 1237 -12 l 1237 -12 q 1176 -12 1132 0 q 1088 12 1044 34 l 1044 34 l 1064 66 q 1106 44 1146 34 q 1185 23 1236 23 l 1236 23 q 1316 23 1362 58 q 1408 92 1428 154 q 1447 216 1447 301 l 1447 301 q 1447 414 1409 469 q 1371 524 1306 524 l 1306 524 q 1275 524 1254 514 q 1233 504 1219 487 l 1219 487 q 1199 462 1192 424 q 1185 386 1185 339 l 1185 339 l 1185 255 l 1147 255 l 1147 337 q 1147 394 1138 431 q 1128 468 1108 490 l 1108 490 q 1093 507 1072 516 q 1051 524 1024 524 l 1024 524 q 962 524 930 482 q 898 439 898 375 l 898 375 q 898 344 903 317 q 907 289 916 258 l 916 258 l 880 251 q 870 280 865 314 q 859 347 859 377 l 859 377 q 859 428 878 470 q 897 511 934 536 q 970 560 1024 560 l 1024 560 q 1079 560 1117 530 q 1154 499 1170 428 l 1170 428 l 1160 425 q 1172 497 1212 529 q 1252 560 1306 560 z"},"്":{"ha":0,"x_min":-263,"x_max":56,"o":"m -107 599 l -107 599 q -155 599 -190 617 q -225 634 -244 668 q -263 701 -263 751 l -263 751 q -263 763 -261 779 q -260 795 -256 808 l -256 808 l -221 801 q -224 789 -225 777 q -227 764 -227 752 l -227 752 q -227 706 -211 681 q -195 655 -168 645 q -141 634 -107 634 l -107 634 q -71 634 -43 645 q -15 655 2 681 q 19 706 19 750 l 19 750 q 19 764 17 777 q 15 789 12 801 l 12 801 l 47 808 q 50 796 53 780 q 56 764 56 750 l 56 750 q 56 701 35 667 q 14 633 -22 616 q -59 599 -107 599 z"},"ൎ":{"ha":0,"x_min":-304,"x_max":-256,"o":"m -304 799 l -256 799 l -262 625 l -298 625 l -304 799 z"},"൏":{"ha":1172,"x_min":51,"x_max":1124,"o":"m 543 560 l 543 560 q 630 560 679 521 q 727 482 747 417 l 747 417 l 740 417 q 757 485 799 523 q 840 560 912 560 l 912 560 q 984 560 1031 519 q 1078 477 1101 406 q 1124 334 1124 242 l 1124 242 q 1124 88 1070 -16 q 1015 -120 897 -172 q 779 -224 588 -224 l 588 -224 q 459 -224 367 -198 q 274 -172 213 -127 q 152 -82 117 -23 q 81 35 66 100 q 51 165 51 231 l 51 231 q 51 310 71 382 q 91 453 127 527 l 127 527 l 162 512 q 127 443 109 372 q 90 301 90 232 l 90 232 q 90 174 102 115 q 114 56 145 2 q 176 -53 233 -96 q 289 -139 377 -163 q 465 -188 592 -188 l 592 -188 q 721 -188 815 -162 q 908 -136 968 -83 q 1028 -31 1057 50 q 1085 130 1085 240 l 1085 240 q 1085 318 1068 383 q 1050 447 1012 486 q 974 524 915 524 l 915 524 q 877 524 853 514 q 828 504 810 485 l 810 485 q 783 458 773 415 q 763 371 763 306 l 763 306 l 763 0 l 724 0 l 724 311 q 724 384 707 425 q 689 465 659 489 l 659 489 q 636 508 609 516 q 582 524 542 524 l 542 524 q 464 524 408 486 q 351 448 321 383 q 291 317 291 233 l 291 233 l 291 226 q 291 157 308 112 q 325 67 357 45 q 388 23 430 23 l 430 23 q 460 23 484 36 q 508 48 523 76 q 537 104 537 151 l 537 151 q 537 203 509 238 q 480 272 422 272 l 422 272 q 377 272 337 250 q 297 227 273 200 l 273 200 l 266 233 q 300 270 342 289 q 384 307 426 307 l 426 307 q 467 307 501 290 q 535 272 556 238 q 576 203 576 152 l 576 152 q 576 97 557 61 q 537 24 504 6 q 471 -12 430 -12 l 430 -12 q 382 -12 342 12 q 302 36 278 89 q 254 142 254 228 l 254 228 q 254 329 290 403 q 326 477 392 519 q 457 560 543 560 z"},"ൔ":{"ha":600,"x_min":64,"x_max":589,"o":"m 154 792 l 154 792 q 184 792 206 785 q 228 777 244 765 l 244 765 q 267 746 277 718 q 287 690 287 641 l 287 641 l 287 498 q 287 443 294 399 q 300 354 317 315 q 334 275 369 233 l 369 233 l 380 222 q 414 184 465 139 q 516 93 589 34 l 589 34 l 572 0 l 64 0 l 64 250 q 64 298 70 339 q 76 379 90 414 q 103 449 126 479 l 126 479 q 154 514 197 537 q 239 560 293 560 l 293 560 q 353 560 391 535 q 428 509 446 471 q 463 432 463 391 l 463 391 q 463 343 442 297 q 420 251 381 208 l 381 208 l 372 198 q 344 168 310 138 q 275 107 236 78 q 196 49 155 19 l 155 19 l 152 31 q 181 33 212 34 q 242 35 284 35 l 284 35 l 459 35 q 479 35 498 35 q 517 35 535 35 q 553 34 567 32 l 567 32 l 544 29 q 485 76 438 117 q 391 158 354 197 l 354 197 l 345 207 q 309 252 288 294 q 267 336 259 383 q 250 430 250 488 l 250 488 l 250 635 q 250 679 243 702 q 235 724 217 738 l 217 738 q 206 746 190 752 q 174 757 152 757 l 152 757 q 130 757 112 754 q 93 751 77 746 l 77 746 l 67 780 q 86 785 109 789 q 132 792 154 792 z m 102 239 l 102 35 l 117 35 q 166 70 209 102 q 251 134 286 165 q 321 196 348 225 l 348 225 l 356 233 q 388 271 406 310 q 423 349 423 390 l 423 390 q 423 426 410 457 q 396 487 367 506 q 337 525 289 525 l 289 525 q 244 525 209 505 q 174 484 153 454 l 153 454 q 136 429 125 399 q 113 368 108 329 q 102 290 102 239 l 102 239 z"},"ൕ":{"ha":969,"x_min":44,"x_max":931,"o":"m 647 -12 l 647 -12 q 615 -12 587 -8 q 558 -4 534 4 q 509 12 486 25 l 486 25 q 483 27 479 29 q 474 31 472 33 l 472 33 q 421 64 386 110 q 350 155 332 213 q 314 270 314 335 l 314 335 q 314 378 324 417 q 334 455 355 484 l 355 484 l 360 492 q 375 513 396 529 q 416 544 442 552 q 467 560 496 560 l 496 560 q 583 560 632 500 q 680 440 680 335 l 680 335 q 680 267 662 210 q 643 152 608 108 q 573 64 523 35 l 523 35 q 519 33 515 31 q 511 28 507 25 l 507 25 q 473 7 435 -2 q 397 -12 347 -12 l 347 -12 q 274 -12 218 14 q 161 40 123 87 q 84 134 64 196 q 44 258 44 331 l 44 331 q 44 406 71 457 q 98 507 142 534 q 186 560 238 560 l 238 560 q 295 560 330 538 q 365 516 388 489 l 388 489 l 363 463 q 342 488 313 507 q 284 525 239 525 l 239 525 q 197 525 162 504 q 127 483 105 440 q 83 397 83 329 l 83 329 q 83 245 113 176 q 143 106 202 65 q 261 23 349 23 l 349 23 q 387 23 416 28 q 444 33 469 44 l 469 44 q 475 46 480 49 q 484 51 489 53 l 489 53 q 538 77 572 119 q 605 160 623 216 q 641 271 641 334 l 641 334 q 641 402 622 444 q 603 486 570 506 q 537 525 496 525 l 496 525 q 452 525 420 501 q 387 477 370 434 q 353 391 353 333 l 353 333 q 353 274 371 219 q 388 164 422 121 q 455 78 503 53 l 503 53 q 508 51 512 50 q 516 48 521 45 l 521 45 q 545 35 576 29 q 606 23 645 23 l 645 23 q 737 23 790 54 q 842 84 864 136 q 886 188 886 250 l 886 250 q 886 294 874 333 q 862 371 841 408 q 819 445 790 482 l 790 482 q 761 521 741 551 q 721 581 711 608 q 700 635 700 665 l 700 665 q 700 694 714 724 q 727 753 758 773 q 788 792 838 792 l 838 792 q 862 792 887 788 q 911 784 931 777 l 931 777 l 920 743 q 901 750 881 754 q 861 757 840 757 l 840 757 q 787 757 764 729 q 740 700 740 662 l 740 662 q 740 639 749 617 q 757 594 776 567 q 795 540 823 501 l 823 501 q 853 464 876 425 q 898 386 912 344 q 925 301 925 252 l 925 252 q 925 206 915 166 q 904 125 884 93 q 863 60 830 37 q 797 13 752 1 q 707 -12 647 -12 z"},"ൖ":{"ha":638,"x_min":41,"x_max":597,"o":"m 147 151 l 147 151 q 147 118 158 89 q 168 60 196 42 q 223 23 275 23 l 275 23 q 332 23 355 49 q 378 75 378 115 l 378 115 q 378 154 365 188 q 352 222 336 256 q 319 290 306 327 q 293 364 293 409 l 293 409 q 293 450 311 484 q 328 518 362 539 q 396 560 445 560 l 445 560 q 500 560 533 537 q 566 513 582 477 q 597 440 597 398 l 597 398 q 597 333 567 280 q 536 227 476 196 q 415 165 326 165 l 326 165 l 316 165 q 264 165 222 175 q 179 185 144 206 l 144 206 l 129 214 q 100 234 81 261 q 62 288 52 323 q 41 358 41 399 l 41 399 q 41 441 53 481 q 64 520 88 559 l 88 559 l 120 541 q 98 504 89 470 q 80 436 80 400 l 80 400 q 80 349 96 312 q 111 275 140 250 l 140 250 l 152 242 q 182 221 224 211 q 265 200 315 200 l 315 200 l 327 200 q 408 200 459 227 q 510 254 534 300 q 558 345 558 399 l 558 399 q 558 453 532 489 q 506 525 445 525 l 445 525 q 406 525 381 509 q 356 492 344 466 q 331 440 331 409 l 331 409 q 331 368 344 331 q 357 294 374 259 q 391 224 404 189 q 417 154 417 116 l 417 116 q 417 94 410 71 q 403 48 388 30 q 372 11 344 0 q 316 -12 273 -12 l 273 -12 q 218 -12 182 9 q 145 29 127 67 q 109 104 109 154 l 109 154 q 109 195 123 237 q 137 279 162 328 q 187 376 218 433 l 218 433 q 253 496 271 536 q 289 576 296 604 q 302 632 302 660 l 302 660 q 302 704 279 731 q 256 757 204 757 l 204 757 q 178 757 158 754 q 137 751 120 746 l 120 746 l 111 780 q 128 785 154 789 q 179 792 206 792 l 206 792 q 255 792 285 774 q 314 755 328 726 q 341 696 341 663 l 341 663 q 341 639 337 616 q 333 592 324 564 q 314 536 297 501 q 279 465 250 415 l 250 415 q 225 370 206 334 q 186 298 173 267 q 160 235 154 207 q 147 179 147 151 z"},"ൗ":{"ha":714,"x_min":41,"x_max":668,"o":"m 488 560 l 488 560 q 547 560 587 528 q 626 495 647 438 q 668 380 668 301 l 668 301 q 668 198 641 128 q 613 58 558 23 q 503 -12 419 -12 l 419 -12 q 358 -12 314 0 q 270 12 226 34 l 226 34 l 246 66 q 288 44 328 34 q 367 23 418 23 l 418 23 q 498 23 544 58 q 590 92 610 154 q 629 216 629 301 l 629 301 q 629 414 591 469 q 553 524 488 524 l 488 524 q 457 524 436 514 q 415 504 401 487 l 401 487 q 381 462 374 424 q 367 386 367 339 l 367 339 l 367 255 l 329 255 l 329 337 q 329 394 320 431 q 310 468 290 490 l 290 490 q 275 507 254 516 q 233 524 206 524 l 206 524 q 144 524 112 482 q 80 439 80 375 l 80 375 q 80 344 85 317 q 89 289 98 258 l 98 258 l 62 251 q 52 280 47 314 q 41 347 41 377 l 41 377 q 41 428 60 470 q 79 511 116 536 q 152 560 206 560 l 206 560 q 261 560 299 530 q 336 499 352 428 l 352 428 l 342 425 q 354 497 394 529 q 434 560 488 560 z"},"൘":{"ha":1152,"x_min":44,"x_max":1103,"o":"m 577 -12 l 577 -12 q 506 -12 466 29 q 425 69 411 132 l 411 132 l 417 131 q 402 63 362 26 q 321 -12 254 -12 l 254 -12 q 190 -12 143 22 q 96 55 70 116 q 44 177 44 259 l 44 259 q 44 333 63 387 q 82 440 115 480 q 148 520 189 554 l 189 554 l 213 525 q 176 494 147 459 q 117 423 100 375 q 83 327 83 259 l 83 259 q 83 194 103 141 q 122 87 160 55 q 198 23 255 23 l 255 23 q 285 23 309 34 q 332 44 349 63 l 349 63 q 375 91 385 135 q 395 178 395 240 l 395 240 l 395 548 l 434 548 l 434 233 q 434 174 443 136 q 451 97 473 70 l 473 70 q 489 49 515 36 q 541 23 575 23 l 575 23 q 612 23 638 36 q 663 49 679 69 l 679 69 q 699 96 708 133 q 716 170 716 232 l 716 232 l 716 548 l 754 548 l 754 240 l 739 131 q 729 64 687 26 q 645 -12 577 -12 z m 899 -12 l 899 -12 q 831 -12 790 26 q 749 63 731 131 l 731 131 l 728 227 l 728 538 l 754 538 l 754 233 q 754 173 764 132 q 774 90 802 62 l 802 62 q 819 44 843 34 q 866 23 898 23 l 898 23 q 953 23 990 57 q 1026 91 1045 156 q 1063 221 1063 314 l 1063 314 q 1063 417 1040 498 q 1016 578 973 637 q 930 695 872 733 q 813 770 743 789 q 673 807 594 807 l 594 807 q 524 807 463 800 q 401 792 354 781 l 354 781 l 348 816 q 381 824 419 830 q 457 836 502 840 q 546 843 595 843 l 595 843 q 679 843 755 823 q 830 803 894 763 q 957 722 1004 659 q 1051 596 1077 510 q 1103 424 1103 314 l 1103 314 q 1103 211 1080 138 q 1056 65 1011 27 q 965 -12 899 -12 z"},"൙":{"ha":1035,"x_min":44,"x_max":1013,"o":"m 339 560 l 339 560 q 416 560 474 536 q 531 511 569 467 q 606 423 625 364 q 644 305 644 236 l 644 236 q 644 145 621 91 q 597 36 555 12 q 512 -12 456 -12 l 456 -12 q 401 -12 366 11 q 331 33 314 69 q 297 104 297 144 l 297 144 q 297 181 310 209 q 323 236 346 255 l 346 255 q 369 275 398 287 q 427 298 468 303 q 508 308 562 308 l 562 308 l 588 308 l 588 273 l 562 273 q 495 273 448 265 q 400 256 372 230 l 372 230 q 354 215 345 193 q 336 171 336 144 l 336 144 q 336 88 368 56 q 399 23 456 23 l 456 23 q 507 23 540 45 q 573 67 589 114 q 605 161 605 237 l 605 237 q 605 252 605 263 q 604 274 602 285 l 602 285 l 601 296 q 592 365 560 417 q 528 468 473 496 q 418 524 339 524 l 339 524 q 269 524 211 496 q 153 468 118 413 q 83 358 83 275 l 83 275 q 83 216 99 170 q 114 124 144 88 q 173 52 215 23 l 215 23 l 193 -7 q 155 19 121 57 q 86 95 65 149 q 44 202 44 275 l 44 275 q 44 331 62 383 q 80 434 117 474 q 154 513 210 537 q 265 560 339 560 z m 875 548 l 875 548 q 923 548 953 529 q 983 509 998 479 q 1013 449 1013 414 l 1013 414 q 1013 382 1003 357 q 993 332 974 315 l 974 315 q 957 299 935 290 q 913 280 886 277 q 859 273 827 273 l 827 273 l 577 273 l 577 308 l 825 308 q 871 308 898 315 q 924 321 941 335 l 941 335 q 957 348 966 367 q 974 385 974 413 l 974 413 q 974 457 949 485 q 924 513 876 513 l 876 513 q 822 513 794 482 q 766 450 766 398 l 766 398 q 766 364 776 338 q 786 311 801 287 l 801 287 l 762 282 q 747 310 738 338 q 728 366 728 402 l 728 402 q 728 448 748 481 q 767 513 801 531 q 834 548 875 548 z"},"൚":{"ha":1019,"x_min":44,"x_max":955,"o":"m 687 560 l 687 560 q 744 560 788 547 q 831 533 863 507 l 863 507 q 894 483 914 448 q 934 413 945 365 q 955 317 955 252 l 955 252 l 955 0 l 459 0 l 459 35 q 539 94 603 156 q 667 218 705 281 q 743 344 743 403 l 743 403 q 743 432 733 459 q 723 485 701 503 q 678 520 639 520 l 639 520 q 598 520 566 505 q 534 489 510 462 l 510 462 q 475 424 462 374 q 449 323 449 251 l 449 251 l 449 230 l 410 230 l 410 308 q 410 371 400 414 q 390 457 363 484 l 363 484 q 345 503 322 514 q 298 524 263 524 l 263 524 q 203 524 163 492 q 123 460 103 407 q 83 353 83 289 l 83 289 q 83 222 100 173 q 117 124 147 89 q 176 53 213 23 l 213 23 l 189 -6 q 148 28 115 68 q 82 108 63 161 q 44 214 44 289 l 44 289 q 44 371 71 432 q 98 492 147 526 q 196 560 263 560 l 263 560 q 326 560 362 534 q 398 507 416 467 q 434 427 441 385 l 441 385 l 430 383 q 446 449 485 488 q 523 526 576 543 q 628 560 687 560 z m 782 403 l 782 403 q 782 338 745 274 q 708 210 644 146 q 579 82 495 16 l 495 16 l 497 32 q 530 34 575 35 q 619 35 659 35 l 659 35 l 917 35 l 917 251 q 917 334 896 395 q 874 455 826 490 q 778 525 697 527 l 697 527 l 694 534 q 745 516 764 481 q 782 445 782 403 z"},"൛":{"ha":908,"x_min":77,"x_max":864,"o":"m 588 -12 l 588 -12 q 524 -12 474 9 q 424 30 390 68 q 356 106 339 158 q 321 209 321 270 l 321 270 q 321 340 340 389 q 358 437 386 470 q 413 503 439 525 l 439 525 l 439 513 l 116 513 l 116 0 l 77 0 l 77 548 l 469 548 l 484 519 q 454 497 426 464 q 397 431 379 384 q 360 337 360 272 l 360 272 q 360 203 386 147 q 411 90 462 57 q 513 23 591 23 l 591 23 q 669 23 721 57 q 772 91 798 148 q 824 205 824 272 l 824 272 q 824 332 809 378 q 794 424 765 460 q 736 496 693 525 l 693 525 l 715 554 q 754 529 788 491 q 821 453 843 400 q 864 346 864 272 l 864 272 q 864 211 846 160 q 827 108 792 69 q 756 30 705 9 q 653 -12 588 -12 z"},"൜":{"ha":1434,"x_min":44,"x_max":1390,"o":"m 867 560 l 867 560 q 909 560 939 547 q 969 533 990 508 l 990 508 q 1007 487 1017 462 q 1027 437 1032 399 q 1037 360 1037 302 l 1037 302 l 1037 272 q 1037 197 1044 149 q 1051 101 1074 69 l 1074 69 q 1090 48 1115 36 q 1140 23 1183 23 l 1183 23 q 1233 23 1271 51 q 1309 78 1330 130 q 1350 182 1350 259 l 1350 259 q 1350 327 1334 376 q 1317 424 1288 461 q 1258 497 1220 527 l 1220 527 l 1243 556 q 1286 521 1319 481 q 1352 440 1371 387 q 1390 333 1390 259 l 1390 259 q 1390 175 1365 114 q 1340 53 1293 21 q 1246 -12 1182 -12 l 1182 -12 q 1136 -12 1104 2 q 1071 15 1049 41 l 1049 41 q 1030 64 1019 92 q 1007 120 1003 159 q 998 198 998 253 l 998 253 l 998 294 q 998 363 991 410 q 984 457 960 486 l 960 486 q 945 504 922 514 q 899 524 867 524 l 867 524 q 836 524 813 515 q 790 505 775 486 l 775 486 q 751 457 744 410 q 736 362 736 291 l 736 291 l 736 246 q 736 189 731 150 q 726 110 715 83 q 703 55 684 34 l 684 34 q 663 13 634 1 q 604 -12 567 -12 l 567 -12 q 524 -12 495 2 q 465 15 444 39 l 444 39 q 427 60 417 86 q 406 112 402 150 q 397 188 397 246 l 397 246 l 397 275 q 397 351 391 399 q 384 447 359 478 l 359 478 q 343 500 318 512 q 293 524 250 524 l 250 524 q 201 524 164 497 q 126 470 105 418 q 83 366 83 289 l 83 289 q 83 222 100 173 q 116 124 146 88 q 176 51 214 21 l 214 21 l 191 -9 q 148 27 115 68 q 81 108 63 162 q 44 216 44 289 l 44 289 q 44 373 69 434 q 94 495 141 528 q 187 560 252 560 l 252 560 q 298 560 331 546 q 363 532 384 507 l 384 507 q 404 484 415 456 q 426 428 431 390 q 435 351 435 294 l 435 294 l 435 253 q 435 184 443 138 q 450 92 474 62 l 474 62 q 489 43 512 33 q 535 23 566 23 l 566 23 q 597 23 620 33 q 643 43 658 62 l 658 62 q 683 91 690 138 q 697 185 697 254 l 697 254 l 697 302 q 697 360 702 400 q 707 439 719 466 q 730 493 750 514 l 750 514 q 770 536 800 548 q 829 560 867 560 z"},"൝":{"ha":1924,"x_min":10,"x_max":1880,"o":"m 756 560 l 756 560 q 799 560 829 547 q 858 533 879 508 l 879 508 q 896 487 907 462 q 917 437 922 399 q 926 360 926 302 l 926 302 l 926 253 q 926 184 934 138 q 941 92 964 62 l 964 62 q 979 43 1002 33 q 1025 23 1057 23 l 1057 23 q 1088 23 1111 33 q 1134 43 1149 62 l 1149 62 q 1173 91 1181 138 q 1188 185 1188 254 l 1188 254 l 1188 302 q 1188 360 1193 400 q 1198 439 1210 466 q 1221 493 1240 514 l 1240 514 q 1261 536 1291 548 q 1320 560 1357 560 l 1357 560 q 1400 560 1430 547 q 1460 533 1480 508 l 1480 508 q 1497 487 1508 462 q 1518 437 1523 399 q 1527 360 1527 302 l 1527 302 l 1527 272 q 1527 197 1534 149 q 1541 101 1564 69 l 1564 69 q 1581 48 1606 36 q 1631 23 1674 23 l 1674 23 q 1724 23 1762 51 q 1799 78 1820 130 q 1841 182 1841 259 l 1841 259 q 1841 327 1824 376 q 1807 424 1778 461 q 1749 497 1710 527 l 1710 527 l 1733 556 q 1776 521 1810 481 q 1843 440 1862 387 q 1880 333 1880 259 l 1880 259 q 1880 175 1855 114 q 1830 53 1784 21 q 1737 -12 1672 -12 l 1672 -12 q 1626 -12 1594 2 q 1561 15 1540 41 l 1540 41 q 1520 64 1509 92 q 1498 120 1494 159 q 1489 198 1489 253 l 1489 253 l 1489 294 q 1489 363 1482 410 q 1475 457 1450 486 l 1450 486 q 1435 504 1413 514 q 1390 524 1358 524 l 1358 524 q 1327 524 1304 515 q 1281 505 1266 486 l 1266 486 q 1241 457 1234 410 q 1226 362 1226 291 l 1226 291 l 1226 246 q 1226 189 1222 150 q 1217 110 1206 83 q 1194 55 1174 34 l 1174 34 q 1154 13 1125 1 q 1095 -12 1057 -12 l 1057 -12 q 1015 -12 986 2 q 956 15 934 39 l 934 39 q 917 60 907 86 q 897 112 892 150 q 887 188 887 246 l 887 246 l 887 294 q 887 363 880 410 q 873 457 849 486 l 849 486 q 834 504 811 514 q 788 524 757 524 l 757 524 q 725 524 702 515 q 679 505 664 486 l 664 486 q 640 457 633 410 q 625 362 625 291 l 625 291 l 625 235 q 625 157 613 114 q 601 70 574 39 l 574 39 q 551 14 520 1 q 489 -12 446 -12 l 446 -12 q 380 -12 339 27 q 297 65 285 135 l 285 135 l 295 132 q 285 88 263 56 q 241 23 206 6 q 171 -12 119 -12 l 119 -12 q 92 -12 64 -6 q 36 0 10 14 l 10 14 l 24 47 q 43 36 68 30 q 92 23 120 23 l 120 23 q 158 23 183 34 q 207 45 225 63 l 225 63 q 252 91 262 134 q 272 177 272 240 l 272 240 l 272 548 l 310 548 l 310 225 q 310 163 322 122 q 333 80 359 55 l 359 55 q 376 40 397 32 q 418 23 446 23 l 446 23 q 483 23 508 35 q 533 47 548 68 l 548 68 q 569 95 578 139 q 587 182 587 262 l 587 262 l 587 302 q 587 360 592 400 q 597 439 609 466 q 620 493 639 514 l 639 514 q 659 536 689 548 q 718 560 756 560 z"},"൞":{"ha":1272,"x_min":44,"x_max":1241,"o":"m 339 560 l 339 560 q 416 560 474 536 q 531 511 569 467 q 606 423 625 364 q 644 305 644 236 l 644 236 q 644 145 621 91 q 597 36 555 12 q 512 -12 456 -12 l 456 -12 q 401 -12 366 11 q 331 33 314 69 q 297 104 297 144 l 297 144 q 297 181 310 209 q 323 236 346 255 l 346 255 q 369 275 398 287 q 427 298 468 303 q 508 308 562 308 l 562 308 l 601 308 l 601 273 l 562 273 q 495 273 448 265 q 400 256 372 230 l 372 230 q 354 215 345 193 q 336 171 336 144 l 336 144 q 336 88 368 56 q 399 23 456 23 l 456 23 q 507 23 540 45 q 573 67 589 114 q 605 161 605 237 l 605 237 q 605 252 605 263 q 604 274 602 285 l 602 285 l 601 296 q 592 365 560 417 q 528 468 473 496 q 418 524 339 524 l 339 524 q 269 524 211 496 q 153 468 118 413 q 83 358 83 275 l 83 275 q 83 216 99 170 q 114 124 144 88 q 173 52 215 23 l 215 23 l 193 -7 q 155 19 121 57 q 86 95 65 149 q 44 202 44 275 l 44 275 q 44 331 62 383 q 80 434 117 474 q 154 513 210 537 q 265 560 339 560 z m 1071 217 l 1071 217 q 1018 217 980 239 q 942 261 921 300 q 900 339 900 387 l 900 387 q 900 432 917 468 q 934 503 963 528 l 963 528 l 963 513 l 750 513 l 762 524 q 787 497 799 467 q 811 437 811 411 l 811 411 q 811 352 784 322 q 756 292 712 283 q 667 273 616 273 l 616 273 l 587 273 l 587 308 l 614 308 q 656 308 693 314 q 729 320 752 342 q 774 364 774 411 l 774 411 q 774 439 762 465 q 749 490 727 514 l 727 514 l 740 548 l 979 548 l 995 520 q 966 491 953 460 q 939 429 939 390 l 939 390 q 939 327 975 290 q 1010 252 1071 252 l 1071 252 q 1113 252 1142 271 q 1171 290 1187 321 q 1202 352 1202 388 l 1202 388 q 1202 434 1185 467 q 1167 499 1131 527 l 1131 527 l 1154 555 q 1195 521 1218 484 q 1241 446 1241 387 l 1241 387 q 1241 341 1220 302 q 1198 263 1160 240 q 1122 217 1071 217 z"},"ൟ":{"ha":1245,"x_min":33,"x_max":1211,"o":"m 33 265 l 33 265 q 33 317 66 354 q 98 390 154 390 l 154 390 q 210 390 243 354 q 276 318 276 265 l 276 265 q 276 211 243 176 q 210 140 154 140 l 154 140 q 97 140 65 176 q 33 212 33 265 z m 69 266 l 69 266 q 69 226 91 200 q 112 174 154 174 l 154 174 q 197 174 219 200 q 240 226 240 266 l 240 266 q 240 305 219 331 q 197 356 154 356 l 154 356 q 113 356 91 331 q 69 305 69 266 z m 968 265 l 968 265 q 968 317 1001 354 q 1034 390 1089 390 l 1089 390 q 1145 390 1178 354 q 1211 318 1211 265 l 1211 265 q 1211 211 1178 176 q 1145 140 1089 140 l 1089 140 q 1033 140 1001 176 q 968 212 968 265 z m 1004 266 l 1004 266 q 1004 226 1026 200 q 1048 174 1089 174 l 1089 174 q 1132 174 1154 200 q 1175 226 1175 266 l 1175 266 q 1175 305 1154 331 q 1132 356 1089 356 l 1089 356 q 1048 356 1026 331 q 1004 305 1004 266 z m 617 560 l 617 560 q 692 560 749 536 q 806 512 845 470 q 883 427 903 369 q 922 311 922 243 l 922 243 q 922 152 898 96 q 874 40 832 14 q 790 -12 735 -12 l 735 -12 q 677 -12 640 15 q 602 42 584 88 q 565 134 565 189 l 565 189 q 565 284 615 335 q 664 385 741 385 l 741 385 q 787 385 821 366 q 854 346 877 315 q 900 284 913 247 l 913 247 l 898 236 q 887 263 866 289 q 845 315 815 333 q 785 350 745 350 l 745 350 q 674 350 639 307 q 604 264 604 191 l 604 191 q 604 144 617 106 q 630 68 659 46 q 688 23 737 23 l 737 23 q 783 23 816 46 q 849 69 867 118 q 884 167 884 245 l 884 245 q 884 254 884 263 q 883 272 882 279 l 882 279 q 882 284 883 290 q 883 296 881 300 l 881 300 q 873 358 844 409 q 814 460 759 492 q 704 524 617 524 l 617 524 q 547 524 489 496 q 431 468 396 413 q 361 358 361 275 l 361 275 q 361 216 377 170 q 392 124 422 88 q 451 52 493 23 l 493 23 l 471 -7 q 433 19 399 57 q 364 95 343 149 q 322 202 322 275 l 322 275 q 322 331 340 383 q 358 434 395 474 q 432 513 488 537 q 543 560 617 560 z"},"ൠ":{"ha":814,"x_min":40,"x_max":774,"o":"m 609 560 l 609 560 q 687 560 731 506 q 774 452 774 364 l 774 364 q 774 293 752 245 q 729 196 690 166 l 690 166 q 647 132 591 120 q 534 107 466 106 l 466 106 l 423 106 l 393 106 l 354 105 q 287 106 230 118 q 172 129 129 162 l 129 162 q 88 193 64 243 q 40 292 40 364 l 40 364 q 40 422 61 466 q 81 510 119 535 q 156 560 208 560 l 208 560 q 255 560 287 540 q 319 520 336 487 q 352 453 352 412 l 352 412 q 352 372 336 340 q 319 308 287 290 q 254 271 205 271 l 205 271 q 169 271 141 282 q 112 292 90 309 q 68 325 52 342 l 52 342 l 63 375 q 76 359 95 343 q 113 327 140 317 q 166 306 202 306 l 202 306 q 259 306 287 335 q 314 364 314 412 l 314 412 q 314 460 288 493 q 262 525 207 525 l 207 525 q 162 525 133 503 q 104 481 91 445 q 77 409 77 364 l 77 364 q 77 357 78 351 q 78 344 79 337 l 79 337 l 77 328 q 84 275 109 237 q 133 199 173 176 q 213 152 270 141 q 327 130 400 130 l 400 130 l 411 130 q 486 130 544 141 q 601 152 642 176 q 683 200 707 238 q 730 276 738 328 l 738 328 l 736 337 q 736 343 737 351 q 738 358 738 363 l 738 363 q 738 408 724 445 q 710 482 682 504 q 654 525 608 525 l 608 525 q 553 525 527 493 q 500 460 500 412 l 500 412 q 500 364 528 335 q 556 306 613 306 l 613 306 q 648 306 675 317 q 701 327 720 343 q 739 358 751 373 l 751 373 l 762 342 q 746 324 725 308 q 703 292 675 282 q 646 271 609 271 l 609 271 q 561 271 528 290 q 495 308 479 341 q 462 373 462 412 l 462 412 q 462 453 479 487 q 496 520 529 540 q 561 560 609 560 z m 406 -205 l 406 -205 q 287 -205 213 -187 q 139 -169 106 -132 q 72 -95 72 -39 l 72 -39 q 72 8 94 39 q 116 69 156 86 q 196 103 250 111 q 303 118 365 118 l 365 118 l 448 118 q 511 118 565 111 q 619 103 659 86 q 698 69 721 38 q 743 7 743 -39 l 743 -39 q 743 -93 710 -130 q 676 -168 603 -186 q 529 -205 406 -205 z m 407 -170 l 407 -170 q 520 -170 585 -155 q 649 -141 677 -111 q 704 -81 704 -38 l 704 -38 q 704 -2 686 24 q 668 49 632 65 q 595 81 540 89 q 484 96 409 96 l 409 96 l 402 96 q 303 96 238 82 q 173 68 142 39 q 111 9 111 -37 l 111 -37 q 111 -82 138 -111 q 165 -141 230 -155 q 295 -170 407 -170 z m 489 36 l 489 36 q 517 36 535 26 q 552 15 562 -1 q 572 -18 577 -36 q 581 -55 581 -73 l 581 -73 l 581 -101 l 546 -101 l 546 -77 q 546 -35 531 -16 q 516 2 486 2 l 486 2 q 455 2 440 -19 q 424 -40 424 -77 l 424 -77 l 424 -101 l 390 -101 l 390 -77 q 390 -41 375 -19 q 359 2 328 2 l 328 2 q 298 2 283 -17 q 268 -36 268 -77 l 268 -77 l 268 -101 l 233 -101 l 233 -73 q 233 -55 238 -36 q 242 -18 252 -1 q 262 15 280 26 q 298 36 325 36 l 325 36 q 357 36 377 21 q 396 5 407 -22 l 407 -22 q 417 3 437 20 q 457 36 489 36 z"},"ൡ":{"ha":1244,"x_min":47,"x_max":1213,"o":"m 336 560 l 336 560 q 423 560 474 519 q 525 478 543 403 l 543 403 l 546 372 l 555 269 l 555 0 l 517 0 l 517 311 q 517 384 500 425 q 482 465 452 489 l 452 489 q 428 508 402 516 q 375 524 335 524 l 335 524 q 257 524 201 486 q 144 448 114 383 q 84 317 84 233 l 84 233 l 84 226 q 84 157 101 112 q 118 67 150 45 q 181 23 223 23 l 223 23 q 253 23 277 36 q 301 48 316 76 q 330 104 330 151 l 330 151 q 330 203 302 238 q 273 272 215 272 l 215 272 q 169 272 130 250 q 90 227 66 200 l 66 200 l 58 233 q 92 270 135 289 q 177 307 219 307 l 219 307 q 260 307 294 290 q 328 272 349 238 q 369 203 369 152 l 369 152 q 369 97 350 61 q 330 24 297 6 q 264 -12 222 -12 l 222 -12 q 174 -12 135 12 q 95 36 71 89 q 47 142 47 228 l 47 228 q 47 329 83 403 q 119 477 184 519 q 249 560 336 560 z m 756 560 l 756 560 q 833 560 889 531 q 945 502 980 451 q 1015 399 1029 331 l 1029 331 q 1035 306 1038 279 q 1040 251 1040 222 l 1040 222 q 1040 141 1015 90 q 990 38 948 13 q 906 -12 854 -12 l 854 -12 q 793 -12 757 14 q 720 40 704 81 q 688 122 688 164 l 688 164 q 688 259 753 311 q 818 362 930 362 l 930 362 q 946 362 962 361 q 978 359 993 356 l 993 356 l 1011 354 q 1081 338 1126 298 q 1170 257 1192 201 q 1213 144 1213 82 l 1213 82 q 1213 14 1194 -38 q 1174 -91 1137 -127 q 1100 -163 1049 -182 q 997 -201 932 -201 l 932 -201 q 880 -201 838 -192 q 796 -184 766 -172 l 766 -172 l 780 -139 q 809 -151 848 -158 q 887 -165 932 -165 l 932 -165 q 993 -165 1038 -148 q 1083 -131 1114 -98 q 1144 -65 1159 -19 q 1174 26 1174 82 l 1174 82 q 1174 143 1156 190 q 1138 236 1104 268 q 1069 300 1020 316 l 1020 316 l 1003 319 q 986 323 968 325 q 949 327 929 327 l 929 327 q 870 327 825 311 q 779 294 753 258 q 727 222 727 162 l 727 162 q 727 130 738 99 q 749 67 777 45 q 805 23 854 23 l 854 23 q 928 23 965 77 q 1001 131 1001 223 l 1001 223 q 1001 250 998 278 q 995 305 989 333 l 989 333 l 986 347 q 973 395 946 435 q 918 475 872 500 q 826 524 756 524 l 756 524 q 715 524 680 513 q 645 501 619 478 l 619 478 q 598 460 584 436 q 569 411 562 376 q 555 341 555 291 l 555 291 l 555 198 l 529 370 q 537 426 567 469 q 596 512 644 536 q 692 560 756 560 z"},"ൢ":{"ha":0,"x_min":-743,"x_max":-40,"o":"m -541 5 l -541 5 q -471 5 -437 -26 q -403 -58 -388 -109 l -388 -109 l -378 -177 l -378 -332 l -414 -332 l -414 -172 q -414 -125 -424 -98 q -434 -71 -451 -56 l -451 -56 q -468 -40 -491 -33 q -515 -27 -541 -27 l -541 -27 q -586 -27 -621 -43 q -657 -59 -678 -87 q -700 -115 -706 -154 l -706 -154 q -707 -161 -708 -168 q -709 -176 -709 -184 l -709 -184 q -709 -242 -686 -273 q -663 -304 -622 -304 l -622 -304 q -581 -304 -562 -281 q -544 -258 -544 -223 l -544 -223 q -544 -184 -565 -164 q -587 -144 -622 -144 l -622 -144 q -651 -144 -676 -156 q -702 -168 -725 -194 l -725 -194 l -733 -169 q -714 -145 -684 -128 q -655 -112 -620 -112 l -620 -112 q -570 -112 -539 -142 q -508 -172 -508 -223 l -508 -223 q -508 -270 -537 -303 q -566 -337 -622 -337 l -622 -337 q -682 -337 -712 -292 q -743 -247 -743 -180 l -743 -180 q -743 -126 -717 -84 q -692 -43 -646 -19 q -601 5 -541 5 z m -239 4 l -239 4 q -167 4 -123 -23 q -79 -51 -59 -94 q -40 -137 -40 -183 l -40 -183 q -40 -267 -75 -302 q -110 -337 -163 -337 l -163 -337 q -205 -337 -231 -320 q -258 -304 -271 -276 q -284 -249 -284 -215 l -284 -215 q -284 -177 -268 -151 q -253 -125 -226 -111 q -200 -98 -167 -98 l -167 -98 q -128 -98 -103 -114 q -79 -130 -65 -152 q -52 -175 -49 -195 l -49 -195 l -60 -204 q -67 -177 -93 -153 q -120 -130 -162 -130 l -162 -130 q -205 -130 -226 -153 q -248 -177 -248 -216 l -248 -216 q -248 -253 -229 -278 q -210 -304 -163 -304 l -163 -304 q -121 -304 -97 -276 q -74 -248 -74 -184 l -74 -184 q -74 -179 -75 -171 q -76 -164 -77 -156 l -77 -156 l -77 -148 q -81 -118 -99 -90 q -117 -63 -151 -45 q -186 -27 -240 -27 l -240 -27 q -269 -27 -290 -34 q -312 -41 -329 -55 l -329 -55 q -355 -77 -366 -112 q -378 -147 -378 -198 l -378 -198 l -406 -148 q -403 -108 -385 -73 q -368 -39 -331 -17 q -295 4 -239 4 z"},"ൣ":{"ha":0,"x_min":-743,"x_max":75,"o":"m -541 5 l -541 5 q -471 5 -437 -26 q -403 -58 -388 -109 l -388 -109 l -378 -177 l -378 -332 l -414 -332 l -414 -172 q -414 -125 -424 -98 q -434 -71 -451 -56 l -451 -56 q -468 -40 -491 -33 q -515 -27 -541 -27 l -541 -27 q -586 -27 -621 -43 q -657 -59 -678 -87 q -700 -115 -706 -154 l -706 -154 q -707 -161 -708 -168 q -709 -176 -709 -184 l -709 -184 q -709 -242 -686 -273 q -663 -304 -622 -304 l -622 -304 q -581 -304 -562 -281 q -544 -258 -544 -223 l -544 -223 q -544 -184 -565 -164 q -587 -144 -622 -144 l -622 -144 q -651 -144 -676 -156 q -702 -168 -725 -194 l -725 -194 l -733 -169 q -714 -145 -684 -128 q -655 -112 -620 -112 l -620 -112 q -570 -112 -539 -142 q -508 -172 -508 -223 l -508 -223 q -508 -270 -537 -303 q -566 -337 -622 -337 l -622 -337 q -682 -337 -712 -292 q -743 -247 -743 -180 l -743 -180 q -743 -126 -717 -84 q -692 -43 -646 -19 q -601 5 -541 5 z m -239 4 l -239 4 q -169 4 -126 -22 q -83 -48 -63 -91 q -43 -134 -43 -184 l -43 -184 q -43 -238 -58 -272 q -74 -306 -102 -321 q -130 -337 -165 -337 l -165 -337 q -205 -337 -231 -321 q -258 -306 -271 -279 q -284 -253 -284 -222 l -284 -222 q -284 -161 -239 -129 q -194 -98 -121 -98 l -121 -98 q -111 -98 -100 -98 q -90 -99 -79 -101 l -79 -101 q -37 -108 -2 -128 q 33 -148 54 -183 q 75 -219 75 -274 l 75 -274 q 75 -294 70 -321 q 64 -348 51 -366 l 51 -366 l 19 -351 q 29 -334 34 -314 q 39 -294 39 -276 l 39 -276 q 39 -216 11 -182 q -18 -149 -59 -136 l -59 -136 l -72 -134 q -84 -132 -96 -131 q -108 -130 -120 -130 l -120 -130 q -180 -130 -214 -154 q -248 -178 -248 -224 l -248 -224 q -248 -256 -229 -280 q -211 -304 -166 -304 l -166 -304 q -124 -304 -100 -276 q -77 -248 -77 -185 l -77 -185 q -77 -168 -79 -151 q -82 -135 -87 -122 l -87 -122 l -91 -110 q -103 -81 -125 -62 q -148 -44 -176 -35 q -205 -27 -240 -27 l -240 -27 q -269 -27 -290 -34 q -312 -41 -329 -55 l -329 -55 q -355 -77 -366 -112 q -378 -147 -378 -198 l -378 -198 l -406 -148 q -404 -119 -393 -91 q -383 -64 -363 -42 q -343 -21 -312 -8 q -282 4 -239 4 z"},"൦":{"ha":543,"x_min":43,"x_max":500,"o":"m 271 48 l 271 48 q 201 48 150 77 q 98 106 71 159 q 43 212 43 282 l 43 282 q 43 352 71 405 q 99 457 151 486 q 202 515 271 515 l 271 515 q 341 515 393 487 q 444 458 472 406 q 500 354 500 282 l 500 282 q 500 211 472 158 q 444 105 393 77 q 341 48 271 48 z m 271 83 l 271 83 q 328 83 371 106 q 413 129 437 174 q 461 218 461 282 l 461 282 q 461 378 409 429 q 357 480 271 480 l 271 480 q 186 480 134 429 q 82 378 82 281 l 82 281 q 82 186 134 135 q 186 83 271 83 z"},"൧":{"ha":848,"x_min":13,"x_max":780,"o":"m 364 -166 l 364 -201 l 188 -201 q 141 -201 110 -194 q 79 -187 55 -170 l 55 -170 q 34 -155 24 -133 q 13 -111 13 -82 l 13 -82 q 13 -57 21 -36 q 29 -16 45 -2 l 45 -2 q 59 11 78 19 q 96 27 123 31 q 150 35 190 35 l 190 35 l 372 35 l 373 0 l 197 0 q 148 0 119 -5 q 90 -10 73 -26 l 73 -26 q 63 -36 58 -50 q 52 -64 52 -81 l 52 -81 q 52 -121 79 -142 l 79 -142 q 95 -154 122 -160 q 148 -166 193 -166 l 193 -166 l 364 -166 z m 557 560 l 557 560 q 612 560 654 542 q 695 523 723 491 l 723 491 q 753 458 767 410 q 780 361 780 289 l 780 289 l 780 0 l 338 0 l 338 296 q 338 343 344 379 q 350 415 364 444 q 377 472 397 495 l 397 495 q 424 525 464 543 q 503 560 557 560 z m 557 524 l 557 524 q 514 524 481 511 q 448 497 425 471 l 425 471 q 401 443 389 401 q 376 358 376 278 l 376 278 l 376 35 l 742 35 l 742 275 q 742 351 730 395 q 717 439 693 468 l 693 468 q 670 495 637 510 q 603 524 557 524 z"},"൨":{"ha":830,"x_min":44,"x_max":814,"o":"m 319 560 l 319 560 q 384 560 434 539 q 484 517 518 480 q 552 442 570 390 q 587 338 587 278 l 587 278 q 587 208 569 159 q 550 110 523 77 q 496 44 469 23 l 469 23 l 469 35 l 814 35 l 814 0 l 439 0 l 424 29 q 455 51 483 84 q 511 116 530 164 q 548 211 548 276 l 548 276 q 548 345 523 402 q 498 458 447 491 q 395 524 317 524 l 317 524 q 239 524 188 491 q 136 457 110 400 q 83 343 83 275 l 83 275 q 83 216 99 170 q 114 124 144 88 q 173 52 215 23 l 215 23 l 193 -7 q 155 19 121 57 q 86 95 65 149 q 44 202 44 275 l 44 275 q 44 337 62 389 q 80 440 116 479 q 152 517 203 539 q 254 560 319 560 z"},"൩":{"ha":1042,"x_min":44,"x_max":1026,"o":"m 263 560 l 263 560 q 311 560 345 543 q 379 525 401 493 q 423 461 433 415 l 433 415 l 425 415 q 442 484 484 522 q 525 560 598 560 l 598 560 q 670 560 718 523 q 766 486 791 425 q 815 364 815 291 l 815 291 q 815 226 801 178 q 787 129 762 94 q 737 58 704 28 l 704 28 l 701 0 l 672 0 l 657 28 q 691 60 718 95 q 745 130 761 177 q 776 224 776 291 l 776 291 q 776 352 757 405 q 738 458 699 491 q 660 524 600 524 l 600 524 q 563 524 538 514 q 513 504 496 485 l 496 485 q 469 458 459 415 q 449 371 449 307 l 449 307 l 449 0 l 410 0 l 410 308 q 410 371 400 414 q 390 457 363 484 l 363 484 q 345 503 322 514 q 298 524 263 524 l 263 524 q 203 524 163 492 q 123 460 103 407 q 83 353 83 289 l 83 289 q 83 222 100 173 q 117 124 147 89 q 176 53 213 23 l 213 23 l 189 -6 q 148 28 115 68 q 82 108 63 161 q 44 214 44 289 l 44 289 q 44 371 71 432 q 98 492 147 526 q 196 560 263 560 z m 689 0 l 696 35 l 1026 35 l 1026 0 l 689 0 z"},"൪":{"ha":744,"x_min":44,"x_max":737,"o":"m 338 560 l 338 560 q 405 560 459 538 q 512 515 554 473 l 554 473 q 599 428 626 365 q 653 301 653 223 l 653 223 q 653 139 628 87 q 602 35 559 12 q 515 -12 463 -12 l 463 -12 q 400 -12 361 15 q 322 41 304 85 q 286 128 286 177 l 286 177 q 286 239 313 288 q 339 337 393 381 q 447 424 531 469 l 531 469 q 594 504 631 526 q 667 548 683 570 q 698 591 698 622 l 698 622 q 698 645 690 664 q 681 683 668 702 l 668 702 l 703 720 q 718 700 728 675 q 737 650 737 624 l 737 624 q 737 586 720 559 q 702 531 662 505 q 622 478 551 441 l 551 441 q 471 398 422 358 q 372 318 349 274 q 326 230 326 177 l 326 177 q 326 104 361 64 q 395 23 465 23 l 465 23 q 507 23 541 43 q 574 62 594 106 q 613 149 613 222 l 613 222 q 613 292 591 351 q 569 410 527 450 l 527 450 q 491 486 444 505 q 397 524 339 524 l 339 524 q 269 524 211 496 q 152 468 118 413 q 83 358 83 275 l 83 275 q 83 216 99 170 q 114 124 144 88 q 173 52 215 23 l 215 23 l 193 -7 q 155 19 121 57 q 86 95 65 149 q 44 202 44 275 l 44 275 q 44 331 62 383 q 80 434 117 474 q 153 513 209 537 q 264 560 338 560 z"},"൫":{"ha":907,"x_min":50,"x_max":858,"o":"m 467 723 l 467 723 q 570 723 644 688 q 718 652 766 591 q 813 530 836 452 q 858 374 858 288 l 858 288 q 858 204 842 131 q 825 58 788 -12 l 788 -12 l 753 6 q 777 50 791 96 q 805 142 812 190 q 818 238 818 289 l 818 289 q 818 367 799 439 q 779 510 737 566 q 694 622 628 655 q 561 687 468 687 l 468 687 q 359 687 274 638 q 189 588 140 492 q 90 395 90 255 l 90 255 q 90 175 109 104 q 127 32 166 -23 q 204 -78 263 -110 q 321 -142 402 -142 l 402 -142 q 517 -142 571 -88 q 625 -34 625 54 l 625 54 q 625 110 603 151 q 581 191 540 214 q 498 236 439 236 l 439 236 l 428 236 l 428 271 l 454 271 q 502 271 535 281 q 567 290 585 311 l 585 311 q 598 325 604 344 q 610 362 610 386 l 610 386 q 610 441 574 475 q 538 508 469 508 l 469 508 q 404 508 362 478 q 319 448 298 397 q 276 346 276 281 l 276 281 q 276 205 302 141 q 327 77 370 14 l 370 14 l 338 -7 q 291 63 264 131 q 237 199 237 282 l 237 282 q 237 359 265 418 q 292 476 345 510 q 397 543 469 543 l 469 543 q 529 543 569 522 q 609 501 629 466 q 649 431 649 389 l 649 389 q 649 355 637 324 q 624 293 592 273 q 560 252 500 246 l 500 246 l 499 256 q 577 240 621 190 q 664 140 664 55 l 664 55 q 664 -19 633 -71 q 601 -123 542 -150 q 482 -178 397 -178 l 397 -178 q 292 -178 214 -123 q 135 -68 93 29 q 50 126 50 255 l 50 255 q 50 368 82 456 q 114 543 171 603 q 227 662 304 693 q 380 723 467 723 z"},"൬":{"ha":1152,"x_min":44,"x_max":1103,"o":"m 577 560 l 577 560 q 645 560 687 523 q 729 485 739 417 l 739 417 l 754 307 l 754 0 l 716 0 l 716 315 q 716 378 708 415 q 699 452 679 478 l 679 478 q 663 500 638 512 q 612 524 575 524 l 575 524 q 541 524 515 512 q 489 500 473 478 l 473 478 q 451 451 443 413 q 434 374 434 314 l 434 314 l 434 0 l 395 0 l 395 308 q 395 370 385 414 q 375 457 349 485 l 349 485 q 332 504 309 514 q 285 524 255 524 l 255 524 q 198 524 160 493 q 122 461 103 408 q 83 354 83 289 l 83 289 q 83 221 100 173 q 117 124 147 89 q 176 53 213 23 l 213 23 l 189 -7 q 148 28 115 68 q 82 108 63 161 q 44 214 44 289 l 44 289 q 44 371 70 432 q 96 493 143 527 q 190 560 254 560 l 254 560 q 321 560 362 523 q 402 485 417 416 l 417 416 l 411 416 q 425 479 466 520 q 506 560 577 560 z m 899 560 l 899 560 q 998 560 1051 473 q 1103 386 1103 225 l 1103 225 q 1103 93 1070 -2 q 1036 -98 963 -149 q 889 -201 769 -201 l 769 -201 q 744 -201 713 -198 q 682 -196 654 -190 l 654 -190 l 659 -156 q 686 -160 715 -162 q 744 -165 767 -165 l 767 -165 q 852 -165 909 -137 q 966 -110 1000 -58 q 1033 -6 1048 66 q 1063 137 1063 225 l 1063 225 q 1063 321 1045 388 q 1026 455 990 490 q 953 524 898 524 l 898 524 q 866 524 843 515 q 819 505 802 486 l 802 486 q 774 459 764 417 q 754 375 754 314 l 754 314 l 754 10 l 728 10 l 728 321 l 731 416 q 749 485 790 523 q 831 560 899 560 z"},"൭":{"ha":704,"x_min":45,"x_max":654,"o":"m 356 560 l 356 560 q 431 560 487 535 q 543 510 580 463 q 617 416 636 351 q 654 285 654 204 l 654 204 q 654 120 636 47 q 617 -27 576 -82 q 535 -138 467 -169 q 399 -201 300 -201 l 300 -201 q 272 -201 242 -199 q 211 -197 181 -191 l 181 -191 l 185 -156 q 210 -160 240 -162 q 269 -165 301 -165 l 301 -165 q 394 -165 455 -135 q 516 -105 551 -53 q 586 -1 601 66 q 615 132 615 205 l 615 205 q 615 359 549 442 q 482 524 356 524 l 356 524 q 270 524 209 486 q 148 448 115 382 q 82 315 82 231 l 82 231 l 82 219 q 82 153 99 110 q 116 66 148 45 q 179 23 221 23 l 221 23 q 251 23 275 36 q 299 49 314 77 q 328 105 328 151 l 328 151 q 328 203 299 238 q 270 272 213 272 l 213 272 q 168 272 129 251 q 90 229 67 203 l 67 203 l 56 233 q 90 270 132 289 q 174 307 216 307 l 216 307 q 258 307 292 290 q 326 272 347 238 q 367 203 367 152 l 367 152 q 367 97 348 61 q 328 24 295 6 q 262 -12 220 -12 l 220 -12 q 172 -12 132 12 q 92 36 69 88 q 45 139 45 223 l 45 223 q 45 326 84 402 q 122 477 192 519 q 262 560 356 560 z"},"൮":{"ha":908,"x_min":44,"x_max":830,"o":"m 319 560 l 319 560 q 384 560 434 539 q 484 517 518 480 q 552 442 570 390 q 587 338 587 278 l 587 278 q 587 208 569 159 q 550 110 523 77 q 496 44 469 23 l 469 23 l 469 35 l 792 35 l 792 548 l 830 548 l 830 85 l 803 0 l 439 0 l 424 29 q 455 51 483 84 q 511 116 530 164 q 548 211 548 276 l 548 276 q 548 345 523 402 q 498 458 447 491 q 395 524 317 524 l 317 524 q 239 524 188 491 q 136 457 110 400 q 83 343 83 275 l 83 275 q 83 216 99 170 q 114 124 144 88 q 173 52 215 23 l 215 23 l 193 -7 q 155 19 121 57 q 86 95 65 149 q 44 202 44 275 l 44 275 q 44 337 62 389 q 80 440 116 479 q 152 517 203 539 q 254 560 319 560 z m 522 -201 l 522 -201 q 493 -201 466 -198 q 439 -196 413 -191 l 413 -191 l 418 -156 q 440 -160 466 -162 q 491 -165 521 -165 l 521 -165 q 603 -165 655 -147 q 707 -129 736 -99 q 765 -70 777 -36 q 789 -2 792 30 l 792 30 l 830 103 l 830 57 q 830 8 820 -30 q 809 -69 787 -98 q 765 -127 733 -149 l 733 -149 q 695 -175 643 -188 q 590 -201 522 -201 z"},"൯":{"ha":1060,"x_min":44,"x_max":1053,"o":"m 263 560 l 263 560 q 314 560 350 540 q 386 520 408 483 q 430 445 437 391 l 437 391 l 449 253 l 449 0 l 410 0 l 410 306 q 410 371 400 414 q 390 457 363 484 l 363 484 q 345 503 322 514 q 298 524 263 524 l 263 524 q 203 524 163 492 q 123 460 103 407 q 83 353 83 289 l 83 289 q 83 222 100 173 q 117 124 147 89 q 176 53 213 23 l 213 23 l 189 -6 q 148 28 115 68 q 82 108 63 161 q 44 214 44 289 l 44 289 q 44 371 71 432 q 98 492 147 526 q 196 560 263 560 z m 650 560 l 650 560 q 717 560 773 538 q 828 515 870 473 l 870 473 q 915 428 942 365 q 969 301 969 223 l 969 223 q 969 139 944 87 q 918 35 875 12 q 831 -12 779 -12 l 779 -12 q 716 -12 677 15 q 638 41 620 85 q 602 128 602 177 l 602 177 q 602 239 629 288 q 655 337 709 381 q 763 424 846 469 l 846 469 q 910 504 947 526 q 983 548 998 570 q 1013 591 1013 622 l 1013 622 q 1013 645 1005 664 q 997 683 984 702 l 984 702 l 1018 720 q 1034 700 1044 675 q 1053 650 1053 624 l 1053 624 q 1053 586 1036 559 q 1018 531 978 505 q 937 478 867 441 l 867 441 q 787 398 737 358 q 687 318 665 274 q 642 230 642 177 l 642 177 q 642 104 677 64 q 711 23 781 23 l 781 23 q 823 23 857 43 q 890 62 910 106 q 929 149 929 222 l 929 222 q 929 292 907 351 q 884 410 843 450 l 843 450 q 807 486 758 505 q 709 524 651 524 l 651 524 q 601 524 570 514 q 538 504 516 485 l 516 485 q 493 466 478 441 q 463 415 456 377 q 449 338 449 281 l 449 281 l 449 163 l 422 163 l 422 282 l 425 395 q 439 451 469 488 q 499 524 545 542 q 590 560 650 560 z"},"൰":{"ha":1048,"x_min":-35,"x_max":1004,"o":"m 264 548 l 302 548 l 302 119 l 301 100 q 301 26 289 -31 q 276 -88 243 -128 l 243 -128 q 214 -163 168 -182 q 121 -201 55 -201 l 55 -201 q 33 -201 11 -199 q -12 -197 -35 -191 l -35 -191 l -31 -156 q -13 -160 8 -162 q 28 -165 54 -165 l 54 -165 q 114 -165 153 -148 q 192 -132 216 -102 l 216 -102 q 244 -68 254 -18 q 264 31 264 108 l 264 108 l 264 548 z m 786 -12 l 786 -12 q 713 -12 672 27 q 631 65 615 131 l 615 131 l 622 132 q 607 69 566 29 q 525 -12 449 -12 l 449 -12 q 401 -12 367 6 q 332 24 312 57 q 292 89 283 133 l 283 133 l 278 264 l 277 520 l 302 521 l 302 232 q 302 170 311 134 q 319 97 340 70 l 340 70 q 358 50 385 37 q 411 23 450 23 l 450 23 q 488 23 515 37 q 542 50 559 71 l 559 71 q 582 98 591 136 q 600 174 600 233 l 600 233 l 600 548 l 638 548 l 638 240 q 638 177 648 134 q 658 91 685 63 l 685 63 q 703 44 728 34 q 752 23 789 23 l 789 23 q 848 23 888 57 q 927 90 946 144 q 965 197 965 257 l 965 257 q 965 326 948 375 q 931 423 902 459 q 872 495 835 525 l 835 525 l 858 554 q 900 520 933 481 q 966 442 985 388 q 1004 334 1004 257 l 1004 257 q 1004 185 980 124 q 955 62 907 25 q 858 -12 786 -12 z"},"൱":{"ha":846,"x_min":44,"x_max":797,"o":"m 263 560 l 263 560 q 315 560 351 540 q 386 519 407 482 q 428 445 435 392 l 435 392 l 449 253 l 449 0 l 410 0 l 410 306 q 410 371 400 414 q 390 457 363 484 l 363 484 q 345 503 322 514 q 298 524 263 524 l 263 524 q 203 524 163 492 q 123 460 103 407 q 83 353 83 289 l 83 289 q 83 222 100 173 q 117 124 147 89 q 176 53 213 23 l 213 23 l 189 -6 q 148 28 115 68 q 82 108 63 161 q 44 214 44 289 l 44 289 q 44 371 71 432 q 98 492 147 526 q 196 560 263 560 z m 593 560 l 593 560 q 659 560 705 521 q 750 482 774 407 q 797 332 797 225 l 797 225 q 797 93 764 -2 q 730 -98 657 -149 q 584 -201 463 -201 l 463 -201 q 438 -201 407 -198 q 376 -196 349 -190 l 349 -190 l 353 -156 q 380 -160 410 -162 q 439 -165 462 -165 l 462 -165 q 546 -165 603 -137 q 660 -110 694 -58 q 728 -6 743 66 q 757 137 757 225 l 757 225 q 757 321 739 388 q 720 455 684 490 q 647 524 592 524 l 592 524 q 561 524 537 515 q 513 505 496 486 l 496 486 q 469 459 459 417 q 449 375 449 314 l 449 314 l 449 10 l 422 10 l 422 321 l 426 416 q 443 485 484 523 q 525 560 593 560 z"},"൲":{"ha":1303,"x_min":44,"x_max":1282,"o":"m 1144 548 l 1144 548 q 1191 548 1222 529 q 1252 509 1267 479 q 1282 449 1282 414 l 1282 414 q 1282 382 1272 357 q 1262 332 1243 315 l 1243 315 q 1225 299 1203 290 q 1181 280 1155 277 q 1128 273 1096 273 l 1096 273 l 864 273 l 864 308 l 1094 308 q 1140 308 1167 315 q 1193 321 1210 335 l 1210 335 q 1225 348 1234 367 q 1243 385 1243 413 l 1243 413 q 1243 457 1218 485 q 1192 513 1145 513 l 1145 513 q 1091 513 1063 482 q 1035 450 1035 398 l 1035 398 q 1035 364 1045 338 q 1055 311 1070 287 l 1070 287 l 1031 282 q 1015 310 1006 338 q 997 366 997 402 l 997 402 q 997 448 1017 481 q 1036 513 1070 531 q 1103 548 1144 548 z m 263 560 l 263 560 q 314 560 350 540 q 386 520 408 483 q 429 445 437 393 l 437 393 l 449 253 l 449 0 l 410 0 l 410 306 q 410 371 400 414 q 390 457 363 484 l 363 484 q 345 503 322 514 q 298 524 263 524 l 263 524 q 203 524 163 492 q 123 460 103 407 q 83 353 83 289 l 83 289 q 83 222 100 173 q 117 124 147 89 q 176 53 213 23 l 213 23 l 189 -6 q 148 28 115 68 q 82 108 63 161 q 44 214 44 289 l 44 289 q 44 371 71 432 q 98 492 147 526 q 196 560 263 560 z m 639 560 l 639 560 q 702 560 753 536 q 803 512 839 470 q 875 428 894 370 q 912 312 912 244 l 912 244 q 912 147 889 91 q 866 35 824 12 q 781 -12 724 -12 l 724 -12 q 670 -12 635 11 q 600 34 583 70 q 566 105 566 144 l 566 144 q 566 181 579 209 q 592 236 615 255 l 615 255 q 637 275 667 287 q 696 298 737 303 q 777 308 831 308 l 831 308 l 1080 308 l 1080 273 l 830 273 q 764 273 717 265 q 669 256 641 230 l 641 230 q 623 215 614 193 q 605 171 605 144 l 605 144 q 605 88 637 56 q 668 23 725 23 l 725 23 q 776 23 809 45 q 842 67 858 116 q 874 164 874 244 l 874 244 q 874 255 873 268 q 872 280 871 291 l 871 291 l 870 301 q 861 370 830 420 q 798 470 749 497 q 700 524 638 524 l 638 524 q 599 524 569 514 q 538 504 513 483 l 513 483 q 493 466 479 440 q 464 414 457 379 q 449 343 449 297 l 449 297 l 449 198 l 422 200 l 422 362 q 430 428 459 472 q 487 515 533 538 q 579 560 639 560 z"},"൳":{"ha":768,"x_min":45,"x_max":746,"o":"m 220 -12 l 220 -12 q 172 -12 132 12 q 92 35 69 85 q 45 135 45 215 l 45 215 q 45 299 71 355 q 97 410 143 444 l 143 444 q 179 470 221 485 q 263 500 318 506 q 373 512 444 512 l 444 512 l 746 512 l 746 476 l 460 476 q 385 476 331 471 q 276 466 236 452 q 195 438 162 413 l 162 413 q 129 386 109 347 q 88 307 82 247 l 82 247 l 82 236 q 82 231 82 226 q 82 220 82 214 l 82 214 q 82 150 99 108 q 115 65 147 44 q 178 23 220 23 l 220 23 q 250 23 275 36 q 299 48 314 76 q 328 104 328 151 l 328 151 q 328 202 299 237 q 270 272 213 272 l 213 272 q 169 272 130 251 q 90 229 67 203 l 67 203 l 64 240 q 97 274 137 291 q 177 307 216 307 l 216 307 q 258 307 292 290 q 326 272 347 238 q 367 203 367 152 l 367 152 q 367 97 348 61 q 328 24 295 6 q 262 -12 220 -12 z"},"൴":{"ha":872,"x_min":45,"x_max":828,"o":"m 485 792 l 524 792 l 524 233 q 524 190 527 156 q 529 122 539 96 q 548 70 566 54 l 566 54 q 581 38 603 31 q 624 23 653 23 l 653 23 q 700 23 730 48 q 759 72 773 114 q 787 155 787 206 l 787 206 q 787 270 768 324 q 748 377 712 417 q 676 457 626 483 q 575 509 512 519 l 512 519 l 495 520 q 480 522 465 523 q 450 524 433 524 l 433 524 q 344 524 278 501 q 212 477 169 436 q 125 395 104 343 q 82 290 82 232 l 82 232 l 82 224 q 82 156 99 112 q 116 67 147 45 q 178 23 221 23 l 221 23 q 251 23 275 36 q 299 48 314 76 q 328 104 328 151 l 328 151 q 328 203 299 238 q 270 272 213 272 l 213 272 q 168 272 129 251 q 90 229 67 203 l 67 203 l 64 240 q 97 274 137 291 q 177 307 216 307 l 216 307 q 258 307 292 290 q 326 272 347 238 q 367 203 367 152 l 367 152 q 367 96 348 60 q 328 24 295 6 q 262 -12 220 -12 l 220 -12 q 172 -12 132 12 q 92 36 69 89 q 45 141 45 227 l 45 227 q 45 295 69 356 q 93 416 142 462 q 190 508 263 534 q 335 560 432 560 l 432 560 q 449 560 465 559 q 480 558 496 556 l 496 556 l 512 555 q 582 544 640 516 q 697 487 739 443 q 781 398 805 339 q 828 279 828 206 l 828 206 q 828 140 808 91 q 787 42 748 15 q 708 -12 652 -12 l 652 -12 q 616 -12 590 -2 q 563 7 542 24 l 542 24 q 522 42 510 67 q 497 92 491 129 q 485 165 485 217 l 485 217 l 485 792 z"},"൵":{"ha":1167,"x_min":47,"x_max":1159,"o":"m 336 560 l 336 560 q 423 560 477 516 q 530 472 544 389 l 544 389 l 545 334 l 555 204 l 555 0 l 517 0 l 517 311 q 517 384 500 425 q 482 465 452 489 l 452 489 q 428 508 402 516 q 375 524 335 524 l 335 524 q 257 524 201 486 q 144 448 114 383 q 84 317 84 233 l 84 233 l 84 226 q 84 157 101 112 q 118 67 150 45 q 181 23 223 23 l 223 23 q 253 23 277 36 q 301 48 316 76 q 330 104 330 151 l 330 151 q 330 203 302 238 q 273 272 215 272 l 215 272 q 169 272 130 250 q 90 227 66 200 l 66 200 l 58 233 q 92 270 135 289 q 177 307 219 307 l 219 307 q 260 307 294 290 q 328 272 349 238 q 369 203 369 152 l 369 152 q 369 97 350 61 q 330 24 297 6 q 264 -12 222 -12 l 222 -12 q 174 -12 135 12 q 95 36 71 89 q 47 142 47 228 l 47 228 q 47 329 83 403 q 119 477 184 519 q 249 560 336 560 z m 757 560 l 757 560 q 823 560 879 538 q 934 515 977 473 l 977 473 q 1022 428 1049 365 q 1075 301 1075 223 l 1075 223 q 1075 139 1050 87 q 1024 35 981 12 q 938 -12 885 -12 l 885 -12 q 823 -12 784 15 q 745 41 727 85 q 709 128 709 177 l 709 177 q 709 239 735 288 q 761 337 815 381 q 869 424 953 469 l 953 469 q 1016 504 1053 526 q 1089 548 1105 570 q 1120 591 1120 622 l 1120 622 q 1120 645 1112 664 q 1104 683 1090 702 l 1090 702 l 1125 720 q 1140 700 1150 675 q 1159 650 1159 624 l 1159 624 q 1159 586 1142 559 q 1124 531 1084 505 q 1044 478 974 441 l 974 441 q 894 398 844 358 q 794 318 771 274 q 748 230 748 177 l 748 177 q 748 104 783 64 q 818 23 887 23 l 887 23 q 930 23 964 43 q 997 62 1017 106 q 1036 149 1036 222 l 1036 222 q 1036 292 1014 351 q 991 410 950 450 l 950 450 q 913 486 864 505 q 815 524 757 524 l 757 524 q 708 524 677 514 q 645 504 622 485 l 622 485 q 600 466 585 441 q 570 415 563 377 q 555 338 555 281 l 555 281 l 555 163 l 529 163 l 529 282 l 532 395 q 545 451 575 488 q 605 524 651 542 q 697 560 757 560 z"},"൶":{"ha":1297,"x_min":37,"x_max":1233,"o":"m 207 331 l 207 331 q 260 331 298 309 q 336 286 357 248 q 378 210 378 161 l 378 161 q 378 115 361 80 q 344 45 315 20 l 315 20 l 315 35 l 700 35 l 697 0 l 299 0 l 283 27 q 313 57 326 88 q 339 119 339 157 l 339 157 q 339 221 303 259 q 267 296 207 296 l 207 296 q 165 296 136 277 q 106 258 91 228 q 75 197 75 160 l 75 160 q 75 113 93 81 q 111 49 146 21 l 146 21 l 124 -8 q 84 26 61 64 q 37 102 37 160 l 37 160 q 37 208 58 247 q 79 285 118 308 q 156 331 207 331 z m 965 560 l 965 560 q 1021 560 1065 547 q 1109 533 1141 507 l 1141 507 q 1171 483 1192 448 q 1212 413 1223 365 q 1233 317 1233 252 l 1233 252 l 1233 0 l 684 0 l 684 250 q 684 309 693 354 q 702 398 720 433 q 737 467 764 492 l 764 492 q 799 525 849 543 q 899 560 965 560 z m 917 520 l 917 520 q 876 520 844 505 q 811 490 786 462 l 786 462 q 756 429 739 378 q 722 327 722 248 l 722 248 l 722 35 l 737 35 q 817 94 881 156 q 945 218 983 281 q 1021 344 1021 403 l 1021 403 q 1021 432 1011 459 q 1001 485 979 503 q 956 520 917 520 z m 1060 403 l 1060 403 q 1060 338 1023 274 q 986 210 922 146 q 857 82 773 16 l 773 16 l 775 32 q 808 34 853 35 q 897 35 937 35 l 937 35 l 1195 35 l 1195 251 q 1195 334 1174 395 q 1152 455 1104 490 q 1056 525 975 527 l 975 527 l 972 534 q 1023 516 1042 481 q 1060 445 1060 403 z"},"൷":{"ha":1636,"x_min":37,"x_max":1613,"o":"m 207 331 l 207 331 q 260 331 298 309 q 336 286 357 248 q 378 210 378 161 l 378 161 q 378 115 361 80 q 344 45 315 20 l 315 20 l 315 35 l 665 35 l 683 0 l 299 0 l 283 27 q 313 57 326 88 q 339 119 339 157 l 339 157 q 339 221 303 259 q 267 296 207 296 l 207 296 q 165 296 136 277 q 106 258 91 228 q 75 197 75 160 l 75 160 q 75 113 93 81 q 111 49 146 21 l 146 21 l 124 -8 q 84 26 61 64 q 37 102 37 160 l 37 160 q 37 208 58 247 q 79 285 118 308 q 156 331 207 331 z m 764 560 l 764 560 q 816 560 852 540 q 888 520 910 483 q 931 445 939 393 l 939 393 l 950 286 l 950 230 l 912 230 l 912 306 q 912 371 902 414 q 891 457 864 484 l 864 484 q 847 503 823 514 q 799 524 765 524 l 765 524 q 704 524 665 492 q 625 460 605 408 q 585 356 585 295 l 585 295 q 585 203 620 140 q 654 77 705 27 l 705 27 l 689 0 l 669 0 l 657 28 q 625 60 600 99 q 574 138 560 187 q 545 235 545 294 l 545 294 q 545 373 572 433 q 599 492 649 526 q 698 560 764 560 z m 1141 560 l 1141 560 q 1204 560 1255 536 q 1305 512 1341 470 q 1376 428 1395 370 q 1414 312 1414 244 l 1414 244 q 1414 147 1391 91 q 1368 35 1326 12 q 1283 -12 1226 -12 l 1226 -12 q 1171 -12 1136 11 q 1101 33 1085 69 q 1068 104 1068 144 l 1068 144 q 1068 181 1081 209 q 1094 236 1117 255 l 1117 255 q 1139 275 1168 287 q 1197 298 1238 303 q 1278 308 1333 308 l 1333 308 l 1382 308 l 1382 273 l 1332 273 q 1265 273 1218 265 q 1171 256 1142 230 l 1142 230 q 1125 215 1116 193 q 1106 171 1106 144 l 1106 144 q 1106 88 1138 56 q 1169 23 1226 23 l 1226 23 q 1278 23 1311 45 q 1344 67 1360 116 q 1376 164 1376 244 l 1376 244 q 1376 255 1375 268 q 1374 280 1373 291 l 1373 291 l 1372 301 q 1362 370 1331 420 q 1299 470 1251 497 q 1202 524 1139 524 l 1139 524 q 1101 524 1070 514 q 1039 504 1014 483 l 1014 483 q 994 466 980 440 q 965 414 958 379 q 950 343 950 297 l 950 297 l 950 257 l 924 253 l 924 362 q 932 428 961 472 q 989 515 1035 538 q 1081 560 1141 560 z m 1566 453 l 1603 460 q 1608 448 1611 433 q 1613 418 1613 403 l 1613 403 q 1613 372 1603 349 q 1592 325 1574 311 l 1574 311 q 1547 289 1512 281 q 1477 273 1422 273 l 1422 273 l 1394 273 l 1394 308 l 1419 308 q 1466 308 1495 313 q 1523 317 1542 332 l 1542 332 q 1557 342 1566 360 q 1574 378 1574 405 l 1574 405 q 1574 413 1572 428 q 1570 443 1566 453 l 1566 453 z"},"൸":{"ha":2098,"x_min":10,"x_max":2034,"o":"m 1356 560 l 1356 560 q 1404 560 1434 543 q 1464 526 1482 500 q 1499 473 1507 443 q 1514 412 1517 384 l 1517 384 l 1508 384 q 1525 449 1563 488 q 1601 526 1654 543 q 1706 560 1765 560 l 1765 560 q 1822 560 1866 547 q 1909 533 1942 507 l 1942 507 q 1972 483 1993 448 q 2013 413 2024 365 q 2034 317 2034 252 l 2034 252 l 2034 0 l 1537 0 l 1537 35 q 1617 94 1682 156 q 1746 218 1784 281 q 1821 344 1821 403 l 1821 403 q 1821 432 1812 459 q 1802 485 1779 503 q 1756 520 1717 520 l 1717 520 q 1676 520 1645 505 q 1613 490 1589 464 l 1589 464 q 1554 425 1541 375 q 1527 324 1527 251 l 1527 251 l 1527 230 l 1489 230 l 1489 293 q 1489 363 1482 410 q 1475 456 1450 486 l 1450 486 q 1435 504 1413 514 q 1390 524 1358 524 l 1358 524 q 1327 524 1304 515 q 1281 505 1266 486 l 1266 486 q 1241 457 1234 410 q 1226 362 1226 291 l 1226 291 l 1226 246 q 1226 189 1222 150 q 1217 110 1206 83 q 1194 55 1174 34 l 1174 34 q 1154 13 1125 1 q 1095 -12 1057 -12 l 1057 -12 q 1015 -12 986 2 q 956 15 934 39 l 934 39 q 917 60 907 86 q 897 112 892 150 q 887 188 887 246 l 887 246 l 887 294 q 887 363 880 410 q 873 457 849 486 l 849 486 q 834 504 811 514 q 788 524 757 524 l 757 524 q 725 524 702 515 q 679 505 664 486 l 664 486 q 640 457 633 410 q 625 362 625 291 l 625 291 l 625 235 q 625 157 613 114 q 601 70 574 39 l 574 39 q 551 14 520 1 q 489 -12 446 -12 l 446 -12 q 380 -12 339 27 q 297 65 285 135 l 285 135 l 295 132 q 285 88 263 56 q 241 23 206 6 q 171 -12 119 -12 l 119 -12 q 92 -12 64 -6 q 36 0 10 14 l 10 14 l 24 47 q 43 36 68 30 q 92 23 120 23 l 120 23 q 158 23 183 34 q 207 45 225 63 l 225 63 q 252 91 262 134 q 272 177 272 240 l 272 240 l 272 548 l 310 548 l 310 225 q 310 163 322 122 q 333 80 359 55 l 359 55 q 376 40 397 32 q 418 23 446 23 l 446 23 q 483 23 508 35 q 533 47 548 68 l 548 68 q 569 95 578 139 q 587 182 587 262 l 587 262 l 587 302 q 587 360 592 400 q 597 439 609 466 q 620 493 639 514 l 639 514 q 659 536 689 548 q 718 560 756 560 l 756 560 q 799 560 829 547 q 858 533 879 508 l 879 508 q 896 487 907 462 q 917 437 922 399 q 926 360 926 302 l 926 302 l 926 253 q 926 184 934 138 q 941 92 964 62 l 964 62 q 979 43 1002 33 q 1025 23 1057 23 l 1057 23 q 1088 23 1111 33 q 1134 43 1149 62 l 1149 62 q 1173 91 1181 138 q 1188 185 1188 254 l 1188 254 l 1188 302 q 1188 360 1193 400 q 1198 439 1210 466 q 1221 493 1240 514 l 1240 514 q 1261 536 1290 548 q 1319 560 1356 560 z m 1860 403 l 1860 403 q 1860 338 1823 274 q 1786 210 1722 146 q 1657 82 1573 16 l 1573 16 l 1575 32 q 1608 34 1653 35 q 1698 35 1738 35 l 1738 35 l 1995 35 l 1995 251 q 1995 334 1974 395 q 1953 455 1905 490 q 1857 525 1775 527 l 1775 527 l 1773 534 q 1824 516 1842 481 q 1860 445 1860 403 z"},"൹":{"ha":1102,"x_min":44,"x_max":1080,"o":"m 263 560 l 263 560 q 314 560 350 540 q 386 520 408 483 q 429 445 437 393 l 437 393 l 449 253 l 449 0 l 410 0 l 410 306 q 410 371 400 414 q 390 457 363 484 l 363 484 q 345 503 322 514 q 298 524 263 524 l 263 524 q 203 524 163 492 q 123 460 103 407 q 83 353 83 289 l 83 289 q 83 222 100 173 q 117 124 147 89 q 176 53 213 23 l 213 23 l 189 -6 q 148 28 115 68 q 82 108 63 161 q 44 214 44 289 l 44 289 q 44 371 71 432 q 98 492 147 526 q 196 560 263 560 z m 639 560 l 639 560 q 702 560 753 536 q 803 512 839 470 q 875 428 894 370 q 912 312 912 244 l 912 244 q 912 147 889 91 q 866 35 824 12 q 781 -12 724 -12 l 724 -12 q 670 -12 635 11 q 600 34 583 70 q 566 105 566 144 l 566 144 q 566 181 579 209 q 592 236 615 255 l 615 255 q 637 275 667 287 q 696 298 737 303 q 777 308 831 308 l 831 308 l 1080 308 l 1080 273 l 830 273 q 764 273 717 265 q 669 256 641 230 l 641 230 q 623 215 614 193 q 605 171 605 144 l 605 144 q 605 88 637 56 q 668 23 725 23 l 725 23 q 776 23 809 45 q 842 67 858 116 q 874 164 874 244 l 874 244 q 874 255 873 268 q 872 280 871 291 l 871 291 l 870 301 q 861 370 830 420 q 798 470 749 497 q 700 524 638 524 l 638 524 q 599 524 569 514 q 538 504 513 483 l 513 483 q 493 466 479 440 q 464 414 457 379 q 449 343 449 297 l 449 297 l 449 198 l 422 200 l 422 362 q 430 428 459 472 q 487 515 533 538 q 579 560 639 560 z"},"ൺ":{"ha":1445,"x_min":47,"x_max":1403,"o":"m 336 560 l 336 560 q 423 560 472 521 q 520 482 539 417 l 539 417 l 533 415 q 548 479 590 520 q 631 560 707 560 l 707 560 q 779 560 822 523 q 865 485 877 416 l 877 416 l 878 391 l 891 306 l 891 0 l 853 0 l 853 315 q 853 377 845 414 q 836 451 815 477 l 815 477 q 797 499 771 512 q 744 524 705 524 l 705 524 q 667 524 640 512 q 613 499 596 477 l 596 477 q 574 450 565 412 q 556 374 556 314 l 556 314 l 556 0 l 517 0 l 517 309 q 517 384 500 425 q 482 465 452 489 l 452 489 q 428 508 401 516 q 374 524 335 524 l 335 524 q 257 524 201 486 q 144 448 114 383 q 84 317 84 233 l 84 233 l 84 226 q 84 157 101 112 q 118 67 150 45 q 181 23 223 23 l 223 23 q 253 23 277 36 q 301 48 316 76 q 330 104 330 151 l 330 151 q 330 203 302 238 q 273 272 215 272 l 215 272 q 169 272 130 250 q 90 227 66 200 l 66 200 l 58 233 q 92 270 135 289 q 177 307 219 307 l 219 307 q 260 307 294 290 q 328 272 349 238 q 369 203 369 152 l 369 152 q 369 97 350 61 q 330 24 297 6 q 264 -12 222 -12 l 222 -12 q 174 -12 135 12 q 95 36 71 89 q 47 142 47 228 l 47 228 q 47 329 83 403 q 119 477 184 519 q 249 560 336 560 z m 1229 -12 l 1229 -12 q 1178 -12 1139 11 q 1099 34 1077 83 q 1054 131 1054 207 l 1054 207 q 1054 277 1077 332 q 1099 387 1134 431 q 1168 475 1206 512 l 1206 512 l 1218 524 q 1257 563 1278 596 q 1298 629 1298 665 l 1298 665 q 1298 705 1276 731 q 1253 757 1200 757 l 1200 757 q 1175 757 1154 754 q 1133 751 1117 746 l 1117 746 l 1107 780 q 1124 785 1150 789 q 1176 792 1203 792 l 1203 792 q 1252 792 1282 774 q 1311 755 1324 727 q 1337 699 1337 670 l 1337 670 q 1337 626 1313 589 q 1288 551 1247 507 l 1247 507 l 1235 493 q 1191 447 1160 404 q 1128 361 1111 313 q 1093 265 1093 205 l 1093 205 q 1093 134 1112 95 q 1131 55 1163 39 q 1194 23 1230 23 l 1230 23 q 1290 23 1327 69 q 1364 115 1364 210 l 1364 210 q 1364 277 1346 334 q 1328 390 1295 432 q 1262 473 1215 497 l 1215 497 q 1187 512 1156 518 q 1125 524 1087 524 l 1087 524 q 1042 524 1011 514 q 980 504 958 485 l 958 485 q 935 466 921 441 q 906 415 899 377 q 891 338 891 282 l 891 282 l 891 75 l 861 75 l 865 250 l 868 395 q 881 452 911 488 q 941 524 985 542 q 1028 560 1085 560 l 1085 560 q 1129 560 1166 552 q 1202 543 1233 526 l 1233 526 q 1236 525 1239 524 q 1242 522 1244 520 l 1244 520 q 1295 491 1331 444 q 1366 397 1385 338 q 1403 279 1403 212 l 1403 212 q 1403 106 1357 47 q 1310 -12 1229 -12 z"},"ൻ":{"ha":1002,"x_min":44,"x_max":960,"o":"m 263 560 l 263 560 q 314 560 351 540 q 387 520 409 483 q 430 445 437 391 l 437 391 l 449 253 l 449 0 l 410 0 l 410 306 q 410 371 400 414 q 390 457 363 484 l 363 484 q 345 503 322 514 q 298 524 263 524 l 263 524 q 203 524 163 492 q 123 460 103 407 q 83 353 83 289 l 83 289 q 83 222 100 173 q 117 124 147 89 q 176 53 213 23 l 213 23 l 189 -6 q 148 28 115 68 q 82 108 63 161 q 44 214 44 289 l 44 289 q 44 371 71 432 q 98 492 147 526 q 196 560 263 560 z m 786 -12 l 786 -12 q 736 -12 696 11 q 656 34 634 83 q 611 131 611 207 l 611 207 q 611 277 634 332 q 656 387 691 431 q 726 475 764 512 l 764 512 l 775 524 q 815 563 836 596 q 856 629 856 665 l 856 665 q 856 705 833 731 q 810 757 758 757 l 758 757 q 733 757 712 754 q 690 751 674 746 l 674 746 l 665 780 q 682 785 708 789 q 733 792 760 792 l 760 792 q 809 792 839 774 q 868 755 882 727 q 895 699 895 670 l 895 670 q 895 626 870 589 q 845 551 804 507 l 804 507 l 792 493 q 749 447 717 404 q 685 361 668 313 q 650 265 650 205 l 650 205 q 650 134 670 95 q 689 55 721 39 q 752 23 787 23 l 787 23 q 848 23 885 69 q 921 115 921 210 l 921 210 q 921 277 903 334 q 885 390 852 432 q 819 473 772 497 l 772 497 q 744 512 713 518 q 682 524 644 524 l 644 524 q 599 524 569 514 q 538 504 515 485 l 515 485 q 493 466 478 441 q 463 415 456 377 q 449 338 449 282 l 449 282 l 449 75 l 419 75 l 422 250 l 425 395 q 438 452 468 488 q 498 524 542 542 q 586 560 642 560 l 642 560 q 686 560 723 552 q 759 543 791 526 l 791 526 q 793 525 796 524 q 799 522 802 520 l 802 520 q 852 491 888 444 q 923 397 942 338 q 960 279 960 212 l 960 212 q 960 106 914 47 q 867 -12 786 -12 z"},"ർ":{"ha":683,"x_min":42,"x_max":641,"o":"m 467 -12 l 467 -12 q 417 -12 377 11 q 337 34 315 83 q 292 131 292 207 l 292 207 q 292 277 315 332 q 338 386 373 430 q 408 474 445 512 l 445 512 l 456 524 q 495 564 516 597 q 537 629 537 665 l 537 665 q 537 705 514 731 q 491 757 439 757 l 439 757 q 414 757 393 754 q 371 751 355 746 l 355 746 l 346 780 q 363 785 389 789 q 414 792 442 792 l 442 792 q 490 792 520 774 q 549 755 563 727 q 576 699 576 670 l 576 670 q 576 626 552 588 q 528 549 486 507 l 486 507 l 474 493 q 430 448 398 405 q 366 361 349 313 q 332 265 332 205 l 332 205 q 332 134 351 95 q 370 55 402 39 q 433 23 468 23 l 468 23 q 529 23 566 69 q 602 115 602 210 l 602 210 q 602 260 592 305 q 582 349 563 386 q 543 422 516 451 q 488 479 453 497 l 453 497 q 425 512 394 518 q 362 524 327 524 l 327 524 q 254 524 199 493 q 143 462 113 406 q 82 350 82 275 l 82 275 q 82 216 98 170 q 113 124 143 88 q 172 52 213 23 l 213 23 l 191 -7 q 153 19 119 57 q 85 95 64 149 q 42 202 42 275 l 42 275 q 42 339 63 391 q 83 443 121 481 q 159 519 211 540 q 263 560 326 560 l 326 560 q 368 560 404 552 q 440 543 472 526 l 472 526 q 475 525 478 524 q 481 522 483 520 l 483 520 q 533 491 569 444 q 604 397 623 338 q 641 279 641 212 l 641 212 q 641 106 595 47 q 548 -12 467 -12 z"},"ൽ":{"ha":1100,"x_min":44,"x_max":1058,"o":"m 678 560 l 678 560 q 717 560 752 556 q 787 551 820 542 q 853 532 881 517 l 881 517 l 894 511 q 972 469 1015 394 q 1058 318 1058 212 l 1058 212 q 1058 106 1012 47 q 965 -12 884 -12 l 884 -12 q 833 -12 794 11 q 754 34 732 83 q 709 131 709 207 l 709 207 q 709 275 730 328 q 751 380 785 424 q 818 467 854 505 l 854 505 l 867 518 q 907 558 930 594 q 953 629 953 665 l 953 665 q 953 705 931 731 q 908 757 855 757 l 855 757 q 830 757 809 754 q 788 751 772 746 l 772 746 l 762 780 q 779 785 805 789 q 831 792 858 792 l 858 792 q 907 792 937 774 q 966 755 980 727 q 993 699 993 670 l 993 670 q 993 626 968 586 q 942 546 898 502 l 898 502 l 885 487 q 843 443 812 401 q 781 358 765 311 q 748 264 748 205 l 748 205 q 748 134 767 95 q 786 55 818 39 q 849 23 885 23 l 885 23 q 945 23 982 69 q 1019 115 1019 210 l 1019 210 q 1019 279 1001 333 q 982 386 948 425 q 914 463 866 487 l 866 487 l 854 492 q 817 508 773 516 q 729 524 680 524 l 680 524 q 631 524 586 516 q 541 507 502 490 l 502 490 l 490 483 q 422 448 382 379 q 342 310 342 208 l 342 208 q 342 141 360 101 q 377 60 408 42 q 439 23 479 23 l 479 23 q 518 23 549 43 q 579 62 597 104 q 615 146 615 212 l 615 212 q 615 267 597 321 q 579 374 546 418 q 513 462 467 488 l 467 488 l 456 494 q 428 509 396 517 q 364 525 328 525 l 328 525 q 245 525 191 491 q 136 457 110 400 q 83 343 83 275 l 83 275 q 83 215 99 169 q 114 122 144 87 q 173 51 215 21 l 215 21 l 193 -8 q 155 18 121 56 q 86 94 65 148 q 44 202 44 275 l 44 275 q 44 337 63 389 q 82 440 118 479 q 154 517 207 539 q 259 560 327 560 l 327 560 q 372 560 412 549 q 451 537 488 514 l 488 514 l 501 505 q 570 460 612 382 q 654 303 654 212 l 654 212 q 654 137 632 88 q 609 38 570 13 q 530 -12 479 -12 l 479 -12 q 427 -12 387 12 q 347 36 325 85 q 302 134 302 209 l 302 209 q 302 279 321 335 q 340 391 375 433 q 409 475 456 504 l 456 504 l 471 512 q 516 537 568 549 q 620 560 678 560 z"},"ൾ":{"ha":981,"x_min":47,"x_max":939,"o":"m 739 792 l 739 792 q 788 792 818 774 q 847 755 861 727 q 874 699 874 670 l 874 670 q 874 626 850 588 q 825 549 783 507 l 783 507 l 771 493 q 728 448 696 405 q 663 361 646 313 q 629 265 629 205 l 629 205 q 629 134 648 95 q 667 55 699 39 q 730 23 766 23 l 766 23 q 827 23 864 69 q 900 115 900 210 l 900 210 q 900 260 890 305 q 880 349 861 386 q 841 423 814 452 q 787 480 752 498 l 752 498 q 726 512 697 518 q 667 524 634 524 l 634 524 q 590 524 557 513 q 523 502 500 480 l 500 480 q 468 449 454 401 q 439 352 439 273 l 439 273 l 439 253 q 439 198 434 159 q 429 120 418 92 q 407 64 387 41 l 387 41 q 366 15 334 2 q 301 -12 255 -12 l 255 -12 q 191 -12 144 21 q 97 53 72 114 q 47 175 47 259 l 47 259 q 47 333 66 387 q 84 440 118 481 q 151 521 194 556 l 194 556 l 217 527 q 180 497 150 461 q 120 424 103 376 q 86 327 86 259 l 86 259 q 86 182 108 130 q 129 78 167 51 q 204 23 253 23 l 253 23 q 296 23 321 36 q 346 48 363 69 l 363 69 q 387 101 394 150 q 400 199 400 271 l 400 271 l 400 286 q 400 362 417 415 q 434 467 471 504 l 471 504 q 500 531 541 546 q 581 560 632 560 l 632 560 q 671 560 704 552 q 736 543 770 527 l 770 527 l 781 521 q 830 492 866 446 q 901 399 920 340 q 939 281 939 212 l 939 212 q 939 106 893 47 q 846 -12 765 -12 l 765 -12 q 715 -12 675 11 q 635 34 613 83 q 590 131 590 207 l 590 207 q 590 277 613 332 q 635 386 671 430 q 706 474 742 512 l 742 512 l 754 524 q 792 564 813 597 q 834 629 834 665 l 834 665 q 834 705 812 731 q 789 757 737 757 l 737 757 q 711 757 690 754 q 669 751 653 746 l 653 746 l 643 780 q 660 785 686 789 q 712 792 739 792 z"},"ൿ":{"ha":1116,"x_min":37,"x_max":1079,"o":"m 498 560 l 498 560 q 569 560 615 525 q 660 489 682 426 q 703 363 703 276 l 703 276 q 703 176 677 113 q 651 49 605 19 q 559 -12 496 -12 l 496 -12 q 447 -12 411 6 q 374 24 350 56 l 350 56 q 318 96 304 154 q 290 212 290 276 l 290 276 q 290 410 345 485 q 400 560 498 560 z m 498 525 l 498 525 q 414 525 371 460 q 328 394 328 275 l 328 275 q 328 190 348 135 q 368 79 406 51 q 443 23 494 23 l 494 23 q 548 23 586 49 q 624 75 644 131 q 664 187 664 276 l 664 276 q 664 362 645 417 q 626 472 589 499 q 552 525 498 525 z m 197 -12 l 197 -12 q 120 -12 79 29 q 37 70 37 143 l 37 143 q 37 185 54 214 q 70 243 97 262 l 97 262 q 123 280 155 290 q 186 300 228 304 q 269 307 322 307 l 322 307 l 847 307 q 906 307 948 299 q 990 290 1021 266 l 1021 266 q 1047 247 1063 218 q 1079 189 1079 146 l 1079 146 q 1079 68 1039 28 q 998 -12 930 -12 l 930 -12 q 860 -12 819 33 q 777 77 777 152 l 777 152 q 777 181 786 215 q 794 249 810 284 l 810 284 q 812 286 813 290 q 814 293 815 297 l 815 297 q 828 324 846 357 q 863 390 885 431 l 885 431 q 920 495 939 536 q 957 576 963 604 q 969 632 969 660 l 969 660 q 969 704 947 731 q 924 757 871 757 l 871 757 q 846 757 825 754 q 804 751 787 746 l 787 746 l 778 780 q 795 785 821 789 q 847 792 874 792 l 874 792 q 923 792 953 774 q 982 755 996 726 q 1009 696 1009 663 l 1009 663 q 1009 639 1005 616 q 1001 592 991 564 q 981 536 963 500 q 945 463 917 413 l 917 413 q 897 378 882 350 q 867 322 856 299 l 856 299 q 855 295 854 291 q 852 286 850 284 l 850 284 q 832 246 824 213 q 816 179 816 153 l 816 153 q 816 106 832 78 q 848 49 875 36 q 901 23 930 23 l 930 23 q 985 23 1013 54 q 1040 84 1040 145 l 1040 145 q 1040 178 1029 201 q 1017 224 996 239 l 996 239 q 971 258 937 265 q 903 272 848 272 l 848 272 l 317 272 q 249 272 202 266 q 154 259 120 235 l 120 235 q 100 220 88 198 q 76 175 76 143 l 76 143 q 76 97 93 71 q 110 45 139 34 q 167 23 200 23 l 200 23 q 243 23 277 37 q 310 50 354 80 l 354 80 l 377 53 q 351 34 324 19 q 297 4 267 -4 q 236 -12 197 -12 z"},"!":{"ha":241,"x_min":87,"x_max":154,"o":"m 136 179 l 105 179 l 99 714 l 143 714 l 136 179 z m 120 -9 l 120 -9 q 102 -9 95 2 q 87 12 87 30 l 87 30 q 87 46 95 57 q 102 68 120 68 l 120 68 q 140 68 147 57 q 154 46 154 30 l 154 30 q 154 13 147 2 q 140 -9 120 -9 z"},"\"":{"ha":374,"x_min":90,"x_max":285,"o":"m 127 542 l 97 542 l 90 800 l 135 800 l 127 542 z m 277 542 l 248 542 l 240 800 l 285 800 l 277 542 z"},"#":{"ha":646,"x_min":27,"x_max":619,"o":"m 162 0 l 126 0 l 169 223 l 27 223 l 27 257 l 175 257 l 213 457 l 70 457 l 70 491 l 219 491 l 262 714 l 298 714 l 255 491 l 441 491 l 484 714 l 520 714 l 477 491 l 619 491 l 619 457 l 471 457 l 433 257 l 576 257 l 576 223 l 427 223 l 384 0 l 348 0 l 391 223 l 205 223 l 162 0 z m 249 457 l 211 257 l 397 257 l 435 457 l 249 457 z"},"%":{"ha":801,"x_min":57,"x_max":744,"o":"m 223 0 l 184 0 l 577 714 l 617 714 l 223 0 z m 195 276 l 195 276 q 128 276 93 333 q 57 390 57 501 l 57 501 q 57 612 94 668 q 131 724 197 724 l 197 724 q 266 724 301 667 q 335 610 335 501 l 335 501 q 335 388 299 332 q 262 276 195 276 z m 195 310 l 195 310 q 248 310 274 359 q 299 407 299 501 l 299 501 q 299 594 275 643 q 250 691 197 691 l 197 691 q 147 691 120 644 q 93 597 93 501 l 93 501 q 93 406 120 358 q 146 310 195 310 z m 603 -10 l 603 -10 q 537 -10 501 47 q 465 104 465 215 l 465 215 q 465 326 502 382 q 539 438 605 438 l 605 438 q 675 438 710 381 q 744 323 744 215 l 744 215 q 744 102 707 46 q 670 -10 603 -10 z m 603 23 l 603 23 q 656 23 682 72 q 707 121 707 215 l 707 215 q 707 307 683 356 q 658 404 605 404 l 605 404 q 556 404 529 358 q 502 311 502 215 l 502 215 q 502 119 528 71 q 554 23 603 23 z"},"'":{"ha":224,"x_min":90,"x_max":135,"o":"m 127 542 l 97 542 l 90 800 l 135 800 l 127 542 z"},"(":{"ha":280,"x_min":56,"x_max":250,"o":"m 56 277 l 56 277 q 56 381 74 475 q 91 569 125 651 q 159 732 207 800 l 207 800 l 250 800 q 199 728 164 644 q 129 560 113 468 q 96 376 96 278 l 96 278 q 96 180 113 88 q 129 -4 164 -87 q 198 -171 250 -244 l 250 -244 l 207 -244 q 159 -176 125 -94 q 91 -13 74 81 q 56 174 56 277 z"},")":{"ha":280,"x_min":30,"x_max":224,"o":"m 224 279 l 224 279 q 224 175 207 81 q 189 -13 156 -94 q 122 -175 73 -244 l 73 -244 l 30 -244 q 83 -172 117 -88 q 151 -4 168 88 q 185 180 185 278 l 185 278 q 185 377 168 469 q 151 560 117 644 q 83 727 30 800 l 30 800 l 73 800 q 122 732 156 651 q 189 569 207 476 q 224 383 224 279 z"},"*":{"ha":521,"x_min":45,"x_max":476,"o":"m 239 800 l 282 800 l 275 599 l 467 663 l 476 622 l 284 573 l 406 412 l 370 389 l 261 559 l 152 389 l 116 412 l 237 573 l 45 622 l 55 663 l 246 599 l 239 800 z"},"+":{"ha":572,"x_min":55,"x_max":517,"o":"m 304 121 l 268 121 l 268 335 l 55 335 l 55 370 l 268 370 l 268 585 l 304 585 l 304 370 l 517 370 l 517 335 l 304 335 l 304 121 z"},",":{"ha":215,"x_min":36,"x_max":137,"o":"m 91 116 l 131 116 l 137 107 q 131 67 121 26 q 110 -15 96 -54 q 82 -94 67 -129 l 67 -129 l 36 -129 q 49 -93 60 -50 q 71 -7 80 37 q 88 80 91 116 l 91 116 z"},"-":{"ha":320,"x_min":40,"x_max":280,"o":"m 280 250 l 40 250 l 40 287 l 280 287 l 280 250 z"},".":{"ha":219,"x_min":76,"x_max":143,"o":"m 109 -9 l 109 -9 q 91 -9 84 2 q 76 12 76 30 l 76 30 q 76 47 84 58 q 91 68 109 68 l 109 68 q 128 68 136 58 q 143 47 143 30 l 143 30 q 143 12 136 2 q 128 -9 109 -9 z"},"/":{"ha":355,"x_min":25,"x_max":330,"o":"m 64 -244 l 25 -244 l 291 800 l 330 800 l 64 -244 z"},":":{"ha":219,"x_min":76,"x_max":143,"o":"m 109 -9 l 109 -9 q 91 -9 84 2 q 76 12 76 30 l 76 30 q 76 47 84 58 q 91 68 109 68 l 109 68 q 128 68 136 58 q 143 47 143 30 l 143 30 q 143 12 136 2 q 128 -9 109 -9 z m 109 467 l 109 467 q 91 467 84 477 q 76 487 76 505 l 76 505 q 76 522 84 533 q 91 544 109 544 l 109 544 q 128 544 136 533 q 143 522 143 505 l 143 505 q 143 487 136 477 q 128 467 109 467 z"},";":{"ha":219,"x_min":36,"x_max":143,"o":"m 91 116 l 131 116 l 137 107 q 131 67 121 26 q 110 -15 96 -54 q 82 -94 67 -129 l 67 -129 l 36 -129 q 50 -93 61 -49 q 72 -6 80 37 q 88 80 91 116 l 91 116 z m 109 467 l 109 467 q 91 467 84 477 q 76 487 76 505 l 76 505 q 76 522 84 533 q 91 544 109 544 l 109 544 q 128 544 136 533 q 143 522 143 505 l 143 505 q 143 487 136 477 q 128 467 109 467 z"},"<":{"ha":572,"x_min":56,"x_max":516,"o":"m 516 163 l 516 125 l 56 338 l 56 366 l 516 585 l 516 547 l 101 353 l 516 163 z"},"=":{"ha":572,"x_min":56,"x_max":516,"o":"m 516 234 l 56 234 l 56 269 l 516 269 l 516 234 z m 516 437 l 56 437 l 56 472 l 516 472 l 516 437 z"},">":{"ha":572,"x_min":56,"x_max":516,"o":"m 516 338 l 56 125 l 56 163 l 471 353 l 56 547 l 56 585 l 516 366 l 516 338 z"},"?":{"ha":420,"x_min":38,"x_max":382,"o":"m 191 724 l 191 724 q 277 724 330 681 q 382 637 382 552 l 382 552 q 382 503 367 468 q 351 433 323 406 q 294 378 255 349 l 255 349 q 226 329 210 309 q 193 288 187 261 q 180 234 180 191 l 180 191 l 180 180 l 146 180 l 146 193 q 146 240 153 271 q 160 302 179 326 q 197 350 231 375 l 231 375 q 266 401 291 425 q 316 449 330 479 q 343 508 343 551 l 343 551 q 343 620 301 654 q 258 688 191 688 l 191 688 q 153 688 119 678 q 85 668 53 650 l 53 650 l 38 684 q 73 703 112 714 q 150 724 191 724 z m 164 -9 l 164 -9 q 147 -9 139 2 q 131 12 131 30 l 131 30 q 131 47 139 58 q 147 68 164 68 l 164 68 q 184 68 191 58 q 198 47 198 30 l 198 30 q 198 12 191 2 q 184 -9 164 -9 z"},"[":{"ha":309,"x_min":91,"x_max":268,"o":"m 268 -244 l 91 -244 l 91 800 l 268 800 l 268 765 l 130 765 l 130 -209 l 268 -209 l 268 -244 z"},"\\":{"ha":355,"x_min":25,"x_max":330,"o":"m 330 -244 l 291 -244 l 25 800 l 64 800 l 330 -244 z"},"]":{"ha":315,"x_min":46,"x_max":223,"o":"m 223 -244 l 46 -244 l 46 -209 l 184 -209 l 184 765 l 46 765 l 46 800 l 223 800 l 223 -244 z"},"^":{"ha":572,"x_min":45,"x_max":525,"o":"m 85 276 l 45 276 l 271 719 l 300 719 l 525 276 l 486 276 l 286 676 l 85 276 z"},"_":{"ha":444,"x_min":-2,"x_max":446,"o":"m 446 -123 l -2 -123 l -2 -90 l 446 -90 l 446 -123 z"},"{":{"ha":349,"x_min":30,"x_max":310,"o":"m 310 -208 l 310 -244 q 254 -244 217 -230 q 179 -216 162 -185 q 144 -154 144 -103 l 144 -103 l 144 146 q 144 210 118 235 q 91 260 30 260 l 30 260 l 30 296 q 91 296 118 323 q 144 349 144 412 l 144 412 l 144 656 q 144 704 164 736 q 183 767 220 784 q 257 800 310 800 l 310 800 l 310 764 q 245 764 214 739 q 183 713 183 653 l 183 653 l 183 409 q 183 356 164 322 q 144 288 97 279 l 97 279 l 97 277 q 143 266 163 236 q 183 206 183 149 l 183 149 l 183 -99 q 183 -141 195 -165 q 207 -189 235 -198 q 263 -208 310 -208 l 310 -208 z"},"|":{"ha":520,"x_min":242,"x_max":278,"o":"m 278 -244 l 242 -244 l 242 800 l 278 800 l 278 -244 z"},"}":{"ha":349,"x_min":39,"x_max":319,"o":"m 39 764 l 39 800 q 96 800 133 786 q 170 772 188 741 q 205 710 205 659 l 205 659 l 205 410 q 205 346 232 321 q 258 296 319 296 l 319 296 l 319 260 q 258 260 232 234 q 205 208 205 144 l 205 144 l 205 -100 q 205 -147 186 -179 q 167 -211 130 -227 q 92 -244 39 -244 l 39 -244 l 39 -208 q 105 -208 136 -182 q 166 -157 166 -97 l 166 -97 l 166 147 q 166 200 186 234 q 206 268 252 277 l 252 277 l 252 279 q 206 290 186 320 q 166 349 166 407 l 166 407 l 166 655 q 166 698 154 722 q 142 745 115 755 q 87 764 39 764 l 39 764 z"},"~":{"ha":572,"x_min":55,"x_max":517,"o":"m 278 337 l 278 337 q 249 351 224 359 q 199 367 170 367 l 170 367 q 141 367 112 354 q 83 340 55 312 l 55 312 l 55 353 q 78 376 108 389 q 137 402 171 402 l 171 402 q 203 402 232 394 q 261 385 293 370 l 293 370 q 323 356 348 348 q 373 339 403 339 l 403 339 q 432 339 461 353 q 489 366 517 394 l 517 394 l 517 353 q 494 330 465 317 q 435 304 401 304 l 401 304 q 369 304 340 313 q 311 321 278 337 z"}," ":{"ha":309,"x_min":0,"x_max":0,"o":""},"­":{"ha":320,"x_min":40,"x_max":280,"o":"m 280 250 l 40 250 l 40 287 l 280 287 l 280 250 z"},"–":{"ha":500,"x_min":40,"x_max":460,"o":"m 460 251 l 40 251 l 40 288 l 460 288 l 460 251 z"},"—":{"ha":1000,"x_min":40,"x_max":960,"o":"m 960 251 l 40 251 l 40 288 l 960 288 l 960 251 z"},"‘":{"ha":191,"x_min":44,"x_max":145,"o":"m 90 555 l 50 555 l 44 564 q 50 604 61 645 q 71 686 85 726 q 99 766 114 800 l 114 800 l 145 800 q 132 764 121 721 q 109 677 102 634 q 94 591 90 555 l 90 555 z"},"’":{"ha":191,"x_min":44,"x_max":145,"o":"m 99 800 l 139 800 l 145 791 q 139 751 129 710 q 118 669 104 630 q 90 590 75 555 l 75 555 l 44 555 q 54 582 63 614 q 71 645 79 678 q 86 711 91 742 q 96 773 99 800 l 99 800 z"},"“":{"ha":344,"x_min":44,"x_max":298,"o":"m 243 555 l 203 555 l 197 564 q 204 604 214 645 q 224 686 238 726 q 252 766 267 800 l 267 800 l 298 800 q 285 764 274 721 q 262 677 255 634 q 247 591 243 555 l 243 555 z m 90 555 l 50 555 l 44 564 q 51 604 61 645 q 71 686 85 726 q 99 766 114 800 l 114 800 l 145 800 q 132 764 121 721 q 109 677 102 634 q 94 591 90 555 l 90 555 z"},"”":{"ha":344,"x_min":44,"x_max":298,"o":"m 252 800 l 292 800 l 298 791 q 292 751 281 710 q 270 669 257 630 q 243 590 228 555 l 228 555 l 197 555 q 211 591 222 635 q 233 678 241 721 q 249 764 252 800 l 252 800 z m 99 800 l 139 800 l 145 791 q 139 751 129 710 q 118 669 104 630 q 90 590 75 555 l 75 555 l 44 555 q 54 582 63 614 q 71 645 79 678 q 86 711 91 742 q 96 773 99 800 l 99 800 z"},"…":{"ha":655,"x_min":76,"x_max":579,"o":"m 109 -9 l 109 -9 q 91 -9 84 2 q 76 12 76 30 l 76 30 q 76 47 84 58 q 91 68 109 68 l 109 68 q 128 68 136 58 q 143 47 143 30 l 143 30 q 143 12 136 2 q 128 -9 109 -9 z m 326 -9 l 326 -9 q 309 -9 302 2 q 294 12 294 30 l 294 30 q 294 47 302 58 q 309 68 326 68 l 326 68 q 346 68 353 58 q 360 47 360 30 l 360 30 q 360 12 353 2 q 346 -9 326 -9 z m 545 -9 l 545 -9 q 528 -9 520 2 q 512 12 512 30 l 512 30 q 512 47 520 58 q 528 68 545 68 l 545 68 q 565 68 572 58 q 579 47 579 30 l 579 30 q 579 12 572 2 q 565 -9 545 -9 z"},"×":{"ha":572,"x_min":71,"x_max":501,"o":"m 286 377 l 477 568 l 501 544 l 311 353 l 501 162 l 477 138 l 286 329 l 96 138 l 71 162 l 262 353 l 71 544 l 95 568 l 286 377 z"},"÷":{"ha":572,"x_min":55,"x_max":517,"o":"m 517 335 l 55 335 l 55 370 l 517 370 l 517 335 z m 285 139 l 285 139 q 268 139 261 150 q 254 160 254 176 l 254 176 q 254 192 261 203 q 268 213 285 213 l 285 213 q 305 213 312 203 q 318 192 318 176 l 318 176 q 318 160 312 150 q 305 139 285 139 z m 285 492 l 285 492 q 268 492 261 503 q 254 513 254 529 l 254 529 q 254 545 261 556 q 268 566 285 566 l 285 566 q 305 566 312 556 q 318 545 318 529 l 318 529 q 318 513 312 503 q 305 492 285 492 z"},"−":{"ha":572,"x_min":55,"x_max":517,"o":"m 517 335 l 55 335 l 55 370 l 517 370 l 517 335 z"},"₹":{"ha":572,"x_min":77,"x_max":507,"o":"m 375 0 l 325 0 l 82 306 l 86 340 l 114 340 q 171 340 205 352 q 239 364 261 387 l 261 387 q 279 408 289 438 q 298 467 298 507 l 298 507 q 298 543 292 569 q 286 595 273 616 l 273 616 q 254 647 221 664 q 188 681 126 681 l 126 681 l 77 681 l 77 714 l 507 714 l 507 681 l 241 681 q 286 664 312 622 q 337 579 337 509 l 337 509 q 337 444 315 400 q 292 355 244 332 q 196 308 119 306 l 119 306 l 122 315 l 375 0 z m 507 495 l 77 495 l 77 528 l 507 528 l 507 495 z"},"꠰":{"ha":205,"x_min":84,"x_max":122,"o":"m 84 0 l 84 548 l 122 548 l 122 0 l 84 0 z"},"꠱":{"ha":397,"x_min":84,"x_max":313,"o":"m 84 0 l 84 548 l 122 548 l 122 0 l 84 0 z m 275 0 l 275 548 l 313 548 l 313 0 l 275 0 z"},"꠲":{"ha":588,"x_min":84,"x_max":505,"o":"m 84 0 l 84 548 l 122 548 l 122 0 l 84 0 z m 275 0 l 275 548 l 313 548 l 313 0 l 275 0 z m 466 0 l 466 548 l 505 548 l 505 0 l 466 0 z"},"॑":{"ha":0,"x_min":-295,"x_max":-260,"o":"m -295 653 l -295 864 l -260 864 l -260 653 l -295 653 z"},"॒":{"ha":0,"x_min":-469,"x_max":-86,"o":"m -86 -128 l -86 -162 l -469 -162 l -469 -128 l -86 -128 z"},"।":{"ha":317,"x_min":186,"x_max":224,"o":"m 224 -49 l 186 -49 l 186 597 l 224 597 l 224 -49 z"},"॥":{"ha":527,"x_min":186,"x_max":434,"o":"m 434 -49 l 396 -49 l 396 597 l 434 597 l 434 -49 z m 224 -49 l 186 -49 l 186 597 l 224 597 l 224 -49 z"},"᳚":{"ha":0,"x_min":-354,"x_max":-203,"o":"m -354 653 l -354 864 l -319 864 l -319 653 l -354 653 z m -237 653 l -237 864 l -203 864 l -203 653 l -237 653 z"},"̇":{"ha":0,"x_min":-309,"x_max":-247,"o":"m -309 701 l -309 701 q -309 716 -302 727 q -295 737 -279 737 l -279 737 q -260 737 -253 727 q -247 716 -247 701 l -247 701 q -247 685 -253 675 q -260 665 -279 665 l -279 665 q -295 665 -302 675 q -309 685 -309 701 z"},"̣":{"ha":0,"x_min":-309,"x_max":-247,"o":"m -309 -135 l -309 -135 q -309 -120 -302 -109 q -295 -99 -279 -99 l -279 -99 q -260 -99 -253 -109 q -247 -120 -247 -135 l -247 -135 q -247 -151 -253 -161 q -260 -171 -279 -171 l -279 -171 q -295 -171 -302 -161 q -309 -151 -309 -135 z"},"‐":{"ha":320,"x_min":40,"x_max":280,"o":"m 280 250 l 40 250 l 40 287 l 280 287 l 280 250 z"},"​":{"ha":0,"x_min":0,"x_max":0,"o":""},"‌":{"ha":0,"x_min":0,"x_max":0,"o":""},"‍":{"ha":0,"x_min":-161,"x_max":161,"o":"m 29 -244 l -29 -244 l -29 565 l -121 474 l -161 514 l -40 631 l -161 748 l -121 788 l 0 669 l 121 788 l 161 748 l 40 631 l 161 514 l 121 474 l 29 565 l 29 -244 z"},"◌":{"ha":562,"x_min":57,"x_max":504,"o":"m 89 231 l 89 231 q 57 231 57 264 l 57 264 q 57 295 89 295 l 89 295 q 121 295 121 264 l 121 264 q 121 231 89 231 z m 138 95 l 138 95 q 106 95 106 127 l 106 127 q 106 158 138 158 l 138 158 q 169 158 169 127 l 169 127 q 169 95 138 95 z m 281 40 l 281 40 q 249 40 249 72 l 249 72 q 249 104 281 104 l 281 104 q 312 104 312 72 l 312 72 q 312 40 281 40 z m 138 369 l 138 369 q 106 369 106 401 l 106 401 q 106 432 138 432 l 138 432 q 169 432 169 401 l 169 401 q 169 369 138 369 z m 423 95 l 423 95 q 391 95 391 127 l 391 127 q 391 158 423 158 l 423 158 q 455 158 455 127 l 455 127 q 455 95 423 95 z m 281 424 l 281 424 q 249 424 249 456 l 249 456 q 249 487 281 487 l 281 487 q 312 487 312 456 l 312 456 q 312 424 281 424 z m 472 231 l 472 231 q 441 231 441 264 l 441 264 q 441 295 472 295 l 472 295 q 504 295 504 264 l 504 264 q 504 231 472 231 z m 423 369 l 423 369 q 391 369 391 401 l 391 401 q 391 432 423 432 l 423 432 q 455 432 455 401 l 455 401 q 455 369 423 369 z"},"«":{"ha":413,"x_min":29,"x_max":385,"o":"m 29 269 l 29 282 l 184 472 l 210 455 l 72 276 l 210 97 l 184 81 l 29 269 z m 204 269 l 204 282 l 359 472 l 385 455 l 247 276 l 385 97 l 359 81 l 204 269 z"},"»":{"ha":413,"x_min":29,"x_max":385,"o":"m 385 284 l 385 271 l 229 81 l 204 98 l 341 277 l 204 456 l 229 472 l 385 284 z m 209 284 l 209 271 l 54 81 l 29 98 l 166 277 l 29 456 l 54 472 l 209 284 z"},"̈":{"ha":0,"x_min":-122,"x_max":121,"o":"m -122 679 l -122 679 q -122 693 -115 703 q -109 713 -94 713 l -94 713 q -77 713 -71 703 q -65 693 -65 679 l -65 679 q -65 663 -71 654 q -77 644 -94 644 l -94 644 q -109 644 -115 654 q -122 663 -122 679 z m 63 679 l 63 679 q 63 693 70 703 q 77 713 91 713 l 91 713 q 108 713 114 703 q 120 693 120 679 l 120 679 q 120 663 114 654 q 108 644 91 644 l 91 644 q 77 644 70 654 q 63 663 63 679 z"},"̀":{"ha":0,"x_min":-456,"x_max":-280,"o":"m -456 766 l -411 766 q -397 745 -374 717 q -352 688 -326 661 q -301 633 -280 613 l -280 613 l -280 606 l -309 606 q -329 622 -349 642 q -370 661 -389 682 q -409 703 -426 723 q -444 742 -456 758 l -456 758 l -456 766 z"},"́":{"ha":0,"x_min":-233,"x_max":-58,"o":"m -57 766 l -57 758 q -70 742 -87 723 q -104 703 -124 682 q -144 661 -164 642 q -185 622 -204 606 l -204 606 l -233 606 l -233 613 q -212 633 -187 661 q -162 688 -139 717 q -116 745 -103 766 l -103 766 l -57 766 z"},"̋":{"ha":0,"x_min":-99,"x_max":212,"o":"m 212 766 l 212 758 q 202 741 188 722 q 173 702 157 682 q 141 661 124 642 q 107 622 91 606 l 91 606 l 64 606 l 64 613 q 81 633 101 660 q 121 687 140 716 q 158 744 169 766 l 169 766 l 212 766 z m 49 766 l 49 758 q 39 741 25 722 q 10 702 -6 682 q -22 661 -39 642 q -56 622 -72 606 l -72 606 l -99 606 l -99 613 q -82 633 -62 660 q -42 687 -23 716 q -5 744 6 766 l 6 766 l 49 766 z"},"̄":{"ha":0,"x_min":-133,"x_max":131,"o":"m -133 646 l 131 646 l 131 612 l -133 612 l -133 646 z"},"˙":{"ha":142,"x_min":40,"x_max":102,"o":"m 70 724 l 70 724 q 89 724 96 714 q 102 704 102 688 l 102 688 q 102 672 96 662 q 89 652 70 652 l 70 652 q 54 652 47 662 q 40 672 40 688 l 40 688 q 40 704 47 714 q 54 724 70 724 z"},"°":{"ha":428,"x_min":68,"x_max":360,"o":"m 214 436 l 214 436 q 172 436 139 454 q 106 472 87 505 q 68 537 68 580 l 68 580 q 68 624 87 656 q 106 688 139 706 q 172 724 214 724 l 214 724 q 256 724 290 706 q 323 687 342 655 q 360 623 360 580 l 360 580 q 360 537 342 505 q 323 472 290 454 q 256 436 214 436 z m 213 468 l 213 468 q 264 468 295 500 q 326 531 326 580 l 326 580 q 326 632 295 662 q 263 692 213 692 l 213 692 q 162 692 132 662 q 102 632 102 580 l 102 580 q 102 531 132 500 q 162 468 213 468 z"},"A":{"ha":590,"x_min":0,"x_max":589,"o":"m 589 0 l 548 0 l 448 261 l 143 261 l 41 0 l 0 0 l 281 716 l 318 716 l 589 0 z m 434 297 l 330 578 q 327 590 322 605 q 316 619 310 636 q 304 653 298 670 l 298 670 q 293 654 288 638 q 282 621 276 606 q 270 591 265 578 l 265 578 l 157 297 l 434 297 z"},"Á":{"ha":590,"x_min":0,"x_max":589,"o":"m 589 0 l 548 0 l 448 261 l 143 261 l 41 0 l 0 0 l 281 716 l 318 716 l 589 0 z m 434 297 l 330 578 q 327 590 322 605 q 316 619 310 636 q 304 653 298 670 l 298 670 q 293 654 288 638 q 282 621 276 606 q 270 591 265 578 l 265 578 l 157 297 l 434 297 z m 425 950 l 425 942 q 412 926 395 907 q 378 887 358 866 q 338 845 318 826 q 297 806 278 790 l 278 790 l 249 790 l 249 797 q 270 817 295 845 q 320 872 343 901 q 366 929 379 950 l 379 950 l 425 950 z"},"Ă":{"ha":590,"x_min":0,"x_max":589,"o":"m 589 0 l 548 0 l 448 261 l 143 261 l 41 0 l 0 0 l 281 716 l 318 716 l 589 0 z m 434 297 l 330 578 q 327 590 322 605 q 316 619 310 636 q 304 653 298 670 l 298 670 q 293 654 288 638 q 282 621 276 606 q 270 591 265 578 l 265 578 l 157 297 l 434 297 z m 393 906 l 424 906 q 421 870 405 844 q 388 818 361 804 q 333 790 294 790 l 294 790 q 236 790 204 820 q 171 850 166 906 l 166 906 l 197 906 q 200 880 212 862 q 223 843 244 834 q 265 824 295 824 l 295 824 q 326 824 347 834 q 368 843 379 862 q 390 880 393 906 l 393 906 z"},"Â":{"ha":590,"x_min":0,"x_max":589,"o":"m 589 0 l 548 0 l 448 261 l 143 261 l 41 0 l 0 0 l 281 716 l 318 716 l 589 0 z m 434 297 l 330 578 q 327 590 322 605 q 316 619 310 636 q 304 653 298 670 l 298 670 q 293 654 288 638 q 282 621 276 606 q 270 591 265 578 l 265 578 l 157 297 l 434 297 z m 277 948 l 313 948 q 325 927 346 900 q 366 872 389 845 q 411 818 429 797 l 429 797 l 429 790 l 400 790 q 373 816 345 848 q 317 880 295 908 l 295 908 q 273 880 245 848 q 217 816 189 790 l 189 790 l 160 790 l 160 797 q 179 818 202 845 q 224 872 245 900 q 265 927 277 948 l 277 948 z"},"Ä":{"ha":590,"x_min":0,"x_max":589,"o":"m 589 0 l 548 0 l 448 261 l 143 261 l 41 0 l 0 0 l 281 716 l 318 716 l 589 0 z m 434 297 l 330 578 q 327 590 322 605 q 316 619 310 636 q 304 653 298 670 l 298 670 q 293 654 288 638 q 282 621 276 606 q 270 591 265 578 l 265 578 l 157 297 l 434 297 z m 174 863 l 174 863 q 174 877 181 887 q 187 897 202 897 l 202 897 q 219 897 225 887 q 231 877 231 863 l 231 863 q 231 847 225 838 q 219 828 202 828 l 202 828 q 187 828 181 838 q 174 847 174 863 z m 359 863 l 359 863 q 359 877 366 887 q 373 897 387 897 l 387 897 q 404 897 410 887 q 416 877 416 863 l 416 863 q 416 847 410 838 q 404 828 387 828 l 387 828 q 373 828 366 838 q 359 847 359 863 z"},"À":{"ha":590,"x_min":0,"x_max":589,"o":"m 589 0 l 548 0 l 448 261 l 143 261 l 41 0 l 0 0 l 281 716 l 318 716 l 589 0 z m 434 297 l 330 578 q 327 590 322 605 q 316 619 310 636 q 304 653 298 670 l 298 670 q 293 654 288 638 q 282 621 276 606 q 270 591 265 578 l 265 578 l 157 297 l 434 297 z m 202 950 l 247 950 q 261 929 284 901 q 306 872 332 845 q 357 817 378 797 l 378 797 l 378 790 l 349 790 q 329 806 309 826 q 288 845 269 866 q 249 887 232 907 q 214 926 202 942 l 202 942 l 202 950 z"},"Ā":{"ha":590,"x_min":0,"x_max":589,"o":"m 589 0 l 548 0 l 448 261 l 143 261 l 41 0 l 0 0 l 281 716 l 318 716 l 589 0 z m 434 297 l 330 578 q 327 590 322 605 q 316 619 310 636 q 304 653 298 670 l 298 670 q 293 654 288 638 q 282 621 276 606 q 270 591 265 578 l 265 578 l 157 297 l 434 297 z m 163 830 l 427 830 l 427 796 l 163 796 l 163 830 z"},"Ą":{"ha":590,"x_min":0,"x_max":589,"o":"m 589 0 l 548 0 l 448 261 l 143 261 l 41 0 l 0 0 l 281 716 l 318 716 l 589 0 z m 434 297 l 330 578 q 327 590 322 605 q 316 619 310 636 q 304 653 298 670 l 298 670 q 293 654 288 638 q 282 621 276 606 q 270 591 265 578 l 265 578 l 157 297 l 434 297 z m 485 -128 l 485 -128 q 485 -156 499 -171 q 513 -186 541 -186 l 541 -186 q 555 -186 568 -183 q 581 -181 589 -179 l 589 -179 l 589 -209 q 579 -213 566 -215 q 553 -218 536 -218 l 536 -218 q 498 -218 474 -196 q 450 -175 450 -133 l 450 -133 q 450 -108 462 -84 q 473 -60 495 -36 q 516 -12 548 12 l 548 12 l 572 0 q 538 -28 512 -59 q 485 -91 485 -128 z"},"Å":{"ha":590,"x_min":0,"x_max":589,"o":"m 589 0 l 548 0 l 448 261 l 143 261 l 41 0 l 0 0 l 281 716 l 318 716 l 589 0 z m 434 297 l 330 578 q 327 590 322 605 q 316 619 310 636 q 304 653 298 670 l 298 670 q 293 654 288 638 q 282 621 276 606 q 270 591 265 578 l 265 578 l 157 297 l 434 297 z m 297 690 l 297 690 q 255 690 225 718 q 194 745 194 791 l 194 791 q 194 836 224 864 q 254 892 297 892 l 297 892 q 339 892 369 863 q 399 834 399 791 l 399 791 q 399 746 369 718 q 339 690 297 690 z m 297 719 l 297 719 q 329 719 349 740 q 369 761 369 791 l 369 791 q 369 822 348 843 q 326 863 297 863 l 297 863 q 265 863 245 843 q 224 822 224 791 l 224 791 q 224 761 244 740 q 264 719 297 719 z"},"Ã":{"ha":590,"x_min":0,"x_max":589,"o":"m 589 0 l 548 0 l 448 261 l 143 261 l 41 0 l 0 0 l 281 716 l 318 716 l 589 0 z m 434 297 l 330 578 q 327 590 322 605 q 316 619 310 636 q 304 653 298 670 l 298 670 q 293 654 288 638 q 282 621 276 606 q 270 591 265 578 l 265 578 l 157 297 l 434 297 z m 159 800 l 129 800 q 131 826 139 846 q 146 865 158 878 q 170 890 186 897 q 202 904 222 904 l 222 904 q 247 904 266 893 q 284 882 301 868 q 317 854 334 843 q 350 832 369 832 l 369 832 q 392 832 410 847 q 428 861 432 904 l 432 904 l 463 904 q 458 853 433 826 q 408 799 368 799 l 368 799 q 344 799 325 810 q 306 821 290 835 q 273 849 257 860 q 241 870 220 870 l 220 870 q 199 870 182 856 q 165 841 159 800 l 159 800 z"},"Æ":{"ha":787,"x_min":-1,"x_max":764,"o":"m 764 36 l 764 0 l 382 0 l 382 260 l 155 260 l 43 0 l -1 0 l 313 714 l 764 714 l 764 678 l 421 678 l 421 394 l 745 394 l 745 358 l 421 358 l 421 36 l 764 36 z m 337 678 l 172 296 l 382 296 l 382 678 l 337 678 z"},"B":{"ha":621,"x_min":102,"x_max":565,"o":"m 102 714 l 295 714 q 427 714 487 672 q 546 629 546 541 l 546 541 q 546 501 530 467 q 514 432 483 409 q 451 385 406 377 l 406 377 l 406 375 q 462 366 497 344 q 532 321 549 286 q 565 250 565 203 l 565 203 q 565 132 533 87 q 500 41 443 21 q 386 0 312 0 l 312 0 l 102 0 l 102 714 z m 141 392 l 306 392 q 409 392 457 429 q 505 466 505 538 l 505 538 q 505 613 455 646 q 405 678 294 678 l 294 678 l 141 678 l 141 392 z m 305 357 l 141 357 l 141 35 l 315 35 q 416 35 470 77 q 524 118 524 204 l 524 204 q 524 261 499 295 q 473 328 425 343 q 376 357 305 357 l 305 357 z"},"C":{"ha":618,"x_min":63,"x_max":587,"o":"m 405 688 l 405 688 q 333 688 277 664 q 221 639 183 596 q 144 552 124 492 q 103 431 103 359 l 103 359 q 103 259 135 184 q 167 109 231 68 q 295 26 389 26 l 389 26 q 445 26 490 34 q 534 42 571 55 l 571 55 l 571 21 q 536 7 491 -1 q 446 -10 387 -10 l 387 -10 q 280 -10 208 36 q 136 82 100 165 q 63 248 63 360 l 63 360 q 63 438 86 505 q 108 571 153 620 q 197 669 261 697 q 324 724 405 724 l 405 724 q 455 724 501 715 q 546 705 587 686 l 587 686 l 571 651 q 530 672 489 680 q 447 688 405 688 z"},"Ć":{"ha":618,"x_min":63,"x_max":587,"o":"m 405 688 l 405 688 q 333 688 277 664 q 221 639 183 596 q 144 552 124 492 q 103 431 103 359 l 103 359 q 103 259 135 184 q 167 109 231 68 q 295 26 389 26 l 389 26 q 445 26 490 34 q 534 42 571 55 l 571 55 l 571 21 q 536 7 491 -1 q 446 -10 387 -10 l 387 -10 q 280 -10 208 36 q 136 82 100 165 q 63 248 63 360 l 63 360 q 63 438 86 505 q 108 571 153 620 q 197 669 261 697 q 324 724 405 724 l 405 724 q 455 724 501 715 q 546 705 587 686 l 587 686 l 571 651 q 530 672 489 680 q 447 688 405 688 z m 516 950 l 516 942 q 503 926 486 907 q 469 887 449 866 q 429 845 409 826 q 388 806 369 790 l 369 790 l 340 790 l 340 797 q 361 817 386 845 q 411 872 434 901 q 457 929 470 950 l 470 950 l 516 950 z"},"Č":{"ha":618,"x_min":63,"x_max":587,"o":"m 405 688 l 405 688 q 333 688 277 664 q 221 639 183 596 q 144 552 124 492 q 103 431 103 359 l 103 359 q 103 259 135 184 q 167 109 231 68 q 295 26 389 26 l 389 26 q 445 26 490 34 q 534 42 571 55 l 571 55 l 571 21 q 536 7 491 -1 q 446 -10 387 -10 l 387 -10 q 280 -10 208 36 q 136 82 100 165 q 63 248 63 360 l 63 360 q 63 438 86 505 q 108 571 153 620 q 197 669 261 697 q 324 724 405 724 l 405 724 q 455 724 501 715 q 546 705 587 686 l 587 686 l 571 651 q 530 672 489 680 q 447 688 405 688 z m 403 790 l 367 790 q 355 811 335 839 q 314 866 292 893 q 270 920 251 940 l 251 940 l 251 948 l 280 948 q 308 922 336 890 q 363 858 385 829 l 385 829 q 407 858 436 890 q 464 922 491 948 l 491 948 l 520 948 l 520 940 q 502 920 479 893 q 456 866 436 839 q 415 811 403 790 l 403 790 z"},"Ç":{"ha":618,"x_min":63,"x_max":587,"o":"m 405 688 l 405 688 q 333 688 277 664 q 221 639 183 596 q 144 552 124 492 q 103 431 103 359 l 103 359 q 103 259 135 184 q 167 109 231 68 q 295 26 389 26 l 389 26 q 445 26 490 34 q 534 42 571 55 l 571 55 l 571 21 q 536 7 491 -1 q 446 -10 387 -10 l 387 -10 q 280 -10 208 36 q 136 82 100 165 q 63 248 63 360 l 63 360 q 63 438 86 505 q 108 571 153 620 q 197 669 261 697 q 324 724 405 724 l 405 724 q 455 724 501 715 q 546 705 587 686 l 587 686 l 571 651 q 530 672 489 680 q 447 688 405 688 z m 446 -144 l 446 -144 q 446 -188 413 -214 q 379 -240 325 -240 l 325 -240 q 307 -240 294 -238 q 280 -237 270 -234 l 270 -234 l 270 -204 q 282 -207 295 -208 q 308 -210 326 -210 l 326 -210 q 364 -210 388 -193 q 411 -177 411 -145 l 411 -145 q 411 -114 386 -100 q 361 -86 311 -85 l 311 -85 l 354 0 l 386 0 l 355 -63 q 383 -64 403 -74 q 423 -85 435 -102 q 446 -119 446 -144 z"},"Ċ":{"ha":618,"x_min":63,"x_max":587,"o":"m 405 688 l 405 688 q 333 688 277 664 q 221 639 183 596 q 144 552 124 492 q 103 431 103 359 l 103 359 q 103 259 135 184 q 167 109 231 68 q 295 26 389 26 l 389 26 q 445 26 490 34 q 534 42 571 55 l 571 55 l 571 21 q 536 7 491 -1 q 446 -10 387 -10 l 387 -10 q 280 -10 208 36 q 136 82 100 165 q 63 248 63 360 l 63 360 q 63 438 86 505 q 108 571 153 620 q 197 669 261 697 q 324 724 405 724 l 405 724 q 455 724 501 715 q 546 705 587 686 l 587 686 l 571 651 q 530 672 489 680 q 447 688 405 688 z m 385 908 l 385 908 q 404 908 411 898 q 417 888 417 872 l 417 872 q 417 856 411 846 q 404 836 385 836 l 385 836 q 369 836 362 846 q 355 856 355 872 l 355 872 q 355 888 362 898 q 369 908 385 908 z"},"D":{"ha":700,"x_min":102,"x_max":636,"o":"m 636 364 l 636 364 q 636 244 595 163 q 554 82 472 41 q 389 0 265 0 l 265 0 l 102 0 l 102 714 l 288 714 q 403 714 481 674 q 558 634 597 556 q 636 478 636 364 z m 596 363 l 596 363 q 596 466 562 537 q 528 607 458 643 q 387 678 277 678 l 277 678 l 141 678 l 141 36 l 265 36 q 431 36 514 117 q 596 198 596 363 z"},"Ð":{"ha":700,"x_min":20,"x_max":636,"o":"m 103 714 l 288 714 q 403 714 481 674 q 558 634 597 556 q 636 478 636 364 l 636 364 q 636 244 595 163 q 554 82 471 41 q 388 0 265 0 l 265 0 l 103 0 l 103 337 l 20 337 l 20 373 l 103 373 l 103 714 z m 277 678 l 277 678 l 142 678 l 142 373 l 343 373 l 343 337 l 142 337 l 142 36 l 265 36 q 432 36 514 117 q 596 198 596 363 l 596 363 q 596 466 562 537 q 528 607 458 643 q 387 678 277 678 z"},"Ď":{"ha":700,"x_min":102,"x_max":636,"o":"m 636 364 l 636 364 q 636 244 595 163 q 554 82 472 41 q 389 0 265 0 l 265 0 l 102 0 l 102 714 l 288 714 q 403 714 481 674 q 558 634 597 556 q 636 478 636 364 z m 596 363 l 596 363 q 596 466 562 537 q 528 607 458 643 q 387 678 277 678 l 277 678 l 141 678 l 141 36 l 265 36 q 431 36 514 117 q 596 198 596 363 z m 366 790 l 330 790 q 318 811 298 839 q 277 866 255 893 q 233 920 214 940 l 214 940 l 214 948 l 243 948 q 271 922 299 890 q 326 858 348 829 l 348 829 q 370 858 399 890 q 427 922 454 948 l 454 948 l 483 948 l 483 940 q 465 920 442 893 q 419 866 399 839 q 378 811 366 790 l 366 790 z"},"Đ":{"ha":700,"x_min":20,"x_max":636,"o":"m 103 714 l 288 714 q 403 714 481 674 q 558 634 597 556 q 636 478 636 364 l 636 364 q 636 244 595 163 q 554 82 471 41 q 388 0 265 0 l 265 0 l 103 0 l 103 337 l 20 337 l 20 373 l 103 373 l 103 714 z m 277 678 l 277 678 l 142 678 l 142 373 l 343 373 l 343 337 l 142 337 l 142 36 l 265 36 q 432 36 514 117 q 596 198 596 363 l 596 363 q 596 466 562 537 q 528 607 458 643 q 387 678 277 678 z"},"E":{"ha":551,"x_min":102,"x_max":490,"o":"m 490 36 l 490 0 l 102 0 l 102 714 l 490 714 l 490 678 l 141 678 l 141 394 l 470 394 l 470 358 l 141 358 l 141 36 l 490 36 z"},"É":{"ha":551,"x_min":102,"x_max":490,"o":"m 490 36 l 490 0 l 102 0 l 102 714 l 490 714 l 490 678 l 141 678 l 141 394 l 470 394 l 470 358 l 141 358 l 141 36 l 490 36 z m 435 950 l 435 942 q 422 926 405 907 q 388 887 368 866 q 348 845 328 826 q 307 806 288 790 l 288 790 l 259 790 l 259 797 q 280 817 305 845 q 330 872 353 901 q 376 929 389 950 l 389 950 l 435 950 z"},"Ě":{"ha":551,"x_min":102,"x_max":490,"o":"m 490 36 l 490 0 l 102 0 l 102 714 l 490 714 l 490 678 l 141 678 l 141 394 l 470 394 l 470 358 l 141 358 l 141 36 l 490 36 z m 322 790 l 286 790 q 274 811 254 839 q 233 866 211 893 q 189 920 170 940 l 170 940 l 170 948 l 199 948 q 227 922 255 890 q 282 858 304 829 l 304 829 q 326 858 355 890 q 383 922 410 948 l 410 948 l 439 948 l 439 940 q 421 920 398 893 q 375 866 355 839 q 334 811 322 790 l 322 790 z"},"Ê":{"ha":551,"x_min":102,"x_max":490,"o":"m 490 36 l 490 0 l 102 0 l 102 714 l 490 714 l 490 678 l 141 678 l 141 394 l 470 394 l 470 358 l 141 358 l 141 36 l 490 36 z m 287 948 l 323 948 q 335 927 356 900 q 376 872 399 845 q 421 818 439 797 l 439 797 l 439 790 l 410 790 q 383 816 355 848 q 327 880 305 908 l 305 908 q 283 880 255 848 q 227 816 199 790 l 199 790 l 170 790 l 170 797 q 189 818 212 845 q 234 872 255 900 q 275 927 287 948 l 287 948 z"},"Ë":{"ha":551,"x_min":102,"x_max":490,"o":"m 490 36 l 490 0 l 102 0 l 102 714 l 490 714 l 490 678 l 141 678 l 141 394 l 470 394 l 470 358 l 141 358 l 141 36 l 490 36 z m 184 863 l 184 863 q 184 877 191 887 q 197 897 212 897 l 212 897 q 229 897 235 887 q 241 877 241 863 l 241 863 q 241 847 235 838 q 229 828 212 828 l 212 828 q 197 828 191 838 q 184 847 184 863 z m 369 863 l 369 863 q 369 877 376 887 q 383 897 397 897 l 397 897 q 414 897 420 887 q 426 877 426 863 l 426 863 q 426 847 420 838 q 414 828 397 828 l 397 828 q 383 828 376 838 q 369 847 369 863 z"},"Ė":{"ha":551,"x_min":102,"x_max":490,"o":"m 490 36 l 490 0 l 102 0 l 102 714 l 490 714 l 490 678 l 141 678 l 141 394 l 470 394 l 470 358 l 141 358 l 141 36 l 490 36 z m 304 908 l 304 908 q 323 908 330 898 q 336 888 336 872 l 336 872 q 336 856 330 846 q 323 836 304 836 l 304 836 q 288 836 281 846 q 274 856 274 872 l 274 872 q 274 888 281 898 q 288 908 304 908 z"},"È":{"ha":551,"x_min":102,"x_max":490,"o":"m 490 36 l 490 0 l 102 0 l 102 714 l 490 714 l 490 678 l 141 678 l 141 394 l 470 394 l 470 358 l 141 358 l 141 36 l 490 36 z m 212 950 l 257 950 q 271 929 294 901 q 316 872 342 845 q 367 817 388 797 l 388 797 l 388 790 l 359 790 q 339 806 319 826 q 298 845 279 866 q 259 887 242 907 q 224 926 212 942 l 212 942 l 212 950 z"},"Ē":{"ha":551,"x_min":102,"x_max":490,"o":"m 490 36 l 490 0 l 102 0 l 102 714 l 490 714 l 490 678 l 141 678 l 141 394 l 470 394 l 470 358 l 141 358 l 141 36 l 490 36 z m 174 830 l 438 830 l 438 796 l 174 796 l 174 830 z"},"Ę":{"ha":551,"x_min":102,"x_max":490,"o":"m 490 36 l 490 0 l 102 0 l 102 714 l 490 714 l 490 678 l 141 678 l 141 394 l 470 394 l 470 358 l 141 358 l 141 36 l 490 36 z m 379 -128 l 379 -128 q 379 -156 393 -171 q 407 -186 435 -186 l 435 -186 q 449 -186 462 -183 q 475 -181 483 -179 l 483 -179 l 483 -209 q 473 -213 460 -215 q 447 -218 430 -218 l 430 -218 q 392 -218 368 -196 q 344 -175 344 -133 l 344 -133 q 344 -108 356 -84 q 367 -60 389 -36 q 410 -12 442 12 l 442 12 l 466 0 q 432 -28 406 -59 q 379 -91 379 -128 z"},"F":{"ha":497,"x_min":102,"x_max":490,"o":"m 141 324 l 141 0 l 102 0 l 102 714 l 490 714 l 490 678 l 141 678 l 141 360 l 471 360 l 471 324 l 141 324 z"},"G":{"ha":722,"x_min":63,"x_max":642,"o":"m 375 319 l 375 355 l 642 355 l 642 34 q 592 12 534 1 q 476 -10 414 -10 l 414 -10 q 300 -10 222 33 q 143 76 103 158 q 63 239 63 355 l 63 355 q 63 463 107 546 q 150 629 231 678 q 312 726 425 726 l 425 726 q 483 726 535 715 q 587 704 634 682 l 634 682 l 617 646 q 569 670 521 680 q 472 690 424 690 l 424 690 q 324 690 252 647 q 180 604 142 529 q 103 453 103 356 l 103 356 q 103 243 141 170 q 179 96 250 61 q 321 26 420 26 l 420 26 q 476 26 521 35 q 566 43 603 57 l 603 57 l 603 319 l 375 319 z"},"Ğ":{"ha":722,"x_min":63,"x_max":642,"o":"m 375 319 l 375 355 l 642 355 l 642 34 q 592 12 534 1 q 476 -10 414 -10 l 414 -10 q 300 -10 222 33 q 143 76 103 158 q 63 239 63 355 l 63 355 q 63 463 107 546 q 150 629 231 678 q 312 726 425 726 l 425 726 q 483 726 535 715 q 587 704 634 682 l 634 682 l 617 646 q 569 670 521 680 q 472 690 424 690 l 424 690 q 324 690 252 647 q 180 604 142 529 q 103 453 103 356 l 103 356 q 103 243 141 170 q 179 96 250 61 q 321 26 420 26 l 420 26 q 476 26 521 35 q 566 43 603 57 l 603 57 l 603 319 l 375 319 z m 507 906 l 538 906 q 535 870 519 844 q 502 818 475 804 q 447 790 408 790 l 408 790 q 350 790 318 820 q 285 850 280 906 l 280 906 l 311 906 q 314 880 326 862 q 337 843 358 834 q 379 824 409 824 l 409 824 q 440 824 461 834 q 482 843 493 862 q 504 880 507 906 l 507 906 z"},"Ģ":{"ha":722,"x_min":63,"x_max":642,"o":"m 375 319 l 375 355 l 642 355 l 642 34 q 592 12 534 1 q 476 -10 414 -10 l 414 -10 q 300 -10 222 33 q 143 76 103 158 q 63 239 63 355 l 63 355 q 63 463 107 546 q 150 629 231 678 q 312 726 425 726 l 425 726 q 483 726 535 715 q 587 704 634 682 l 634 682 l 617 646 q 569 670 521 680 q 472 690 424 690 l 424 690 q 324 690 252 647 q 180 604 142 529 q 103 453 103 356 l 103 356 q 103 243 141 170 q 179 96 250 61 q 321 26 420 26 l 420 26 q 476 26 521 35 q 566 43 603 57 l 603 57 l 603 319 l 375 319 z m 444 -61 l 444 -68 q 438 -92 429 -118 q 419 -145 407 -171 q 395 -197 380 -221 l 380 -221 l 357 -221 l 357 -214 q 365 -198 375 -170 q 385 -142 393 -112 q 400 -82 403 -61 l 403 -61 l 444 -61 z"},"Ġ":{"ha":722,"x_min":63,"x_max":642,"o":"m 375 319 l 375 355 l 642 355 l 642 34 q 592 12 534 1 q 476 -10 414 -10 l 414 -10 q 300 -10 222 33 q 143 76 103 158 q 63 239 63 355 l 63 355 q 63 463 107 546 q 150 629 231 678 q 312 726 425 726 l 425 726 q 483 726 535 715 q 587 704 634 682 l 634 682 l 617 646 q 569 670 521 680 q 472 690 424 690 l 424 690 q 324 690 252 647 q 180 604 142 529 q 103 453 103 356 l 103 356 q 103 243 141 170 q 179 96 250 61 q 321 26 420 26 l 420 26 q 476 26 521 35 q 566 43 603 57 l 603 57 l 603 319 l 375 319 z m 408 908 l 408 908 q 427 908 434 898 q 440 888 440 872 l 440 872 q 440 856 434 846 q 427 836 408 836 l 408 836 q 392 836 385 846 q 378 856 378 872 l 378 872 q 378 888 385 898 q 392 908 408 908 z"},"H":{"ha":713,"x_min":102,"x_max":611,"o":"m 611 714 l 611 0 l 572 0 l 572 357 l 141 357 l 141 0 l 102 0 l 102 714 l 141 714 l 141 393 l 572 393 l 572 714 l 611 714 z"},"Ħ":{"ha":713,"x_min":0,"x_max":713,"o":"m 141 0 l 102 0 l 102 544 l 0 544 l 0 578 l 102 578 l 102 714 l 141 714 l 141 578 l 572 578 l 572 714 l 611 714 l 611 578 l 713 578 l 713 544 l 611 544 l 611 0 l 572 0 l 572 357 l 141 357 l 141 0 z m 141 544 l 141 393 l 572 393 l 572 544 l 141 544 z"},"I":{"ha":294,"x_min":57,"x_max":238,"o":"m 238 27 l 238 0 l 57 0 l 57 27 l 128 33 l 128 680 l 57 688 l 57 714 l 238 714 l 238 688 l 167 680 l 167 33 l 238 27 z"}}}
